999
dxfrw 0.6.3
  0
SECTION
  2
HEADER
  9
$ACADVER
  1
AC1021
  9
$DWGCODEPAGE
  3
ANSI_1252
  9
$INSBASE
 10
0
 20
0
 30
0
  9
$EXTMIN
 10
-160
 20
-570
 30
0
  9
$EXTMAX
 10
203
 20
-4.4619
 30
0
  9
$LIMMIN
 10
0
 20
0
  9
$LIMMAX
 10
420
 20
297
  9
$ORTHOMODE
 70
    0
  9
$REGENMODE
 70
    1
  9
$FILLMODE
 70
    1
  9
$QTEXTMODE
 70
    0
  9
$MIRRTEXT
 70
    0
  9
$LTSCALE
 40
1
  9
$ATTMODE
 70
    0
  9
$TEXTSIZE
 40
2.5
  9
$TRACEWID
 40
15.68
  9
$TEXTSTYLE
  7
STANDARD
  9
$CLAYER
  8
mav-cubby-hinge-bottom
  9
$CELTYPE
  6
BYLAYER
  9
$CECOLOR
 62
  256
  9
$CELTSCALE
 40
1
  9
$DISPSILH
 70
    0
  9
$DIMSCALE
 40
1
  9
$DIMASZ
 40
2.5
  9
$DIMEXO
 40
0.625
  9
$DIMDLI
 40
3.75
  9
$DIMRND
 40
0
  9
$DIMDLE
 40
0
  9
$DIMEXE
 40
1.25
  9
$DIMTP
 40
0
  9
$DIMTM
 40
0
  9
$DIMTXT
 40
2.5
  9
$DIMCEN
 40
2.5
  9
$DIMTSZ
 40
0
  9
$DIMTOL
 70
    0
  9
$DIMLIM
 70
    0
  9
$DIMTIH
 70
    0
  9
$DIMTOH
 70
    0
  9
$DIMSE1
 70
    0
  9
$DIMSE2
 70
    0
  9
$DIMTAD
 70
    1
  9
$DIMZIN
 70
    8
  9
$DIMBLK
  1

  9
$DIMASO
 70
    1
  9
$DIMSHO
 70
    1
  9
$DIMPOST
  1

  9
$DIMAPOST
  1

  9
$DIMALT
 70
    0
  9
$DIMALTD
 70
    3
  9
$DIMALTF
 40
0.03937
  9
$DIMLFAC
 40
1
  9
$DIMTOFL
 70
    1
  9
$DIMTVP
 40
0
  9
$DIMTIX
 70
    0
  9
$DIMSOXD
 70
    0
  9
$DIMSAH
 70
    0
  9
$DIMBLK1
  1

  9
$DIMBLK2
  1

  9
$DIMSTYLE
  2
STANDARD
  9
$DIMCLRD
 70
    0
  9
$DIMCLRE
 70
    0
  9
$DIMCLRT
 70
    0
  9
$DIMTFAC
 40
1
  9
$DIMGAP
 40
0.625
  9
$DIMJUST
 70
    0
  9
$DIMSD1
 70
    0
  9
$DIMSD2
 70
    0
  9
$DIMTOLJ
 70
    0
  9
$DIMTZIN
 70
    8
  9
$DIMALTZ
 70
    0
  9
$DIMALTTZ
 70
    0
  9
$DIMUPT
 70
    0
  9
$DIMDEC
 70
    2
  9
$DIMTDEC
 70
    2
  9
$DIMALTU
 70
    2
  9
$DIMALTTD
 70
    3
  9
$DIMTXSTY
  7
STANDARD
  9
$DIMAUNIT
 70
    0
  9
$DIMADEC
 70
    0
  9
$DIMALTRND
 40
0
  9
$DIMAZIN
 70
    0
  9
$DIMDSEP
 70
   44
  9
$DIMATFIT
 70
    3
  9
$DIMFRAC
 70
    0
  9
$DIMLDRBLK
  1
STANDARD
  9
$DIMLUNIT
 70
    2
  9
$DIMLWD
 70
   -2
  9
$DIMLWE
 70
   -2
  9
$DIMTMOVE
 70
    0
  9
$DIMFXL
 40
1
  9
$DIMFXLON
 70
    0
  9
$DIMJOGANG
 40
0.7854
  9
$DIMTFILL
 70
    0
  9
$DIMTFILLCLR
 70
    0
  9
$DIMARCSYM
 70
    0
  9
$DIMLTYPE
  6

  9
$DIMLTEX1
  6

  9
$DIMLTEX2
  6

  9
$LUNITS
 70
    2
  9
$LUPREC
 70
    4
  9
$SKETCHINC
 40
1
  9
$FILLETRAD
 40
0
  9
$AUNITS
 70
    0
  9
$AUPREC
 70
    2
  9
$MENU
  1
.
  9
$ELEVATION
 40
0
  9
$PELEVATION
 40
0
  9
$THICKNESS
 40
0
  9
$LIMCHECK
 70
    0
  9
$CHAMFERA
 40
0
  9
$CHAMFERB
 40
0
  9
$CHAMFERC
 40
0
  9
$CHAMFERD
 40
0
  9
$SKPOLY
 70
    0
  9
$USRTIMER
 70
    1
  9
$ANGBASE
 50
0
  9
$ANGDIR
 70
    0
  9
$PDMODE
 70
   34
  9
$PDSIZE
 40
0
  9
$PLINEWID
 40
0
  9
$SPLFRAME
 70
    0
  9
$SPLINETYPE
 70
    2
  9
$SPLINESEGS
 70
    8
  9
$HANDSEED
  5
20000
  9
$SURFTAB1
 70
    6
  9
$SURFTAB2
 70
    6
  9
$SURFTYPE
 70
    6
  9
$SURFU
 70
    6
  9
$SURFV
 70
    6
  9
$UCSBASE
  2

  9
$UCSNAME
  2

  9
$UCSORG
 10
0
 20
0
 30
0
  9
$UCSXDIR
 10
1
 20
0
 30
0
  9
$UCSYDIR
 10
0
 20
1
 30
0
  9
$UCSORTHOREF
  2

  9
$UCSORTHOVIEW
 70
    0
  9
$UCSORGTOP
 10
0
 20
0
 30
0
  9
$UCSORGBOTTOM
 10
0
 20
0
 30
0
  9
$UCSORGLEFT
 10
0
 20
0
 30
0
  9
$UCSORGRIGHT
 10
0
 20
0
 30
0
  9
$UCSORGFRONT
 10
0
 20
0
 30
0
  9
$UCSORGBACK
 10
0
 20
0
 30
0
  9
$PUCSBASE
  2

  9
$PUCSNAME
  2

  9
$PUCSORG
 10
0
 20
0
 30
0
  9
$PUCSXDIR
 10
1
 20
0
 30
0
  9
$PUCSYDIR
 10
0
 20
1
 30
0
  9
$PUCSORTHOREF
  2

  9
$PUCSORTHOVIEW
 70
    0
  9
$PUCSORGTOP
 10
0
 20
0
 30
0
  9
$PUCSORGBOTTOM
 10
0
 20
0
 30
0
  9
$PUCSORGLEFT
 10
0
 20
0
 30
0
  9
$PUCSORGRIGHT
 10
0
 20
0
 30
0
  9
$PUCSORGFRONT
 10
0
 20
0
 30
0
  9
$PUCSORGBACK
 10
0
 20
0
 30
0
  9
$USERI1
 70
    0
  9
$USERI2
 70
    0
  9
$USERI3
 70
    0
  9
$USERI4
 70
    0
  9
$USERI5
 70
    0
  9
$USERR1
 40
0
  9
$USERR2
 40
0
  9
$USERR3
 40
0
  9
$USERR4
 40
0
  9
$USERR5
 40
0
  9
$WORLDVIEW
 70
    1
  9
$SHADEDGE
 70
    3
  9
$SHADEDIF
 70
   70
  9
$TILEMODE
 70
    1
  9
$MAXACTVP
 70
   64
  9
$PINSBASE
 10
0
 20
0
 30
0
  9
$PLIMCHECK
 70
    0
  9
$PEXTMIN
 10
0
 20
0
 30
0
  9
$PEXTMAX
 10
0
 20
0
 30
0
  9
$SNAPSTYLE
 70
    0
  9
$PLIMMIN
 10
0
 20
0
  9
$PLIMMAX
 10
210
 20
297
  9
$UNITMODE
 70
    0
  9
$VISRETAIN
 70
    1
  9
$PLINEGEN
 70
    0
  9
$PSLTSCALE
 70
    1
  9
$TREEDEPTH
 70
 3020
  9
$CMLSTYLE
  2
Standard
  9
$CMLJUST
 70
    0
  9
$CMLSCALE
 40
20
  9
$PROXYGRAPHICS
 70
    1
  9
$MEASUREMENT
 70
    1
  9
$CELWEIGHT
370
   -1
  9
$ENDCAPS
280
    0
  9
$JOINSTYLE
280
    0
  9
$LWDISPLAY
290
    0
  9
$INSUNITS
 70
    4
  9
$HYPERLINKBASE
  1

  9
$STYLESHEET
  1

  9
$XEDIT
290
    1
  9
$CEPSNTYPE
380
    0
  9
$PSTYLEMODE
290
    1
  9
$EXTNAMES
290
    1
  9
$PSVPSCALE
 40
1
  9
$OLESTARTUP
290
    0
  9
$SORTENTS
280
  127
  9
$INDEXCTL
280
    0
  9
$HIDETEXT
280
    1
  9
$XCLIPFRAME
290
    0
  9
$HALOGAP
280
    0
  9
$OBSCOLOR
 70
  257
  9
$OBSLTYPE
280
    0
  9
$INTERSECTIONDISPLAY
280
    0
  9
$INTERSECTIONCOLOR
 70
  257
  9
$DIMASSOC
280
    1
  9
$PROJECTNAME
  1

  9
$CAMERADISPLAY
290
    0
  9
$LENSLENGTH
 40
50
  9
$CAMERAHEIGHT
 40
0
  9
$STEPSPERSEC
 40
2
  9
$STEPSIZE
 40
50
  9
$3DDWFPREC
 40
2
  9
$PSOLWIDTH
 40
5
  9
$PSOLHEIGHT
 40
80
  9
$LOFTANG1
 40
1.570796326794897
  9
$LOFTANG2
 40
1.570796326794897
  9
$LOFTMAG1
 40
0
  9
$LOFTMAG2
 40
0
  9
$LOFTPARAM
 70
    7
  9
$LOFTNORMALS
280
    1
  9
$LATITUDE
 40
1
  9
$LONGITUDE
 40
1
  9
$NORTHDIRECTION
 40
0
  9
$TIMEZONE
 70
-8000
  9
$LIGHTGLYPHDISPLAY
280
    1
  9
$TILEMODELIGHTSYNCH
280
    1
  9
$SOLIDHIST
280
    1
  9
$SHOWHIST
280
    1
  9
$DWFFRAME
280
    2
  9
$DGNFRAME
280
    0
  9
$REALWORLDSCALE
290
    1
  9
$INTERFERECOLOR
 62
    1
  9
$CSHADOW
280
    0
  9
$SHADOWPLANELOCATION
 40
0
  0
ENDSEC
  0
SECTION
  2
CLASSES
  0
ENDSEC
  0
SECTION
  2
TABLES
  0
TABLE
  2
VPORT
  5
8
330
0
100
AcDbSymbolTable
 70
    1
  0
VPORT
  5
31
330
2
100
AcDbSymbolTableRecord
100
AcDbViewportTableRecord
  2
*ACTIVE
 70
    0
 10
0
 20
0
 11
1
 21
1
 12
328.4392854095119
 22
42.59446982654607
 13
0
 23
0
 14
10
 24
10
 15
10
 25
10
 16
0
 26
0
 36
1
 17
0
 27
0
 37
0
 40
801.5971309525901
 41
1.627400768245839
 42
50
 43
0
 44
0
 50
0
 51
0
 71
    0
 72
  100
 73
    1
 74
    3
 75
    0
 76
    1
 77
    0
 78
    0
281
    0
 65
    1
110
0
120
0
130
0
111
1
121
0
131
0
112
0
122
1
132
0
 79
    0
146
0
348
10020
 60
    7
 61
    5
292
1
282
    1
141
0
142
0
 63
  250
421
3358443
  0
ENDTAB
  0
TABLE
  2
LTYPE
  5
5
330
0
100
AcDbSymbolTable
 70
    4
  0
LTYPE
  5
14
330
5
100
AcDbSymbolTableRecord
100
AcDbLinetypeTableRecord
  2
ByBlock
 70
    0
  3

 72
   65
 73
    0
 40
0
  0
LTYPE
  5
15
330
5
100
AcDbSymbolTableRecord
100
AcDbLinetypeTableRecord
  2
ByLayer
 70
    0
  3

 72
   65
 73
    0
 40
0
  0
LTYPE
  5
16
330
5
100
AcDbSymbolTableRecord
100
AcDbLinetypeTableRecord
  2
Continuous
 70
    0
  3
Solid line
 72
   65
 73
    0
 40
0
  0
LTYPE
  5
32
330
5
100
AcDbSymbolTableRecord
100
AcDbLinetypeTableRecord
  2
DOT
 70
    0
  3
Dot . . . . . . . . . . . . . . . . . . . . . .
 72
   65
 73
    2
 40
6.35
 49
0
 74
    0
 49
-6.35
 74
    0
  0
LTYPE
  5
33
330
5
100
AcDbSymbolTableRecord
100
AcDbLinetypeTableRecord
  2
DOTTINY
 70
    0
  3
Dot (.15x) .....................................
 72
   65
 73
    2
 40
0.9525
 49
0
 74
    0
 49
-0.9525
 74
    0
  0
LTYPE
  5
34
330
5
100
AcDbSymbolTableRecord
100
AcDbLinetypeTableRecord
  2
DOT2
 70
    0
  3
Dot (.5x) .....................................
 72
   65
 73
    2
 40
3.175
 49
0
 74
    0
 49
-3.175
 74
    0
  0
LTYPE
  5
35
330
5
100
AcDbSymbolTableRecord
100
AcDbLinetypeTableRecord
  2
DOTX2
 70
    0
  3
Dot (2x) .  .  .  .  .  .  .  .  .  .  .  .  .
 72
   65
 73
    2
 40
12.7
 49
0
 74
    0
 49
-12.7
 74
    0
  0
LTYPE
  5
36
330
5
100
AcDbSymbolTableRecord
100
AcDbLinetypeTableRecord
  2
DASHED
 70
    0
  3
Dashed _ _ _ _ _ _ _ _ _ _ _ _ _ _ _ _ _
 72
   65
 73
    2
 40
19.05
 49
12.7
 74
    0
 49
-6.35
 74
    0
  0
LTYPE
  5
37
330
5
100
AcDbSymbolTableRecord
100
AcDbLinetypeTableRecord
  2
DASHEDTINY
 70
    0
  3
Dashed (.15x) _ _ _ _ _ _ _ _ _ _ _ _ _ _ _ _ _
 72
   65
 73
    2
 40
2.8575
 49
1.905
 74
    0
 49
-0.9525
 74
    0
  0
LTYPE
  5
38
330
5
100
AcDbSymbolTableRecord
100
AcDbLinetypeTableRecord
  2
DASHED2
 70
    0
  3
Dashed (.5x) _ _ _ _ _ _ _ _ _ _ _ _ _ _ _ _ _
 72
   65
 73
    2
 40
9.524999999999999
 49
6.35
 74
    0
 49
-3.175
 74
    0
  0
LTYPE
  5
39
330
5
100
AcDbSymbolTableRecord
100
AcDbLinetypeTableRecord
  2
DASHEDX2
 70
    0
  3
Dashed (2x) ____  ____  ____  ____  ____  ___
 72
   65
 73
    2
 40
38.09999999999999
 49
25.4
 74
    0
 49
-12.7
 74
    0
  0
LTYPE
  5
3A
330
5
100
AcDbSymbolTableRecord
100
AcDbLinetypeTableRecord
  2
DASHDOT
 70
    0
  3
Dash dot __ . __ . __ . __ . __ . __ . __ . __
 72
   65
 73
    4
 40
25.4
 49
12.7
 74
    0
 49
-6.35
 74
    0
 49
0
 74
    0
 49
-6.35
 74
    0
  0
LTYPE
  5
3B
330
5
100
AcDbSymbolTableRecord
100
AcDbLinetypeTableRecord
  2
DASHDOTTINY
 70
    0
  3
Dash dot (.15x) _._._._._._._._._._._._._._._.
 72
   65
 73
    4
 40
3.81
 49
1.905
 74
    0
 49
-0.9525
 74
    0
 49
0
 74
    0
 49
-0.9525
 74
    0
  0
LTYPE
  5
3C
330
5
100
AcDbSymbolTableRecord
100
AcDbLinetypeTableRecord
  2
DASHDOT2
 70
    0
  3
Dash dot (.5x) _._._._._._._._._._._._._._._.
 72
   65
 73
    4
 40
12.7
 49
6.35
 74
    0
 49
-3.175
 74
    0
 49
0
 74
    0
 49
-3.175
 74
    0
  0
LTYPE
  5
3D
330
5
100
AcDbSymbolTableRecord
100
AcDbLinetypeTableRecord
  2
DASHDOTX2
 70
    0
  3
Dash dot (2x) ____  .  ____  .  ____  .  ___
 72
   65
 73
    4
 40
50.8
 49
25.4
 74
    0
 49
-12.7
 74
    0
 49
0
 74
    0
 49
-12.7
 74
    0
  0
LTYPE
  5
3E
330
5
100
AcDbSymbolTableRecord
100
AcDbLinetypeTableRecord
  2
DIVIDE
 70
    0
  3
Divide ____ . . ____ . . ____ . . ____ . . ____
 72
   65
 73
    6
 40
31.75
 49
12.7
 74
    0
 49
-6.35
 74
    0
 49
0
 74
    0
 49
-6.35
 74
    0
 49
0
 74
    0
 49
-6.35
 74
    0
  0
LTYPE
  5
3F
330
5
100
AcDbSymbolTableRecord
100
AcDbLinetypeTableRecord
  2
DIVIDETINY
 70
    0
  3
Divide (.15x) __..__..__..__..__..__..__..__.._
 72
   65
 73
    6
 40
4.7625
 49
1.905
 74
    0
 49
-0.9525
 74
    0
 49
0
 74
    0
 49
-0.9525
 74
    0
 49
0
 74
    0
 49
-0.9525
 74
    0
  0
LTYPE
  5
40
330
5
100
AcDbSymbolTableRecord
100
AcDbLinetypeTableRecord
  2
DIVIDE2
 70
    0
  3
Divide (.5x) __..__..__..__..__..__..__..__.._
 72
   65
 73
    6
 40
15.875
 49
6.35
 74
    0
 49
-3.175
 74
    0
 49
0
 74
    0
 49
-3.175
 74
    0
 49
0
 74
    0
 49
-3.175
 74
    0
  0
LTYPE
  5
41
330
5
100
AcDbSymbolTableRecord
100
AcDbLinetypeTableRecord
  2
DIVIDEX2
 70
    0
  3
Divide (2x) ________  .  .  ________  .  .  _
 72
   65
 73
    6
 40
63.5
 49
25.4
 74
    0
 49
-12.7
 74
    0
 49
0
 74
    0
 49
-12.7
 74
    0
 49
0
 74
    0
 49
-12.7
 74
    0
  0
LTYPE
  5
42
330
5
100
AcDbSymbolTableRecord
100
AcDbLinetypeTableRecord
  2
BORDER
 70
    0
  3
Border __ __ . __ __ . __ __ . __ __ . __ __ .
 72
   65
 73
    6
 40
44.45
 49
12.7
 74
    0
 49
-6.35
 74
    0
 49
12.7
 74
    0
 49
-6.35
 74
    0
 49
0
 74
    0
 49
-6.35
 74
    0
  0
LTYPE
  5
43
330
5
100
AcDbSymbolTableRecord
100
AcDbLinetypeTableRecord
  2
BORDERTINY
 70
    0
  3
Border (.15x) __.__.__.__.__.__.__.__.__.__.__.
 72
   65
 73
    6
 40
6.6675
 49
1.905
 74
    0
 49
-0.9525
 74
    0
 49
1.905
 74
    0
 49
-0.9525
 74
    0
 49
0
 74
    0
 49
-0.9525
 74
    0
  0
LTYPE
  5
44
330
5
100
AcDbSymbolTableRecord
100
AcDbLinetypeTableRecord
  2
BORDER2
 70
    0
  3
Border (.5x) __.__.__.__.__.__.__.__.__.__.__.
 72
   65
 73
    6
 40
22.225
 49
6.35
 74
    0
 49
-3.175
 74
    0
 49
6.35
 74
    0
 49
-3.175
 74
    0
 49
0
 74
    0
 49
-3.175
 74
    0
  0
LTYPE
  5
45
330
5
100
AcDbSymbolTableRecord
100
AcDbLinetypeTableRecord
  2
BORDERX2
 70
    0
  3
Border (2x) ____  ____  .  ____  ____  .  ___
 72
   65
 73
    6
 40
88.89999999999999
 49
25.4
 74
    0
 49
-12.7
 74
    0
 49
25.4
 74
    0
 49
-12.7
 74
    0
 49
0
 74
    0
 49
-12.7
 74
    0
  0
LTYPE
  5
46
330
5
100
AcDbSymbolTableRecord
100
AcDbLinetypeTableRecord
  2
CENTER
 70
    0
  3
Center ____ _ ____ _ ____ _ ____ _ ____ _ ____
 72
   65
 73
    4
 40
50.8
 49
31.75
 74
    0
 49
-6.35
 74
    0
 49
6.35
 74
    0
 49
-6.35
 74
    0
  0
LTYPE
  5
47
330
5
100
AcDbSymbolTableRecord
100
AcDbLinetypeTableRecord
  2
CENTERTINY
 70
    0
  3
Center (.15x) ___ _ ___ _ ___ _ ___ _ ___ _ ___
 72
   65
 73
    4
 40
7.62
 49
4.7625
 74
    0
 49
-0.9525
 74
    0
 49
0.9525
 74
    0
 49
-0.9525
 74
    0
  0
LTYPE
  5
48
330
5
100
AcDbSymbolTableRecord
100
AcDbLinetypeTableRecord
  2
CENTER2
 70
    0
  3
Center (.5x) ___ _ ___ _ ___ _ ___ _ ___ _ ___
 72
   65
 73
    4
 40
28.575
 49
19.05
 74
    0
 49
-3.175
 74
    0
 49
3.175
 74
    0
 49
-3.175
 74
    0
  0
LTYPE
  5
49
330
5
100
AcDbSymbolTableRecord
100
AcDbLinetypeTableRecord
  2
CENTERX2
 70
    0
  3
Center (2x) ________  __  ________  __  _____
 72
   65
 73
    4
 40
101.6
 49
63.5
 74
    0
 49
-12.7
 74
    0
 49
12.7
 74
    0
 49
-12.7
 74
    0
  0
ENDTAB
  0
TABLE
  2
LAYER
  5
2
330
0
100
AcDbSymbolTable
 70
    1
  0
LAYER
  5
10
330
2
100
AcDbSymbolTableRecord
100
AcDbLayerTableRecord
  2
0
 70
    0
 62
    7
  6
CONTINUOUS
370
    0
390
F
  0
LAYER
  5
4A
330
2
100
AcDbSymbolTableRecord
100
AcDbLayerTableRecord
  2
Construction
 70
    1
 62
    6
  6
DASHDOT2
370
    0
390
F
1001
LibreCad
1070
    1
  0
LAYER
  5
4B
330
2
100
AcDbSymbolTableRecord
100
AcDbLayerTableRecord
  2
Continuous
 70
    0
 62
    7
  6
CONTINUOUS
370
    0
390
F
  0
LAYER
  5
4C
330
2
100
AcDbSymbolTableRecord
100
AcDbLayerTableRecord
  2
dummy-box
 70
    0
 62
    7
  6
CONTINUOUS
370
    0
390
F
  0
LAYER
  5
4D
330
2
100
AcDbSymbolTableRecord
100
AcDbLayerTableRecord
  2
href
 70
    1
 62
    6
  6
CONTINUOUS
370
    0
390
F
1001
LibreCad
1070
    1
  0
LAYER
  5
4E
330
2
100
AcDbSymbolTableRecord
100
AcDbLayerTableRecord
  2
mav-cubby-back
 70
    4
 62
    7
  6
CONTINUOUS
370
    0
390
F
  0
LAYER
  5
4F
330
2
100
AcDbSymbolTableRecord
100
AcDbLayerTableRecord
  2
mav-cubby-half-bottom
 70
    4
 62
    7
  6
CONTINUOUS
370
    0
390
F
  0
LAYER
  5
50
330
2
100
AcDbSymbolTableRecord
100
AcDbLayerTableRecord
  2
mav-cubby-half-front
 70
    4
 62
    7
  6
CONTINUOUS
370
    0
390
F
  0
LAYER
  5
51
330
2
100
AcDbSymbolTableRecord
100
AcDbLayerTableRecord
  2
mav-cubby-half-side
 70
    4
 62
    7
  6
CONTINUOUS
370
    0
390
F
  0
LAYER
  5
52
330
2
100
AcDbSymbolTableRecord
100
AcDbLayerTableRecord
  2
mav-cubby-hinge-bottom
 70
    0
 62
    7
  6
CONTINUOUS
370
    0
390
F
  0
LAYER
  5
53
330
2
100
AcDbSymbolTableRecord
100
AcDbLayerTableRecord
  2
mav-cubby-hinge-front
 70
    0
 62
    7
  6
CONTINUOUS
370
    0
390
F
  0
LAYER
  5
54
330
2
100
AcDbSymbolTableRecord
100
AcDbLayerTableRecord
  2
mav-cubby-hinge-side
 70
    4
 62
    7
  6
CONTINUOUS
370
    0
390
F
  0
LAYER
  5
55
330
2
100
AcDbSymbolTableRecord
100
AcDbLayerTableRecord
  2
mav-cubby-top
 70
    0
 62
    7
  6
CONTINUOUS
370
    0
390
F
  0
LAYER
  5
56
330
2
100
AcDbSymbolTableRecord
100
AcDbLayerTableRecord
  2
vref
 70
    1
 62
    6
  6
CONTINUOUS
370
    0
390
F
1001
LibreCad
1070
    1
  0
ENDTAB
  0
TABLE
  2
STYLE
  5
3
330
0
100
AcDbSymbolTable
 70
    3
  0
STYLE
  5
57
330
2
100
AcDbSymbolTableRecord
100
AcDbTextStyleTableRecord
  2
Standard
 70
    0
 40
0
 41
1
 50
0
 71
    0
 42
1
  3
txt
  4

  0
ENDTAB
  0
TABLE
  2
VIEW
  5
6
330
0
100
AcDbSymbolTable
 70
    0
  0
ENDTAB
  0
TABLE
  2
UCS
  5
7
330
0
100
AcDbSymbolTable
 70
    0
  0
ENDTAB
  0
TABLE
  2
APPID
  5
9
330
0
100
AcDbSymbolTable
 70
    1
  0
APPID
  5
12
330
9
100
AcDbSymbolTableRecord
100
AcDbRegAppTableRecord
  2
ACAD
 70
    0
  0
APPID
  5
58
330
9
100
AcDbSymbolTableRecord
100
AcDbRegAppTableRecord
  2
LibreCad
 70
    0
  0
ENDTAB
  0
TABLE
  2
DIMSTYLE
  5
A
330
0
100
AcDbSymbolTable
 70
    1
100
AcDbDimStyleTable
 71
    1
  0
DIMSTYLE
105
59
330
A
100
AcDbSymbolTableRecord
100
AcDbDimStyleTableRecord
  2
Standard
 70
    0
 40
1
 41
2.5
 42
0.625
 43
0.38
 44
1.25
 45
0
 46
0
 47
0
 48
0
 49
1
140
2.5
141
0.09
142
0
143
25.4
144
1
145
0
146
1
147
0.625
148
0
 71
    0
 72
    0
 73
    0
 74
    1
 75
    0
 76
    0
 77
    0
 78
    1
 79
    0
170
    0
171
    2
172
    0
173
    0
174
    0
175
    0
176
    0
177
    0
178
    0
179
    0
271
    2
272
    4
273
    2
274
    2
275
    0
276
    0
277
    2
278
    0
279
    0
280
    0
281
    0
282
    0
283
    1
284
    0
285
    0
286
    0
288
    0
289
    3
340
standard
341

371
   -2
372
   -2
  0
ENDTAB
  0
TABLE
  2
BLOCK_RECORD
  5
1
330
0
100
AcDbSymbolTable
 70
    2
  0
BLOCK_RECORD
  5
1F
330
1
100
AcDbSymbolTableRecord
100
AcDbBlockTableRecord
  2
*Model_Space
 70
    0
280
    1
281
    0
  0
BLOCK_RECORD
  5
1E
330
1
100
AcDbSymbolTableRecord
100
AcDbBlockTableRecord
  2
*Paper_Space
 70
    0
280
    1
281
    0
  0
ENDTAB
  0
ENDSEC
  0
SECTION
  2
BLOCKS
  0
BLOCK
  5
20
330
1F
100
AcDbEntity
  8
0
100
AcDbBlockBegin
  2
*Model_Space
 70
    0
 10
0
 20
0
 30
0
  3
*Model_Space
  1

  0
ENDBLK
  5
21
330
1F
100
AcDbEntity
  8
0
100
AcDbBlockEnd
  0
BLOCK
  5
1C
330
1B
100
AcDbEntity
  8
0
100
AcDbBlockBegin
  2
*Paper_Space
 70
    0
 10
0
 20
0
 30
0
  3
*Paper_Space
  1

  0
ENDBLK
  5
1D
330
1F
100
AcDbEntity
  8
0
100
AcDbBlockEnd
  0
ENDSEC
  0
SECTION
  2
ENTITIES
  0
LINE
  5
5A
100
AcDbEntity
  8
dummy-box
  6
ByLayer
 62
  256
370
   -1
100
AcDbLine
 10
-3
 20
-540
 11
53
 21
-540
  0
LINE
  5
5B
100
AcDbEntity
  8
dummy-box
  6
ByLayer
 62
  256
370
   -1
100
AcDbLine
 10
53
 20
-540
 11
53
 21
-570
  0
LINE
  5
5C
100
AcDbEntity
  8
dummy-box
  6
ByLayer
 62
  256
370
   -1
100
AcDbLine
 10
53
 20
-570
 11
-3
 21
-570
  0
LINE
  5
5D
100
AcDbEntity
  8
dummy-box
  6
ByLayer
 62
  256
370
   -1
100
AcDbLine
 10
-3
 20
-570
 11
-3
 21
-540
  0
LINE
  5
5E
100
AcDbEntity
  8
dummy-box
  6
ByLayer
 62
  256
370
   -1
100
AcDbLine
 10
-3
 20
-400
 11
53
 21
-400
  0
LINE
  5
5F
100
AcDbEntity
  8
dummy-box
  6
ByLayer
 62
  256
370
   -1
100
AcDbLine
 10
53
 20
-400
 11
53
 21
-430
  0
LINE
  5
60
100
AcDbEntity
  8
dummy-box
  6
ByLayer
 62
  256
370
   -1
100
AcDbLine
 10
53
 20
-430
 11
-3
 21
-430
  0
LINE
  5
61
100
AcDbEntity
  8
dummy-box
  6
ByLayer
 62
  256
370
   -1
100
AcDbLine
 10
-3
 20
-430
 11
-3
 21
-400
  0
LINE
  5
62
100
AcDbEntity
  8
dummy-box
  6
ByLayer
 62
  256
370
   -1
100
AcDbLine
 10
-70
 20
-420
 11
-14
 21
-420
  0
LINE
  5
63
100
AcDbEntity
  8
dummy-box
  6
ByLayer
 62
  256
370
   -1
100
AcDbLine
 10
-14
 20
-420
 11
-14
 21
-338
  0
LINE
  5
64
100
AcDbEntity
  8
dummy-box
  6
ByLayer
 62
  256
370
   -1
100
AcDbLine
 10
-14
 20
-338
 11
-70
 21
-338
  0
LINE
  5
65
100
AcDbEntity
  8
dummy-box
  6
ByLayer
 62
  256
370
   -1
100
AcDbLine
 10
-70
 20
-338
 11
-70
 21
-420
  0
LINE
  5
66
100
AcDbEntity
  8
dummy-box
  6
ByLayer
 62
  256
370
   -1
100
AcDbLine
 10
-40
 20
-530
 11
-40
 21
-448
  0
LINE
  5
67
100
AcDbEntity
  8
dummy-box
  6
ByLayer
 62
  256
370
   -1
100
AcDbLine
 10
0.3999999999999999
 20
-451.4
 11
0.3999999999999999
 21
-456
  0
LINE
  5
68
100
AcDbEntity
  8
dummy-box
  6
ByLayer
 62
  256
370
   -1
100
AcDbLine
 10
0.3999999999999999
 20
-456
 11
-3
 21
-456
  0
LINE
  5
69
100
AcDbEntity
  8
dummy-box
  6
ByLayer
 62
  256
370
   -1
100
AcDbLine
 10
-3
 20
-456
 11
-3
 21
-462
  0
LINE
  5
6A
100
AcDbEntity
  8
dummy-box
  6
ByLayer
 62
  256
370
   -1
100
AcDbLine
 10
-3
 20
-462
 11
0.3999999999999999
 21
-462
  0
LINE
  5
6B
100
AcDbEntity
  8
dummy-box
  6
ByLayer
 62
  256
370
   -1
100
AcDbLine
 10
0.3999999999999999
 20
-462
 11
0.3999999999999999
 21
-468
  0
LINE
  5
6C
100
AcDbEntity
  8
dummy-box
  6
ByLayer
 62
  256
370
   -1
100
AcDbLine
 10
0.3999999999999999
 20
-468
 11
-3
 21
-468
  0
LINE
  5
6D
100
AcDbEntity
  8
dummy-box
  6
ByLayer
 62
  256
370
   -1
100
AcDbLine
 10
-3
 20
-468
 11
-3
 21
-474
  0
LINE
  5
6E
100
AcDbEntity
  8
dummy-box
  6
ByLayer
 62
  256
370
   -1
100
AcDbLine
 10
-3
 20
-474
 11
0.3999999999999999
 21
-474
  0
LINE
  5
6F
100
AcDbEntity
  8
dummy-box
  6
ByLayer
 62
  256
370
   -1
100
AcDbLine
 10
0.3999999999999999
 20
-474
 11
0.3999999999999999
 21
-480
  0
LINE
  5
70
100
AcDbEntity
  8
dummy-box
  6
ByLayer
 62
  256
370
   -1
100
AcDbLine
 10
0.3999999999999999
 20
-480
 11
-3
 21
-480
  0
LINE
  5
71
100
AcDbEntity
  8
dummy-box
  6
ByLayer
 62
  256
370
   -1
100
AcDbLine
 10
-3
 20
-480
 11
-3
 21
-486
  0
LINE
  5
72
100
AcDbEntity
  8
dummy-box
  6
ByLayer
 62
  256
370
   -1
100
AcDbLine
 10
-3
 20
-486
 11
0.3999999999999999
 21
-486
  0
LINE
  5
73
100
AcDbEntity
  8
dummy-box
  6
ByLayer
 62
  256
370
   -1
100
AcDbLine
 10
0.3999999999999999
 20
-486
 11
0.3999999999999999
 21
-492
  0
LINE
  5
74
100
AcDbEntity
  8
dummy-box
  6
ByLayer
 62
  256
370
   -1
100
AcDbLine
 10
0.3999999999999999
 20
-492
 11
-3
 21
-492
  0
LINE
  5
75
100
AcDbEntity
  8
dummy-box
  6
ByLayer
 62
  256
370
   -1
100
AcDbLine
 10
-3
 20
-492
 11
-3
 21
-498
  0
LINE
  5
76
100
AcDbEntity
  8
dummy-box
  6
ByLayer
 62
  256
370
   -1
100
AcDbLine
 10
-3
 20
-498
 11
0.3999999999999999
 21
-498
  0
LINE
  5
77
100
AcDbEntity
  8
dummy-box
  6
ByLayer
 62
  256
370
   -1
100
AcDbLine
 10
0.3999999999999999
 20
-498
 11
0.3999999999999999
 21
-504
  0
LINE
  5
78
100
AcDbEntity
  8
dummy-box
  6
ByLayer
 62
  256
370
   -1
100
AcDbLine
 10
0.3999999999999999
 20
-504
 11
-3
 21
-504
  0
LINE
  5
79
100
AcDbEntity
  8
dummy-box
  6
ByLayer
 62
  256
370
   -1
100
AcDbLine
 10
-3
 20
-504
 11
-3
 21
-510
  0
LINE
  5
7A
100
AcDbEntity
  8
dummy-box
  6
ByLayer
 62
  256
370
   -1
100
AcDbLine
 10
-3
 20
-510
 11
0.3999999999999999
 21
-510
  0
LINE
  5
7B
100
AcDbEntity
  8
dummy-box
  6
ByLayer
 62
  256
370
   -1
100
AcDbLine
 10
0.3999999999999999
 20
-510
 11
0.3999999999999999
 21
-516
  0
LINE
  5
7C
100
AcDbEntity
  8
dummy-box
  6
ByLayer
 62
  256
370
   -1
100
AcDbLine
 10
0.3999999999999999
 20
-516
 11
-3
 21
-516
  0
LINE
  5
7D
100
AcDbEntity
  8
dummy-box
  6
ByLayer
 62
  256
370
   -1
100
AcDbLine
 10
-3
 20
-516
 11
-3
 21
-522
  0
LINE
  5
7E
100
AcDbEntity
  8
dummy-box
  6
ByLayer
 62
  256
370
   -1
100
AcDbLine
 10
-3
 20
-522
 11
0.3999999999999999
 21
-522
  0
LINE
  5
7F
100
AcDbEntity
  8
dummy-box
  6
ByLayer
 62
  256
370
   -1
100
AcDbLine
 10
0.3999999999999999
 20
-522
 11
0.3999999999999999
 21
-526.6
  0
LINE
  5
80
100
AcDbEntity
  8
dummy-box
  6
ByLayer
 62
  256
370
   -1
100
AcDbLine
 10
0.3999999999999999
 20
-526.6
 11
-3
 21
-526.6
  0
LINE
  5
81
100
AcDbEntity
  8
dummy-box
  6
ByLayer
 62
  256
370
   -1
100
AcDbLine
 10
-3
 20
-526.6
 11
-3
 21
-530
  0
LINE
  5
82
100
AcDbEntity
  8
dummy-box
  6
ByLayer
 62
  256
370
   -1
100
AcDbLine
 10
-3
 20
-451.4000000000001
 11
0.3999999999999999
 21
-451.4
  0
LINE
  5
83
100
AcDbEntity
  8
dummy-box
  6
ByLayer
 62
  256
370
   -1
100
AcDbLine
 10
-3
 20
-448
 11
-3
 21
-451.4000000000001
  0
LINE
  5
84
100
AcDbEntity
  8
dummy-box
  6
ByLayer
 62
  256
370
   -1
100
AcDbLine
 10
-10
 20
-451.4
 11
-10
 21
-456
  0
LINE
  5
85
100
AcDbEntity
  8
dummy-box
  6
ByLayer
 62
  256
370
   -1
100
AcDbLine
 10
-10
 20
-456
 11
-13.40000000000001
 21
-456
  0
LINE
  5
86
100
AcDbEntity
  8
dummy-box
  6
ByLayer
 62
  256
370
   -1
100
AcDbLine
 10
-13.40000000000001
 20
-456
 11
-13.40000000000001
 21
-462
  0
LINE
  5
87
100
AcDbEntity
  8
dummy-box
  6
ByLayer
 62
  256
370
   -1
100
AcDbLine
 10
-13.40000000000001
 20
-462
 11
-10
 21
-462
  0
LINE
  5
88
100
AcDbEntity
  8
dummy-box
  6
ByLayer
 62
  256
370
   -1
100
AcDbLine
 10
-10
 20
-462
 11
-10
 21
-468
  0
LINE
  5
89
100
AcDbEntity
  8
dummy-box
  6
ByLayer
 62
  256
370
   -1
100
AcDbLine
 10
-10
 20
-468
 11
-13.40000000000001
 21
-468
  0
LINE
  5
8A
100
AcDbEntity
  8
dummy-box
  6
ByLayer
 62
  256
370
   -1
100
AcDbLine
 10
-13.40000000000001
 20
-468
 11
-13.40000000000001
 21
-474
  0
LINE
  5
8B
100
AcDbEntity
  8
dummy-box
  6
ByLayer
 62
  256
370
   -1
100
AcDbLine
 10
-13.40000000000001
 20
-474
 11
-10
 21
-474
  0
LINE
  5
8C
100
AcDbEntity
  8
dummy-box
  6
ByLayer
 62
  256
370
   -1
100
AcDbLine
 10
-10
 20
-474
 11
-10
 21
-480
  0
LINE
  5
8D
100
AcDbEntity
  8
dummy-box
  6
ByLayer
 62
  256
370
   -1
100
AcDbLine
 10
-10
 20
-480
 11
-13.40000000000001
 21
-480
  0
LINE
  5
8E
100
AcDbEntity
  8
dummy-box
  6
ByLayer
 62
  256
370
   -1
100
AcDbLine
 10
-13.40000000000001
 20
-480
 11
-13.40000000000001
 21
-486
  0
LINE
  5
8F
100
AcDbEntity
  8
dummy-box
  6
ByLayer
 62
  256
370
   -1
100
AcDbLine
 10
-13.40000000000001
 20
-486
 11
-10
 21
-486
  0
LINE
  5
90
100
AcDbEntity
  8
dummy-box
  6
ByLayer
 62
  256
370
   -1
100
AcDbLine
 10
-10
 20
-486
 11
-10
 21
-492
  0
LINE
  5
91
100
AcDbEntity
  8
dummy-box
  6
ByLayer
 62
  256
370
   -1
100
AcDbLine
 10
-10
 20
-492
 11
-13.40000000000001
 21
-492
  0
LINE
  5
92
100
AcDbEntity
  8
dummy-box
  6
ByLayer
 62
  256
370
   -1
100
AcDbLine
 10
-13.40000000000001
 20
-492
 11
-13.40000000000001
 21
-498
  0
LINE
  5
93
100
AcDbEntity
  8
dummy-box
  6
ByLayer
 62
  256
370
   -1
100
AcDbLine
 10
-13.40000000000001
 20
-498
 11
-10
 21
-498
  0
LINE
  5
94
100
AcDbEntity
  8
dummy-box
  6
ByLayer
 62
  256
370
   -1
100
AcDbLine
 10
-10
 20
-498
 11
-10
 21
-504
  0
LINE
  5
95
100
AcDbEntity
  8
dummy-box
  6
ByLayer
 62
  256
370
   -1
100
AcDbLine
 10
-10
 20
-504
 11
-13.40000000000001
 21
-504
  0
LINE
  5
96
100
AcDbEntity
  8
dummy-box
  6
ByLayer
 62
  256
370
   -1
100
AcDbLine
 10
-13.40000000000001
 20
-504
 11
-13.40000000000001
 21
-510
  0
LINE
  5
97
100
AcDbEntity
  8
dummy-box
  6
ByLayer
 62
  256
370
   -1
100
AcDbLine
 10
-13.40000000000001
 20
-510
 11
-10
 21
-510
  0
LINE
  5
98
100
AcDbEntity
  8
dummy-box
  6
ByLayer
 62
  256
370
   -1
100
AcDbLine
 10
-10
 20
-510
 11
-10
 21
-516
  0
LINE
  5
99
100
AcDbEntity
  8
dummy-box
  6
ByLayer
 62
  256
370
   -1
100
AcDbLine
 10
-10
 20
-516
 11
-13.40000000000001
 21
-516
  0
LINE
  5
9A
100
AcDbEntity
  8
dummy-box
  6
ByLayer
 62
  256
370
   -1
100
AcDbLine
 10
-13.40000000000001
 20
-516
 11
-13.40000000000001
 21
-522
  0
LINE
  5
9B
100
AcDbEntity
  8
dummy-box
  6
ByLayer
 62
  256
370
   -1
100
AcDbLine
 10
-13.40000000000001
 20
-522
 11
-10
 21
-522
  0
LINE
  5
9C
100
AcDbEntity
  8
dummy-box
  6
ByLayer
 62
  256
370
   -1
100
AcDbLine
 10
-10
 20
-522
 11
-10
 21
-526.6
  0
LINE
  5
9D
100
AcDbEntity
  8
dummy-box
  6
ByLayer
 62
  256
370
   -1
100
AcDbLine
 10
-10
 20
-526.6
 11
-13.40000000000001
 21
-526.6
  0
LINE
  5
9E
100
AcDbEntity
  8
dummy-box
  6
ByLayer
 62
  256
370
   -1
100
AcDbLine
 10
-13.40000000000001
 20
-451.4000000000001
 11
-10
 21
-451.4
  0
LINE
  5
9F
100
AcDbEntity
  8
dummy-box
  6
ByLayer
 62
  256
370
   -1
100
AcDbLine
 10
-13.40000000000001
 20
-448
 11
-13.40000000000001
 21
-451.4000000000001
  0
LINE
  5
A0
100
AcDbEntity
  8
dummy-box
  6
ByLayer
 62
  256
370
   -1
100
AcDbLine
 10
-40
 20
-448
 11
-13.40000000000001
 21
-448
  0
LINE
  5
A1
100
AcDbEntity
  8
dummy-box
  6
ByLayer
 62
  256
370
   -1
100
AcDbLine
 10
-13.40000000000001
 20
-526.6
 11
-13.40000000000001
 21
-530
  0
LINE
  5
A2
100
AcDbEntity
  8
dummy-box
  6
ByLayer
 62
  256
370
   -1
100
AcDbLine
 10
-13.40000000000001
 20
-530
 11
-40
 21
-530
  0
LINE
  5
A3
100
AcDbEntity
  8
dummy-box
  6
ByLayer
 62
  256
370
   -1
100
AcDbLine
 10
49.6
 20
-451.4
 11
49.6
 21
-456
  0
LINE
  5
A4
100
AcDbEntity
  8
dummy-box
  6
ByLayer
 62
  256
370
   -1
100
AcDbLine
 10
49.6
 20
-456
 11
53
 21
-456
  0
LINE
  5
A5
100
AcDbEntity
  8
dummy-box
  6
ByLayer
 62
  256
370
   -1
100
AcDbLine
 10
53
 20
-456
 11
53
 21
-462
  0
LINE
  5
A6
100
AcDbEntity
  8
dummy-box
  6
ByLayer
 62
  256
370
   -1
100
AcDbLine
 10
53
 20
-462
 11
49.6
 21
-462
  0
LINE
  5
A7
100
AcDbEntity
  8
dummy-box
  6
ByLayer
 62
  256
370
   -1
100
AcDbLine
 10
49.6
 20
-462
 11
49.6
 21
-468
  0
LINE
  5
A8
100
AcDbEntity
  8
dummy-box
  6
ByLayer
 62
  256
370
   -1
100
AcDbLine
 10
49.6
 20
-468
 11
53
 21
-468
  0
LINE
  5
A9
100
AcDbEntity
  8
dummy-box
  6
ByLayer
 62
  256
370
   -1
100
AcDbLine
 10
53
 20
-468
 11
53
 21
-474
  0
LINE
  5
AA
100
AcDbEntity
  8
dummy-box
  6
ByLayer
 62
  256
370
   -1
100
AcDbLine
 10
53
 20
-474
 11
49.6
 21
-474
  0
LINE
  5
AB
100
AcDbEntity
  8
dummy-box
  6
ByLayer
 62
  256
370
   -1
100
AcDbLine
 10
49.6
 20
-474
 11
49.6
 21
-480
  0
LINE
  5
AC
100
AcDbEntity
  8
dummy-box
  6
ByLayer
 62
  256
370
   -1
100
AcDbLine
 10
49.6
 20
-480
 11
53
 21
-480
  0
LINE
  5
AD
100
AcDbEntity
  8
dummy-box
  6
ByLayer
 62
  256
370
   -1
100
AcDbLine
 10
53
 20
-480
 11
53
 21
-486
  0
LINE
  5
AE
100
AcDbEntity
  8
dummy-box
  6
ByLayer
 62
  256
370
   -1
100
AcDbLine
 10
53
 20
-486
 11
49.6
 21
-486
  0
LINE
  5
AF
100
AcDbEntity
  8
dummy-box
  6
ByLayer
 62
  256
370
   -1
100
AcDbLine
 10
49.6
 20
-486
 11
49.6
 21
-492
  0
LINE
  5
B0
100
AcDbEntity
  8
dummy-box
  6
ByLayer
 62
  256
370
   -1
100
AcDbLine
 10
49.6
 20
-492
 11
53
 21
-492
  0
LINE
  5
B1
100
AcDbEntity
  8
dummy-box
  6
ByLayer
 62
  256
370
   -1
100
AcDbLine
 10
53
 20
-492
 11
53
 21
-498
  0
LINE
  5
B2
100
AcDbEntity
  8
dummy-box
  6
ByLayer
 62
  256
370
   -1
100
AcDbLine
 10
53
 20
-498
 11
49.6
 21
-498
  0
LINE
  5
B3
100
AcDbEntity
  8
dummy-box
  6
ByLayer
 62
  256
370
   -1
100
AcDbLine
 10
49.6
 20
-498
 11
49.6
 21
-504
  0
LINE
  5
B4
100
AcDbEntity
  8
dummy-box
  6
ByLayer
 62
  256
370
   -1
100
AcDbLine
 10
49.6
 20
-504
 11
53
 21
-504
  0
LINE
  5
B5
100
AcDbEntity
  8
dummy-box
  6
ByLayer
 62
  256
370
   -1
100
AcDbLine
 10
53
 20
-504
 11
53
 21
-510
  0
LINE
  5
B6
100
AcDbEntity
  8
dummy-box
  6
ByLayer
 62
  256
370
   -1
100
AcDbLine
 10
53
 20
-510
 11
49.6
 21
-510
  0
LINE
  5
B7
100
AcDbEntity
  8
dummy-box
  6
ByLayer
 62
  256
370
   -1
100
AcDbLine
 10
49.6
 20
-510
 11
49.6
 21
-516
  0
LINE
  5
B8
100
AcDbEntity
  8
dummy-box
  6
ByLayer
 62
  256
370
   -1
100
AcDbLine
 10
49.6
 20
-516
 11
53
 21
-516
  0
LINE
  5
B9
100
AcDbEntity
  8
dummy-box
  6
ByLayer
 62
  256
370
   -1
100
AcDbLine
 10
53
 20
-516
 11
53
 21
-522
  0
LINE
  5
BA
100
AcDbEntity
  8
dummy-box
  6
ByLayer
 62
  256
370
   -1
100
AcDbLine
 10
53
 20
-522
 11
49.6
 21
-522
  0
LINE
  5
BB
100
AcDbEntity
  8
dummy-box
  6
ByLayer
 62
  256
370
   -1
100
AcDbLine
 10
49.6
 20
-522
 11
49.6
 21
-526.6
  0
LINE
  5
BC
100
AcDbEntity
  8
dummy-box
  6
ByLayer
 62
  256
370
   -1
100
AcDbLine
 10
49.6
 20
-526.6
 11
53
 21
-526.6
  0
LINE
  5
BD
100
AcDbEntity
  8
dummy-box
  6
ByLayer
 62
  256
370
   -1
100
AcDbLine
 10
53
 20
-526.6
 11
53
 21
-530
  0
LINE
  5
BE
100
AcDbEntity
  8
dummy-box
  6
ByLayer
 62
  256
370
   -1
100
AcDbLine
 10
53
 20
-451.4000000000001
 11
49.6
 21
-451.4
  0
LINE
  5
BF
100
AcDbEntity
  8
dummy-box
  6
ByLayer
 62
  256
370
   -1
100
AcDbLine
 10
53
 20
-448
 11
53
 21
-451.4000000000001
  0
LINE
  5
C0
100
AcDbEntity
  8
dummy-box
  6
ByLayer
 62
  256
370
   -1
100
AcDbLine
 10
46
 20
-530
 11
46
 21
-526.6
  0
LINE
  5
C1
100
AcDbEntity
  8
dummy-box
  6
ByLayer
 62
  256
370
   -1
100
AcDbLine
 10
46
 20
-526.6
 11
40
 21
-526.6
  0
LINE
  5
C2
100
AcDbEntity
  8
dummy-box
  6
ByLayer
 62
  256
370
   -1
100
AcDbLine
 10
40
 20
-526.6
 11
40
 21
-530
  0
LINE
  5
C3
100
AcDbEntity
  8
dummy-box
  6
ByLayer
 62
  256
370
   -1
100
AcDbLine
 10
40
 20
-530
 11
34
 21
-530
  0
LINE
  5
C4
100
AcDbEntity
  8
dummy-box
  6
ByLayer
 62
  256
370
   -1
100
AcDbLine
 10
34
 20
-530
 11
34
 21
-526.6
  0
LINE
  5
C5
100
AcDbEntity
  8
dummy-box
  6
ByLayer
 62
  256
370
   -1
100
AcDbLine
 10
34
 20
-526.6
 11
28
 21
-526.6
  0
LINE
  5
C6
100
AcDbEntity
  8
dummy-box
  6
ByLayer
 62
  256
370
   -1
100
AcDbLine
 10
28
 20
-526.6
 11
28
 21
-530
  0
LINE
  5
C7
100
AcDbEntity
  8
dummy-box
  6
ByLayer
 62
  256
370
   -1
100
AcDbLine
 10
28
 20
-530
 11
22
 21
-530
  0
LINE
  5
C8
100
AcDbEntity
  8
dummy-box
  6
ByLayer
 62
  256
370
   -1
100
AcDbLine
 10
22
 20
-530
 11
22
 21
-526.6
  0
LINE
  5
C9
100
AcDbEntity
  8
dummy-box
  6
ByLayer
 62
  256
370
   -1
100
AcDbLine
 10
22
 20
-526.6
 11
16
 21
-526.6
  0
LINE
  5
CA
100
AcDbEntity
  8
dummy-box
  6
ByLayer
 62
  256
370
   -1
100
AcDbLine
 10
16
 20
-526.6
 11
16
 21
-530
  0
LINE
  5
CB
100
AcDbEntity
  8
dummy-box
  6
ByLayer
 62
  256
370
   -1
100
AcDbLine
 10
16
 20
-530
 11
10
 21
-530
  0
LINE
  5
CC
100
AcDbEntity
  8
dummy-box
  6
ByLayer
 62
  256
370
   -1
100
AcDbLine
 10
10
 20
-530
 11
10
 21
-526.6
  0
LINE
  5
CD
100
AcDbEntity
  8
dummy-box
  6
ByLayer
 62
  256
370
   -1
100
AcDbLine
 10
10
 20
-526.6
 11
4
 21
-526.6
  0
LINE
  5
CE
100
AcDbEntity
  8
dummy-box
  6
ByLayer
 62
  256
370
   -1
100
AcDbLine
 10
4
 20
-526.6
 11
4
 21
-530
  0
LINE
  5
CF
100
AcDbEntity
  8
dummy-box
  6
ByLayer
 62
  256
370
   -1
100
AcDbLine
 10
4
 20
-530
 11
-3
 21
-530
  0
LINE
  5
D0
100
AcDbEntity
  8
dummy-box
  6
ByLayer
 62
  256
370
   -1
100
AcDbLine
 10
46
 20
-530
 11
53
 21
-530
  0
LINE
  5
D1
100
AcDbEntity
  8
dummy-box
  6
ByLayer
 62
  256
370
   -1
100
AcDbLine
 10
46
 20
-448
 11
46
 21
-451.4
  0
LINE
  5
D2
100
AcDbEntity
  8
dummy-box
  6
ByLayer
 62
  256
370
   -1
100
AcDbLine
 10
46
 20
-451.4
 11
40
 21
-451.4
  0
LINE
  5
D3
100
AcDbEntity
  8
dummy-box
  6
ByLayer
 62
  256
370
   -1
100
AcDbLine
 10
40
 20
-451.4
 11
40
 21
-448
  0
LINE
  5
D4
100
AcDbEntity
  8
dummy-box
  6
ByLayer
 62
  256
370
   -1
100
AcDbLine
 10
40
 20
-448
 11
34
 21
-448
  0
LINE
  5
D5
100
AcDbEntity
  8
dummy-box
  6
ByLayer
 62
  256
370
   -1
100
AcDbLine
 10
34
 20
-448
 11
34
 21
-451.4
  0
LINE
  5
D6
100
AcDbEntity
  8
dummy-box
  6
ByLayer
 62
  256
370
   -1
100
AcDbLine
 10
34
 20
-451.4
 11
28
 21
-451.4
  0
LINE
  5
D7
100
AcDbEntity
  8
dummy-box
  6
ByLayer
 62
  256
370
   -1
100
AcDbLine
 10
28
 20
-451.4
 11
28
 21
-448
  0
LINE
  5
D8
100
AcDbEntity
  8
dummy-box
  6
ByLayer
 62
  256
370
   -1
100
AcDbLine
 10
28
 20
-448
 11
22
 21
-448
  0
LINE
  5
D9
100
AcDbEntity
  8
dummy-box
  6
ByLayer
 62
  256
370
   -1
100
AcDbLine
 10
22
 20
-448
 11
22
 21
-451.4
  0
LINE
  5
DA
100
AcDbEntity
  8
dummy-box
  6
ByLayer
 62
  256
370
   -1
100
AcDbLine
 10
22
 20
-451.4
 11
16
 21
-451.4
  0
LINE
  5
DB
100
AcDbEntity
  8
dummy-box
  6
ByLayer
 62
  256
370
   -1
100
AcDbLine
 10
16
 20
-451.4
 11
16
 21
-448
  0
LINE
  5
DC
100
AcDbEntity
  8
dummy-box
  6
ByLayer
 62
  256
370
   -1
100
AcDbLine
 10
16
 20
-448
 11
10
 21
-448
  0
LINE
  5
DD
100
AcDbEntity
  8
dummy-box
  6
ByLayer
 62
  256
370
   -1
100
AcDbLine
 10
10
 20
-448
 11
10
 21
-451.4
  0
LINE
  5
DE
100
AcDbEntity
  8
dummy-box
  6
ByLayer
 62
  256
370
   -1
100
AcDbLine
 10
10
 20
-451.4
 11
4
 21
-451.4
  0
LINE
  5
DF
100
AcDbEntity
  8
dummy-box
  6
ByLayer
 62
  256
370
   -1
100
AcDbLine
 10
4
 20
-451.4
 11
4
 21
-448
  0
LINE
  5
E0
100
AcDbEntity
  8
dummy-box
  6
ByLayer
 62
  256
370
   -1
100
AcDbLine
 10
4
 20
-448
 11
-3
 21
-448
  0
LINE
  5
E1
100
AcDbEntity
  8
dummy-box
  6
ByLayer
 62
  256
370
   -1
100
AcDbLine
 10
46
 20
-448
 11
53
 21
-448
  0
LINE
  5
E2
100
AcDbEntity
  8
Construction
  6
ByLayer
 62
  256
370
   -1
100
AcDbLine
 10
50
 20
-90.40000000000001
 11
-6.245492404494124e-16
 21
-90.40000000000001
  0
LINE
  5
E3
100
AcDbEntity
  8
mav-cubby-back
  6
ByLayer
 62
  256
370
   -1
100
AcDbLine
 10
46.6
 20
-156.6
 11
46.6
 21
-150.5
  0
LINE
  5
E4
100
AcDbEntity
  8
mav-cubby-back
  6
ByLayer
 62
  256
370
   -1
100
AcDbLine
 10
46.6
 20
-150.5
 11
50
 21
-150.5
  0
LINE
  5
E5
100
AcDbEntity
  8
mav-cubby-back
  6
ByLayer
 62
  256
370
   -1
100
AcDbLine
 10
50
 20
-150.5
 11
50
 21
-144.5
  0
LINE
  5
E6
100
AcDbEntity
  8
mav-cubby-back
  6
ByLayer
 62
  256
370
   -1
100
AcDbLine
 10
50
 20
-144.5
 11
46.6
 21
-144.5
  0
LINE
  5
E7
100
AcDbEntity
  8
mav-cubby-back
  6
ByLayer
 62
  256
370
   -1
100
AcDbLine
 10
46.6
 20
-144.5
 11
46.6
 21
-138.5
  0
LINE
  5
E8
100
AcDbEntity
  8
mav-cubby-back
  6
ByLayer
 62
  256
370
   -1
100
AcDbLine
 10
46.6
 20
-138.5
 11
50
 21
-138.5
  0
LINE
  5
E9
100
AcDbEntity
  8
mav-cubby-back
  6
ByLayer
 62
  256
370
   -1
100
AcDbLine
 10
50
 20
-138.5
 11
50
 21
-132.5
  0
LINE
  5
EA
100
AcDbEntity
  8
mav-cubby-back
  6
ByLayer
 62
  256
370
   -1
100
AcDbLine
 10
50
 20
-132.5
 11
46.6
 21
-132.5
  0
LINE
  5
EB
100
AcDbEntity
  8
mav-cubby-back
  6
ByLayer
 62
  256
370
   -1
100
AcDbLine
 10
46.6
 20
-132.5
 11
46.6
 21
-126.5
  0
LINE
  5
EC
100
AcDbEntity
  8
mav-cubby-back
  6
ByLayer
 62
  256
370
   -1
100
AcDbLine
 10
46.6
 20
-126.5
 11
50
 21
-126.5
  0
LINE
  5
ED
100
AcDbEntity
  8
mav-cubby-back
  6
ByLayer
 62
  256
370
   -1
100
AcDbLine
 10
50
 20
-126.5
 11
50
 21
-120.5
  0
LINE
  5
EE
100
AcDbEntity
  8
mav-cubby-back
  6
ByLayer
 62
  256
370
   -1
100
AcDbLine
 10
50
 20
-120.5
 11
46.6
 21
-120.5
  0
LINE
  5
EF
100
AcDbEntity
  8
mav-cubby-back
  6
ByLayer
 62
  256
370
   -1
100
AcDbLine
 10
46.6
 20
-120.5
 11
46.6
 21
-114.5
  0
LINE
  5
F0
100
AcDbEntity
  8
mav-cubby-back
  6
ByLayer
 62
  256
370
   -1
100
AcDbLine
 10
46.6
 20
-114.5
 11
50
 21
-114.5
  0
LINE
  5
F1
100
AcDbEntity
  8
mav-cubby-back
  6
ByLayer
 62
  256
370
   -1
100
AcDbLine
 10
50
 20
-114.5
 11
50
 21
-108.5
  0
LINE
  5
F2
100
AcDbEntity
  8
mav-cubby-back
  6
ByLayer
 62
  256
370
   -1
100
AcDbLine
 10
50
 20
-108.5
 11
46.6
 21
-108.5
  0
LINE
  5
F3
100
AcDbEntity
  8
mav-cubby-back
  6
ByLayer
 62
  256
370
   -1
100
AcDbLine
 10
46.6
 20
-108.5
 11
46.6
 21
-102.5
  0
LINE
  5
F4
100
AcDbEntity
  8
mav-cubby-back
  6
ByLayer
 62
  256
370
   -1
100
AcDbLine
 10
46.6
 20
-102.5
 11
50
 21
-102.5
  0
LINE
  5
F5
100
AcDbEntity
  8
mav-cubby-back
  6
ByLayer
 62
  256
370
   -1
100
AcDbLine
 10
50
 20
-102.5
 11
50
 21
-96.5
  0
LINE
  5
F6
100
AcDbEntity
  8
mav-cubby-back
  6
ByLayer
 62
  256
370
   -1
100
AcDbLine
 10
50
 20
-96.5
 11
46.6
 21
-96.5
  0
LINE
  5
F7
100
AcDbEntity
  8
mav-cubby-back
  6
ByLayer
 62
  256
370
   -1
100
AcDbLine
 10
46.6
 20
-96.5
 11
46.6
 21
-90.40000000000001
  0
LINE
  5
F8
100
AcDbEntity
  8
mav-cubby-back
  6
ByLayer
 62
  256
370
   -1
100
AcDbLine
 10
46.6
 20
-90.40000000000001
 11
50
 21
-90.40000000000001
  0
LINE
  5
F9
100
AcDbEntity
  8
mav-cubby-back
  6
ByLayer
 62
  256
370
   -1
100
AcDbLine
 10
46.6
 20
-156.6
 11
50
 21
-156.6
  0
LINE
  5
FA
100
AcDbEntity
  8
mav-cubby-back
  6
ByLayer
 62
  256
370
   -1
100
AcDbLine
 10
0
 20
-90.40000000000001
 11
3.4
 21
-90.40000000000001
  0
LINE
  5
FB
100
AcDbEntity
  8
mav-cubby-back
  6
ByLayer
 62
  256
370
   -1
100
AcDbLine
 10
3.4
 20
-90.40000000000001
 11
3.4
 21
-96.5
  0
LINE
  5
FC
100
AcDbEntity
  8
mav-cubby-back
  6
ByLayer
 62
  256
370
   -1
100
AcDbLine
 10
3.4
 20
-96.5
 11
0
 21
-96.5
  0
LINE
  5
FD
100
AcDbEntity
  8
mav-cubby-back
  6
ByLayer
 62
  256
370
   -1
100
AcDbLine
 10
0
 20
-96.49999999999999
 11
0
 21
-102.5
  0
LINE
  5
FE
100
AcDbEntity
  8
mav-cubby-back
  6
ByLayer
 62
  256
370
   -1
100
AcDbLine
 10
0
 20
-102.5
 11
3.4
 21
-102.5
  0
LINE
  5
FF
100
AcDbEntity
  8
mav-cubby-back
  6
ByLayer
 62
  256
370
   -1
100
AcDbLine
 10
3.4
 20
-102.5
 11
3.4
 21
-108.5
  0
LINE
  5
100
100
AcDbEntity
  8
mav-cubby-back
  6
ByLayer
 62
  256
370
   -1
100
AcDbLine
 10
3.4
 20
-108.5
 11
0
 21
-108.5
  0
LINE
  5
101
100
AcDbEntity
  8
mav-cubby-back
  6
ByLayer
 62
  256
370
   -1
100
AcDbLine
 10
0
 20
-108.5
 11
0
 21
-114.5
  0
LINE
  5
102
100
AcDbEntity
  8
mav-cubby-back
  6
ByLayer
 62
  256
370
   -1
100
AcDbLine
 10
0
 20
-114.5
 11
3.4
 21
-114.5
  0
LINE
  5
103
100
AcDbEntity
  8
mav-cubby-back
  6
ByLayer
 62
  256
370
   -1
100
AcDbLine
 10
3.4
 20
-114.5
 11
3.4
 21
-120.5
  0
LINE
  5
104
100
AcDbEntity
  8
mav-cubby-back
  6
ByLayer
 62
  256
370
   -1
100
AcDbLine
 10
3.4
 20
-120.5
 11
0
 21
-120.5
  0
LINE
  5
105
100
AcDbEntity
  8
mav-cubby-back
  6
ByLayer
 62
  256
370
   -1
100
AcDbLine
 10
0
 20
-120.5
 11
0
 21
-126.5
  0
LINE
  5
106
100
AcDbEntity
  8
mav-cubby-back
  6
ByLayer
 62
  256
370
   -1
100
AcDbLine
 10
0
 20
-126.5
 11
3.4
 21
-126.5
  0
LINE
  5
107
100
AcDbEntity
  8
mav-cubby-back
  6
ByLayer
 62
  256
370
   -1
100
AcDbLine
 10
3.4
 20
-126.5
 11
3.4
 21
-132.5
  0
LINE
  5
108
100
AcDbEntity
  8
mav-cubby-back
  6
ByLayer
 62
  256
370
   -1
100
AcDbLine
 10
3.4
 20
-132.5
 11
0
 21
-132.5
  0
LINE
  5
109
100
AcDbEntity
  8
mav-cubby-back
  6
ByLayer
 62
  256
370
   -1
100
AcDbLine
 10
0
 20
-132.5
 11
0
 21
-138.5
  0
LINE
  5
10A
100
AcDbEntity
  8
mav-cubby-back
  6
ByLayer
 62
  256
370
   -1
100
AcDbLine
 10
0
 20
-138.5
 11
3.4
 21
-138.5
  0
LINE
  5
10B
100
AcDbEntity
  8
mav-cubby-back
  6
ByLayer
 62
  256
370
   -1
100
AcDbLine
 10
3.4
 20
-138.5
 11
3.4
 21
-144.5
  0
LINE
  5
10C
100
AcDbEntity
  8
mav-cubby-back
  6
ByLayer
 62
  256
370
   -1
100
AcDbLine
 10
3.4
 20
-144.5
 11
0
 21
-144.5
  0
LINE
  5
10D
100
AcDbEntity
  8
mav-cubby-back
  6
ByLayer
 62
  256
370
   -1
100
AcDbLine
 10
0
 20
-144.5
 11
0
 21
-150.5
  0
LINE
  5
10E
100
AcDbEntity
  8
mav-cubby-back
  6
ByLayer
 62
  256
370
   -1
100
AcDbLine
 10
0
 20
-150.5
 11
3.4
 21
-150.5
  0
LINE
  5
10F
100
AcDbEntity
  8
mav-cubby-back
  6
ByLayer
 62
  256
370
   -1
100
AcDbLine
 10
3.4
 20
-150.5
 11
3.4
 21
-156.6
  0
LINE
  5
110
100
AcDbEntity
  8
mav-cubby-back
  6
ByLayer
 62
  256
370
   -1
100
AcDbLine
 10
3.4
 20
-156.6
 11
0
 21
-156.6
  0
LINE
  5
111
100
AcDbEntity
  8
mav-cubby-back
  6
ByLayer
 62
  256
370
   -1
100
AcDbLine
 10
0
 20
-156.6
 11
0
 21
-160
  0
LINE
  5
112
100
AcDbEntity
  8
mav-cubby-back
  6
ByLayer
 62
  256
370
   -1
100
AcDbLine
 10
10
 20
-160
 11
10
 21
-156.6
  0
LINE
  5
113
100
AcDbEntity
  8
mav-cubby-back
  6
ByLayer
 62
  256
370
   -1
100
AcDbLine
 10
10
 20
-156.6
 11
16
 21
-156.6
  0
LINE
  5
114
100
AcDbEntity
  8
mav-cubby-back
  6
ByLayer
 62
  256
370
   -1
100
AcDbLine
 10
16
 20
-156.6
 11
16
 21
-160
  0
LINE
  5
115
100
AcDbEntity
  8
mav-cubby-back
  6
ByLayer
 62
  256
370
   -1
100
AcDbLine
 10
16
 20
-160
 11
22
 21
-160
  0
LINE
  5
116
100
AcDbEntity
  8
mav-cubby-back
  6
ByLayer
 62
  256
370
   -1
100
AcDbLine
 10
22
 20
-160
 11
22
 21
-156.6
  0
LINE
  5
117
100
AcDbEntity
  8
mav-cubby-back
  6
ByLayer
 62
  256
370
   -1
100
AcDbLine
 10
22
 20
-156.6
 11
28
 21
-156.6
  0
LINE
  5
118
100
AcDbEntity
  8
mav-cubby-back
  6
ByLayer
 62
  256
370
   -1
100
AcDbLine
 10
28
 20
-156.6
 11
28
 21
-160
  0
LINE
  5
119
100
AcDbEntity
  8
mav-cubby-back
  6
ByLayer
 62
  256
370
   -1
100
AcDbLine
 10
28
 20
-160
 11
34
 21
-160
  0
LINE
  5
11A
100
AcDbEntity
  8
mav-cubby-back
  6
ByLayer
 62
  256
370
   -1
100
AcDbLine
 10
34
 20
-160
 11
34
 21
-156.6
  0
LINE
  5
11B
100
AcDbEntity
  8
mav-cubby-back
  6
ByLayer
 62
  256
370
   -1
100
AcDbLine
 10
34
 20
-156.6
 11
40
 21
-156.6
  0
LINE
  5
11C
100
AcDbEntity
  8
mav-cubby-back
  6
ByLayer
 62
  256
370
   -1
100
AcDbLine
 10
40
 20
-156.6
 11
40
 21
-160
  0
LINE
  5
11D
100
AcDbEntity
  8
mav-cubby-back
  6
ByLayer
 62
  256
370
   -1
100
AcDbLine
 10
50
 20
-87
 11
50
 21
-90.40000000000001
  0
LINE
  5
11E
100
AcDbEntity
  8
mav-cubby-back
  6
ByLayer
 62
  256
370
   -1
100
AcDbLine
 10
0
 20
-87
 11
0
 21
-90.40000000000001
  0
LINE
  5
11F
100
AcDbEntity
  8
mav-cubby-back
  6
ByLayer
 62
  256
370
   -1
100
AcDbLine
 10
50
 20
-160
 11
50
 21
-156.6
  0
LINE
  5
120
100
AcDbEntity
  8
mav-cubby-back
  6
ByLayer
 62
  256
370
   -1
100
AcDbLine
 10
0
 20
-160
 11
10
 21
-160
  0
LINE
  5
121
100
AcDbEntity
  8
mav-cubby-back
  6
ByLayer
 62
  256
370
   -1
100
AcDbLine
 10
40
 20
-160
 11
50
 21
-160
  0
LINE
  5
122
100
AcDbEntity
  8
Construction
  6
ByLayer
 62
  256
370
   -1
100
AcDbLine
 10
-81.59999999999999
 20
-160
 11
-81.59999999999999
 21
-78
  0
LINE
  5
123
100
AcDbEntity
  8
mav-cubby-back
  6
ByLayer
 62
  256
370
   -1
100
AcDbLine
 10
0
 20
-87
 11
50
 21
-87
  0
LINE
  5
124
100
AcDbEntity
  8
Construction
  6
ByLayer
 62
  256
370
   -1
100
AcDbLine
 10
-103.4
 20
-160
 11
-103.4
 21
-119
  0
LINE
  5
125
100
AcDbEntity
  8
Construction
  6
ByLayer
 62
  256
370
   -1
100
AcDbLine
 10
-152.6
 20
-119
 11
-152.6
 21
-160
  0
LINE
  5
126
100
AcDbEntity
  8
mav-cubby-half-front
  6
ByLayer
 62
  256
370
   -1
100
AcDbLine
 10
-156
 20
-119
 11
-100
 21
-119
  0
LINE
  5
127
100
AcDbEntity
  8
mav-cubby-half-front
  6
ByLayer
 62
  256
370
   -1
100
AcDbLine
 10
-109.4
 20
-160
 11
-115.4
 21
-160
  0
LINE
  5
128
100
AcDbEntity
  8
mav-cubby-half-front
  6
ByLayer
 62
  256
370
   -1
100
AcDbLine
 10
-115.4
 20
-160
 11
-115.4
 21
-156.6
  0
LINE
  5
129
100
AcDbEntity
  8
mav-cubby-half-front
  6
ByLayer
 62
  256
370
   -1
100
AcDbLine
 10
-115.4
 20
-156.6
 11
-121.4
 21
-156.6
  0
LINE
  5
12A
100
AcDbEntity
  8
mav-cubby-half-front
  6
ByLayer
 62
  256
370
   -1
100
AcDbLine
 10
-121.4
 20
-156.6
 11
-121.4
 21
-160
  0
LINE
  5
12B
100
AcDbEntity
  8
mav-cubby-half-front
  6
ByLayer
 62
  256
370
   -1
100
AcDbLine
 10
-134.6
 20
-156.6
 11
-134.6
 21
-160
  0
LINE
  5
12C
100
AcDbEntity
  8
mav-cubby-half-front
  6
ByLayer
 62
  256
370
   -1
100
AcDbLine
 10
-140.6
 20
-160
 11
-140.6
 21
-156.6
  0
LINE
  5
12D
100
AcDbEntity
  8
mav-cubby-half-front
  6
ByLayer
 62
  256
370
   -1
100
AcDbLine
 10
-146.6
 20
-156.6
 11
-146.6
 21
-160
  0
LINE
  5
12E
100
AcDbEntity
  8
mav-cubby-half-front
  6
ByLayer
 62
  256
370
   -1
100
AcDbLine
 10
-146.6
 20
-156.6
 11
-146.6
 21
-160
  0
LINE
  5
12F
100
AcDbEntity
  8
mav-cubby-half-front
  6
ByLayer
 62
  256
370
   -1
100
AcDbLine
 10
-146.6
 20
-160
 11
-140.6
 21
-160
  0
LINE
  5
130
100
AcDbEntity
  8
mav-cubby-half-front
  6
ByLayer
 62
  256
370
   -1
100
AcDbLine
 10
-140.6
 20
-160
 11
-140.6
 21
-156.6
  0
LINE
  5
131
100
AcDbEntity
  8
mav-cubby-half-front
  6
ByLayer
 62
  256
370
   -1
100
AcDbLine
 10
-140.6
 20
-156.6
 11
-134.6
 21
-156.6
  0
LINE
  5
132
100
AcDbEntity
  8
mav-cubby-half-front
  6
ByLayer
 62
  256
370
   -1
100
AcDbLine
 10
-134.6
 20
-160
 11
-121.4
 21
-160
  0
LINE
  5
133
100
AcDbEntity
  8
mav-cubby-half-bottom
  6
ByLayer
 62
  256
370
   -1
100
AcDbLine
 10
-153.9624406522499
 20
-184.1286994264655
 11
-157.3597239357226
 21
-183.9928086915453
  0
LINE
  5
134
100
AcDbEntity
  8
mav-cubby-half-bottom
  6
ByLayer
 62
  256
370
   -1
100
AcDbLine
 10
-157.3597239357226
 20
-183.9928086915453
 11
-157.5995311149935
 21
-189.9880144859088
  0
LINE
  5
135
100
AcDbEntity
  8
mav-cubby-half-bottom
  6
ByLayer
 62
  256
370
   -1
100
AcDbLine
 10
-157.5995311149935
 20
-189.9880144859088
 11
-154.2022478315208
 21
-190.123905220829
  0
LINE
  5
136
100
AcDbEntity
  8
mav-cubby-half-bottom
  6
ByLayer
 62
  256
370
   -1
100
AcDbLine
 10
-154.2022478315208
 20
-190.123905220829
 11
-154.4420550107917
 21
-196.1191110151926
  0
LINE
  5
137
100
AcDbEntity
  8
mav-cubby-half-bottom
  6
ByLayer
 62
  256
370
   -1
100
AcDbLine
 10
-154.4420550107917
 20
-196.1191110151926
 11
-157.8393382942644
 21
-195.9832202802724
  0
LINE
  5
138
100
AcDbEntity
  8
mav-cubby-half-bottom
  6
ByLayer
 62
  256
370
   -1
100
AcDbLine
 10
-157.8393382942644
 20
-195.9832202802724
 11
-158.0791454735353
 21
-201.9784260746359
  0
LINE
  5
139
100
AcDbEntity
  8
mav-cubby-half-bottom
  6
ByLayer
 62
  256
370
   -1
100
AcDbLine
 10
-158.0791454735353
 20
-201.9784260746359
 11
-154.6818621900626
 21
-202.1143168095561
  0
LINE
  5
13A
100
AcDbEntity
  8
mav-cubby-half-bottom
  6
ByLayer
 62
  256
370
   -1
100
AcDbLine
 10
-154.6818621900626
 20
-202.1143168095561
 11
-154.9216693693335
 21
-208.1095226039196
  0
LINE
  5
13B
100
AcDbEntity
  8
mav-cubby-half-bottom
  6
ByLayer
 62
  256
370
   -1
100
AcDbLine
 10
-154.9216693693335
 20
-208.1095226039196
 11
-158.3189526528062
 21
-207.9736318689995
  0
LINE
  5
13C
100
AcDbEntity
  8
mav-cubby-half-bottom
  6
ByLayer
 62
  256
370
   -1
100
AcDbLine
 10
-158.3189526528062
 20
-207.9736318689995
 11
-158.5587598320771
 21
-213.968837663363
  0
LINE
  5
13D
100
AcDbEntity
  8
mav-cubby-half-bottom
  6
ByLayer
 62
  256
370
   -1
100
AcDbLine
 10
-158.5587598320771
 20
-213.968837663363
 11
-155.1614765486044
 21
-214.1047283982832
  0
LINE
  5
13E
100
AcDbEntity
  8
mav-cubby-half-bottom
  6
ByLayer
 62
  256
370
   -1
100
AcDbLine
 10
-155.1614765486044
 20
-214.1047283982832
 11
-155.4012837278753
 21
-220.0999341926467
  0
LINE
  5
13F
100
AcDbEntity
  8
mav-cubby-half-bottom
  6
ByLayer
 62
  256
370
   -1
100
AcDbLine
 10
-155.4012837278753
 20
-220.0999341926467
 11
-158.798567011348
 21
-219.9640434577265
  0
LINE
  5
140
100
AcDbEntity
  8
mav-cubby-half-bottom
  6
ByLayer
 62
  256
370
   -1
100
AcDbLine
 10
-158.798567011348
 20
-219.9640434577265
 11
-159.0383741906189
 21
-225.9592492520901
  0
LINE
  5
141
100
AcDbEntity
  8
mav-cubby-half-bottom
  6
ByLayer
 62
  256
370
   -1
100
AcDbLine
 10
-159.0383741906189
 20
-225.9592492520901
 11
-155.6410909071462
 21
-226.0951399870102
  0
LINE
  5
142
100
AcDbEntity
  8
mav-cubby-half-bottom
  6
ByLayer
 62
  256
370
   -1
100
AcDbLine
 10
-155.6410909071462
 20
-226.0951399870102
 11
-155.8808980864171
 21
-232.0903457813738
  0
LINE
  5
143
100
AcDbEntity
  8
mav-cubby-half-bottom
  6
ByLayer
 62
  256
370
   -1
100
AcDbLine
 10
-155.8808980864171
 20
-232.0903457813738
 11
-159.2781813698898
 21
-231.9544550464536
  0
LINE
  5
144
100
AcDbEntity
  8
mav-cubby-half-bottom
  6
ByLayer
 62
  256
370
   -1
100
AcDbLine
 10
-159.2781813698898
 20
-231.9544550464536
 11
-159.5179885491607
 21
-237.9496608408172
  0
LINE
  5
145
100
AcDbEntity
  8
mav-cubby-half-bottom
  6
ByLayer
 62
  256
370
   -1
100
AcDbLine
 10
-159.5179885491607
 20
-237.9496608408172
 11
-156.120705265688
 21
-238.0855515757373
  0
LINE
  5
146
100
AcDbEntity
  8
mav-cubby-half-bottom
  6
ByLayer
 62
  256
370
   -1
100
AcDbLine
 10
-156.120705265688
 20
-238.0855515757373
 11
-156.3605124449589
 21
-244.0807573701009
  0
LINE
  5
147
100
AcDbEntity
  8
mav-cubby-half-bottom
  6
ByLayer
 62
  256
370
   -1
100
AcDbLine
 10
-156.3605124449589
 20
-244.0807573701009
 11
-159.7577957284316
 21
-243.9448666351807
  0
LINE
  5
148
100
AcDbEntity
  8
mav-cubby-half-bottom
  6
ByLayer
 62
  256
370
   -1
100
AcDbLine
 10
-153.9624406522499
 20
-184.1286994264655
 11
-153.7386206182638
 21
-178.5331740183929
  0
LINE
  5
149
100
AcDbEntity
  8
mav-cubby-half-bottom
  6
ByLayer
 62
  256
370
   -1
100
AcDbLine
 10
-109.9015725145663
 20
-184.1286994264655
 11
-106.5042892310936
 21
-183.9928086915453
  0
LINE
  5
14A
100
AcDbEntity
  8
mav-cubby-half-bottom
  6
ByLayer
 62
  256
370
   -1
100
AcDbLine
 10
-106.5042892310936
 20
-183.9928086915453
 11
-106.2644820518227
 21
-189.9880144859088
  0
LINE
  5
14B
100
AcDbEntity
  8
mav-cubby-half-bottom
  6
ByLayer
 62
  256
370
   -1
100
AcDbLine
 10
-106.2644820518227
 20
-189.9880144859088
 11
-109.6617653352954
 21
-190.123905220829
  0
LINE
  5
14C
100
AcDbEntity
  8
mav-cubby-half-bottom
  6
ByLayer
 62
  256
370
   -1
100
AcDbLine
 10
-109.6617653352954
 20
-190.123905220829
 11
-109.4219581560245
 21
-196.1191110151926
  0
LINE
  5
14D
100
AcDbEntity
  8
mav-cubby-half-bottom
  6
ByLayer
 62
  256
370
   -1
100
AcDbLine
 10
-109.4219581560245
 20
-196.1191110151926
 11
-106.0246748725518
 21
-195.9832202802724
  0
LINE
  5
14E
100
AcDbEntity
  8
mav-cubby-half-bottom
  6
ByLayer
 62
  256
370
   -1
100
AcDbLine
 10
-106.0246748725518
 20
-195.9832202802724
 11
-105.7848676932809
 21
-201.9784260746359
  0
LINE
  5
14F
100
AcDbEntity
  8
mav-cubby-half-bottom
  6
ByLayer
 62
  256
370
   -1
100
AcDbLine
 10
-105.7848676932809
 20
-201.9784260746359
 11
-109.1821509767536
 21
-202.1143168095561
  0
LINE
  5
150
100
AcDbEntity
  8
mav-cubby-half-bottom
  6
ByLayer
 62
  256
370
   -1
100
AcDbLine
 10
-109.1821509767536
 20
-202.1143168095561
 11
-108.9423437974827
 21
-208.1095226039196
  0
LINE
  5
151
100
AcDbEntity
  8
mav-cubby-half-bottom
  6
ByLayer
 62
  256
370
   -1
100
AcDbLine
 10
-108.9423437974827
 20
-208.1095226039196
 11
-105.54506051401
 21
-207.9736318689995
  0
LINE
  5
152
100
AcDbEntity
  8
mav-cubby-half-bottom
  6
ByLayer
 62
  256
370
   -1
100
AcDbLine
 10
-105.54506051401
 20
-207.9736318689995
 11
-105.3052533347391
 21
-213.968837663363
  0
LINE
  5
153
100
AcDbEntity
  8
mav-cubby-half-bottom
  6
ByLayer
 62
  256
370
   -1
100
AcDbLine
 10
-105.3052533347391
 20
-213.968837663363
 11
-108.7025366182118
 21
-214.1047283982832
  0
LINE
  5
154
100
AcDbEntity
  8
mav-cubby-half-bottom
  6
ByLayer
 62
  256
370
   -1
100
AcDbLine
 10
-108.7025366182118
 20
-214.1047283982832
 11
-108.4627294389409
 21
-220.0999341926467
  0
LINE
  5
155
100
AcDbEntity
  8
mav-cubby-half-bottom
  6
ByLayer
 62
  256
370
   -1
100
AcDbLine
 10
-108.4627294389409
 20
-220.0999341926467
 11
-105.0654461554682
 21
-219.9640434577265
  0
LINE
  5
156
100
AcDbEntity
  8
mav-cubby-half-bottom
  6
ByLayer
 62
  256
370
   -1
100
AcDbLine
 10
-105.0654461554682
 20
-219.9640434577265
 11
-104.8256389761973
 21
-225.9592492520901
  0
LINE
  5
157
100
AcDbEntity
  8
mav-cubby-half-bottom
  6
ByLayer
 62
  256
370
   -1
100
AcDbLine
 10
-104.8256389761973
 20
-225.9592492520901
 11
-108.22292225967
 21
-226.0951399870102
  0
LINE
  5
158
100
AcDbEntity
  8
mav-cubby-half-bottom
  6
ByLayer
 62
  256
370
   -1
100
AcDbLine
 10
-108.22292225967
 20
-226.0951399870102
 11
-107.9831150803991
 21
-232.0903457813738
  0
LINE
  5
159
100
AcDbEntity
  8
mav-cubby-half-bottom
  6
ByLayer
 62
  256
370
   -1
100
AcDbLine
 10
-107.9831150803991
 20
-232.0903457813738
 11
-104.5858317969264
 21
-231.9544550464536
  0
LINE
  5
15A
100
AcDbEntity
  8
mav-cubby-half-bottom
  6
ByLayer
 62
  256
370
   -1
100
AcDbLine
 10
-104.5858317969264
 20
-231.9544550464536
 11
-104.3460246176555
 21
-237.9496608408172
  0
LINE
  5
15B
100
AcDbEntity
  8
mav-cubby-half-bottom
  6
ByLayer
 62
  256
370
   -1
100
AcDbLine
 10
-104.3460246176555
 20
-237.9496608408172
 11
-107.7433079011282
 21
-238.0855515757373
  0
LINE
  5
15C
100
AcDbEntity
  8
mav-cubby-half-bottom
  6
ByLayer
 62
  256
370
   -1
100
AcDbLine
 10
-107.7433079011282
 20
-238.0855515757373
 11
-107.5035007218573
 21
-244.0807573701009
  0
LINE
  5
15D
100
AcDbEntity
  8
mav-cubby-half-bottom
  6
ByLayer
 62
  256
370
   -1
100
AcDbLine
 10
-107.5035007218573
 20
-244.0807573701009
 11
-104.1062174383846
 21
-243.9448666351807
  0
LINE
  5
15E
100
AcDbEntity
  8
mav-cubby-half-bottom
  6
ByLayer
 62
  256
370
   -1
100
AcDbLine
 10
-109.9015725145663
 20
-184.1286994264655
 11
-110.1253925485525
 21
-178.5331740183929
  0
LINE
  5
15F
100
AcDbEntity
  8
mav-cubby-half-bottom
  6
ByLayer
 62
  256
370
   -1
100
AcDbLine
 10
-113.3320065834081
 20
-250
 11
-113.3320065834081
 21
-246.6
  0
LINE
  5
160
100
AcDbEntity
  8
mav-cubby-half-bottom
  6
ByLayer
 62
  256
370
   -1
100
AcDbLine
 10
-113.3320065834081
 20
-246.6
 11
-119.3320065834081
 21
-246.6
  0
LINE
  5
161
100
AcDbEntity
  8
mav-cubby-half-bottom
  6
ByLayer
 62
  256
370
   -1
100
AcDbLine
 10
-119.3320065834081
 20
-246.6
 11
-119.3320065834081
 21
-250
  0
LINE
  5
162
100
AcDbEntity
  8
mav-cubby-half-bottom
  6
ByLayer
 62
  256
370
   -1
100
AcDbLine
 10
-119.3320065834081
 20
-250
 11
-125.3320065834081
 21
-250
  0
LINE
  5
163
100
AcDbEntity
  8
mav-cubby-half-bottom
  6
ByLayer
 62
  256
370
   -1
100
AcDbLine
 10
-125.3320065834081
 20
-250
 11
-125.3320065834081
 21
-246.6
  0
LINE
  5
164
100
AcDbEntity
  8
mav-cubby-half-bottom
  6
ByLayer
 62
  256
370
   -1
100
AcDbLine
 10
-138.5320065834081
 20
-250
 11
-138.5320065834081
 21
-246.6
  0
LINE
  5
165
100
AcDbEntity
  8
mav-cubby-half-bottom
  6
ByLayer
 62
  256
370
   -1
100
AcDbLine
 10
-144.5320065834081
 20
-246.6
 11
-144.5320065834081
 21
-250
  0
LINE
  5
166
100
AcDbEntity
  8
mav-cubby-half-bottom
  6
ByLayer
 62
  256
370
   -1
100
AcDbLine
 10
-150.5320065834081
 20
-250
 11
-150.5320065834081
 21
-246.6
  0
LINE
  5
167
100
AcDbEntity
  8
mav-cubby-half-bottom
  6
ByLayer
 62
  256
370
   -1
100
AcDbLine
 10
-150.5320065834081
 20
-250
 11
-150.5320065834081
 21
-246.6
  0
LINE
  5
168
100
AcDbEntity
  8
mav-cubby-half-bottom
  6
ByLayer
 62
  256
370
   -1
100
AcDbLine
 10
-150.5320065834081
 20
-246.6
 11
-144.5320065834081
 21
-246.6
  0
LINE
  5
169
100
AcDbEntity
  8
mav-cubby-half-bottom
  6
ByLayer
 62
  256
370
   -1
100
AcDbLine
 10
-144.5320065834081
 20
-246.6
 11
-144.5320065834081
 21
-250
  0
LINE
  5
16A
100
AcDbEntity
  8
mav-cubby-half-bottom
  6
ByLayer
 62
  256
370
   -1
100
AcDbLine
 10
-144.5320065834081
 20
-250
 11
-138.5320065834081
 21
-250
  0
LINE
  5
16B
100
AcDbEntity
  8
mav-cubby-half-bottom
  6
ByLayer
 62
  256
370
   -1
100
AcDbLine
 10
-138.5320065834081
 20
-246.6
 11
-125.3320065834081
 21
-246.6
  0
LINE
  5
16C
100
AcDbEntity
  8
mav-cubby-half-bottom
  6
ByLayer
 62
  256
370
   -1
100
AcDbLine
 10
-160
 20
-250
 11
-150.5320065834081
 21
-250
  0
LINE
  5
16D
100
AcDbEntity
  8
mav-cubby-half-bottom
  6
ByLayer
 62
  256
370
   -1
100
AcDbLine
 10
-159.7577957284316
 20
-243.9448666351807
 11
-160
 21
-250
  0
LINE
  5
16E
100
AcDbEntity
  8
mav-cubby-half-bottom
  6
ByLayer
 62
  256
370
   -1
100
AcDbLine
 10
-104.1062174383846
 20
-243.9448666351807
 11
-103.8640131668162
 21
-250
  0
LINE
  5
16F
100
AcDbEntity
  8
mav-cubby-half-bottom
  6
ByLayer
 62
  256
370
   -1
100
AcDbLine
 10
-103.8640131668162
 20
-250
 11
-113.3320065834081
 21
-250
  0
LINE
  5
170
100
AcDbEntity
  8
mav-cubby-half-front
  6
ByLayer
 62
  256
370
   -1
100
AcDbLine
 10
-109.4
 20
-156.6
 11
-109.4
 21
-160
  0
LINE
  5
171
100
AcDbEntity
  8
mav-cubby-half-front
  6
ByLayer
 62
  256
370
   -1
100
AcDbLine
 10
-100
 20
-126.6
 11
-103.4
 21
-126.6
  0
LINE
  5
172
100
AcDbEntity
  8
mav-cubby-half-front
  6
ByLayer
 62
  256
370
   -1
100
AcDbLine
 10
-103.4
 20
-126.6
 11
-103.4
 21
-132.6
  0
LINE
  5
173
100
AcDbEntity
  8
mav-cubby-half-front
  6
ByLayer
 62
  256
370
   -1
100
AcDbLine
 10
-103.4
 20
-132.6
 11
-100
 21
-132.6
  0
LINE
  5
174
100
AcDbEntity
  8
mav-cubby-half-front
  6
ByLayer
 62
  256
370
   -1
100
AcDbLine
 10
-100
 20
-132.6
 11
-100
 21
-138.6
  0
LINE
  5
175
100
AcDbEntity
  8
mav-cubby-half-front
  6
ByLayer
 62
  256
370
   -1
100
AcDbLine
 10
-100
 20
-138.6
 11
-103.4
 21
-138.6
  0
LINE
  5
176
100
AcDbEntity
  8
mav-cubby-half-front
  6
ByLayer
 62
  256
370
   -1
100
AcDbLine
 10
-103.4
 20
-138.6
 11
-103.4
 21
-144.6
  0
LINE
  5
177
100
AcDbEntity
  8
mav-cubby-half-front
  6
ByLayer
 62
  256
370
   -1
100
AcDbLine
 10
-103.4
 20
-144.6
 11
-100
 21
-144.6
  0
LINE
  5
178
100
AcDbEntity
  8
mav-cubby-half-front
  6
ByLayer
 62
  256
370
   -1
100
AcDbLine
 10
-100
 20
-144.6
 11
-100
 21
-150.6
  0
LINE
  5
179
100
AcDbEntity
  8
mav-cubby-half-front
  6
ByLayer
 62
  256
370
   -1
100
AcDbLine
 10
-100
 20
-150.6
 11
-103.4
 21
-150.6
  0
LINE
  5
17A
100
AcDbEntity
  8
mav-cubby-half-front
  6
ByLayer
 62
  256
370
   -1
100
AcDbLine
 10
-103.4
 20
-150.6
 11
-103.4
 21
-156.6
  0
LINE
  5
17B
100
AcDbEntity
  8
mav-cubby-half-front
  6
ByLayer
 62
  256
370
   -1
100
AcDbLine
 10
-100
 20
-119
 11
-100
 21
-126.6
  0
LINE
  5
17C
100
AcDbEntity
  8
mav-cubby-half-front
  6
ByLayer
 62
  256
370
   -1
100
AcDbLine
 10
-103.4
 20
-156.6
 11
-109.4
 21
-156.6
  0
LINE
  5
17D
100
AcDbEntity
  8
mav-cubby-half-front
  6
ByLayer
 62
  256
370
   -1
100
AcDbLine
 10
-156
 20
-126.6
 11
-152.6
 21
-126.6
  0
LINE
  5
17E
100
AcDbEntity
  8
mav-cubby-half-front
  6
ByLayer
 62
  256
370
   -1
100
AcDbLine
 10
-152.6
 20
-126.6
 11
-152.6
 21
-132.6
  0
LINE
  5
17F
100
AcDbEntity
  8
mav-cubby-half-front
  6
ByLayer
 62
  256
370
   -1
100
AcDbLine
 10
-152.6
 20
-132.6
 11
-156
 21
-132.6
  0
LINE
  5
180
100
AcDbEntity
  8
mav-cubby-half-front
  6
ByLayer
 62
  256
370
   -1
100
AcDbLine
 10
-156
 20
-132.6
 11
-156
 21
-138.6
  0
LINE
  5
181
100
AcDbEntity
  8
mav-cubby-half-front
  6
ByLayer
 62
  256
370
   -1
100
AcDbLine
 10
-156
 20
-138.6
 11
-152.6
 21
-138.6
  0
LINE
  5
182
100
AcDbEntity
  8
mav-cubby-half-front
  6
ByLayer
 62
  256
370
   -1
100
AcDbLine
 10
-152.6
 20
-138.6
 11
-152.6
 21
-144.6
  0
LINE
  5
183
100
AcDbEntity
  8
mav-cubby-half-front
  6
ByLayer
 62
  256
370
   -1
100
AcDbLine
 10
-152.6
 20
-144.6
 11
-156
 21
-144.6
  0
LINE
  5
184
100
AcDbEntity
  8
mav-cubby-half-front
  6
ByLayer
 62
  256
370
   -1
100
AcDbLine
 10
-156
 20
-144.6
 11
-156
 21
-150.6
  0
LINE
  5
185
100
AcDbEntity
  8
mav-cubby-half-front
  6
ByLayer
 62
  256
370
   -1
100
AcDbLine
 10
-156
 20
-150.6
 11
-152.6
 21
-150.6
  0
LINE
  5
186
100
AcDbEntity
  8
mav-cubby-half-front
  6
ByLayer
 62
  256
370
   -1
100
AcDbLine
 10
-152.6
 20
-150.6
 11
-152.6
 21
-156.6
  0
LINE
  5
187
100
AcDbEntity
  8
mav-cubby-half-front
  6
ByLayer
 62
  256
370
   -1
100
AcDbLine
 10
-156
 20
-119
 11
-156
 21
-126.6
  0
LINE
  5
188
100
AcDbEntity
  8
mav-cubby-half-front
  6
ByLayer
 62
  256
370
   -1
100
AcDbLine
 10
-152.6
 20
-156.6
 11
-146.6
 21
-156.6
  0
LINE
  5
189
100
AcDbEntity
  8
mav-cubby-top
  6
ByLayer
 62
  256
370
   -1
100
AcDbLine
 10
150
 20
-80
 11
200
 21
-80
  0
LINE
  5
18A
100
AcDbEntity
  8
mav-cubby-top
  6
ByLayer
 62
  256
370
   -1
100
AcDbLine
 10
203
 20
-4.4619
 11
147
 21
-4.4619
  0
LINE
  5
18B
100
AcDbEntity
  8
mav-cubby-top
  6
ByLayer
 62
  256
370
   -1
100
AcDbLine
 10
147
 20
-4.4619
 11
150
 21
-80
  0
LINE
  5
18C
100
AcDbEntity
  8
mav-cubby-top
  6
ByLayer
 62
  256
370
   -1
100
AcDbLine
 10
203
 20
-4.4619
 11
200
 21
-80
  0
LINE
  5
18D
100
AcDbEntity
  8
mav-cubby-top
  6
ByLayer
 62
  256
370
   -1
100
AcDbLine
 10
147
 20
-4.4619
 11
203
 21
-4.4619
  0
LINE
  5
18E
100
AcDbEntity
  8
mav-cubby-hinge-side
  6
ByLayer
 62
  256
370
   -1
100
AcDbLine
 10
129.7958643991309
 20
-176.3589830224098
 11
133.1958643991309
 21
-176.3589830224098
  0
LINE
  5
18F
100
AcDbEntity
  8
mav-cubby-hinge-side
  6
ByLayer
 62
  256
370
   -1
100
AcDbLine
 10
133.1958643991309
 20
-176.3589830224098
 11
133.1958643991309
 21
-182.4589830224098
  0
LINE
  5
190
100
AcDbEntity
  8
mav-cubby-hinge-side
  6
ByLayer
 62
  256
370
   -1
100
AcDbLine
 10
133.1958643991309
 20
-182.4589830224098
 11
129.7958643991309
 21
-182.4589830224098
  0
LINE
  5
191
100
AcDbEntity
  8
mav-cubby-hinge-side
  6
ByLayer
 62
  256
370
   -1
100
AcDbLine
 10
129.7958643991309
 20
-182.4589830224098
 11
129.7958643991309
 21
-188.4589830224098
  0
LINE
  5
192
100
AcDbEntity
  8
mav-cubby-hinge-side
  6
ByLayer
 62
  256
370
   -1
100
AcDbLine
 10
129.7958643991309
 20
-188.4589830224098
 11
133.1958643991309
 21
-188.4589830224098
  0
LINE
  5
193
100
AcDbEntity
  8
mav-cubby-hinge-side
  6
ByLayer
 62
  256
370
   -1
100
AcDbLine
 10
133.1958643991309
 20
-188.4589830224098
 11
133.1958643991309
 21
-194.4589830224098
  0
LINE
  5
194
100
AcDbEntity
  8
mav-cubby-hinge-side
  6
ByLayer
 62
  256
370
   -1
100
AcDbLine
 10
133.1958643991309
 20
-194.4589830224098
 11
129.7958643991309
 21
-194.4589830224098
  0
LINE
  5
195
100
AcDbEntity
  8
mav-cubby-hinge-side
  6
ByLayer
 62
  256
370
   -1
100
AcDbLine
 10
129.7958643991309
 20
-194.4589830224098
 11
129.7958643991309
 21
-200.4589830224098
  0
LINE
  5
196
100
AcDbEntity
  8
mav-cubby-hinge-side
  6
ByLayer
 62
  256
370
   -1
100
AcDbLine
 10
129.7958643991309
 20
-200.4589830224098
 11
133.1958643991309
 21
-200.4589830224098
  0
LINE
  5
197
100
AcDbEntity
  8
mav-cubby-hinge-side
  6
ByLayer
 62
  256
370
   -1
100
AcDbLine
 10
133.1958643991309
 20
-200.4589830224098
 11
133.1958643991309
 21
-206.4589830224098
  0
LINE
  5
198
100
AcDbEntity
  8
mav-cubby-hinge-side
  6
ByLayer
 62
  256
370
   -1
100
AcDbLine
 10
133.1958643991309
 20
-206.4589830224098
 11
129.7958643991309
 21
-206.4589830224098
  0
LINE
  5
199
100
AcDbEntity
  8
mav-cubby-hinge-side
  6
ByLayer
 62
  256
370
   -1
100
AcDbLine
 10
129.7958643991309
 20
-206.4589830224098
 11
129.7958643991309
 21
-212.4589830224098
  0
LINE
  5
19A
100
AcDbEntity
  8
mav-cubby-hinge-side
  6
ByLayer
 62
  256
370
   -1
100
AcDbLine
 10
129.7958643991309
 20
-212.4589830224098
 11
133.1958643991309
 21
-212.4589830224098
  0
LINE
  5
19B
100
AcDbEntity
  8
mav-cubby-hinge-side
  6
ByLayer
 62
  256
370
   -1
100
AcDbLine
 10
133.1958643991309
 20
-212.4589830224098
 11
133.1958643991309
 21
-218.4589830224098
  0
LINE
  5
19C
100
AcDbEntity
  8
mav-cubby-hinge-side
  6
ByLayer
 62
  256
370
   -1
100
AcDbLine
 10
133.1958643991309
 20
-218.4589830224098
 11
129.7958643991309
 21
-218.4589830224098
  0
LINE
  5
19D
100
AcDbEntity
  8
mav-cubby-hinge-side
  6
ByLayer
 62
  256
370
   -1
100
AcDbLine
 10
129.7958643991309
 20
-218.4589830224098
 11
129.7958643991309
 21
-224.4589830224098
  0
LINE
  5
19E
100
AcDbEntity
  8
mav-cubby-hinge-side
  6
ByLayer
 62
  256
370
   -1
100
AcDbLine
 10
129.7958643991309
 20
-224.4589830224098
 11
133.1958643991309
 21
-224.4589830224098
  0
LINE
  5
19F
100
AcDbEntity
  8
mav-cubby-hinge-side
  6
ByLayer
 62
  256
370
   -1
100
AcDbLine
 10
133.1958643991309
 20
-224.4589830224098
 11
133.1958643991309
 21
-230.4589830224098
  0
LINE
  5
1A0
100
AcDbEntity
  8
mav-cubby-hinge-side
  6
ByLayer
 62
  256
370
   -1
100
AcDbLine
 10
133.1958643991309
 20
-230.4589830224098
 11
129.7958643991309
 21
-230.4589830224098
  0
LINE
  5
1A1
100
AcDbEntity
  8
mav-cubby-hinge-side
  6
ByLayer
 62
  256
370
   -1
100
AcDbLine
 10
129.7958643991309
 20
-230.4589830224098
 11
129.7958643991309
 21
-236.4589830224098
  0
LINE
  5
1A2
100
AcDbEntity
  8
mav-cubby-hinge-side
  6
ByLayer
 62
  256
370
   -1
100
AcDbLine
 10
129.7958643991309
 20
-236.4589830224098
 11
133.1958643991309
 21
-236.4589830224098
  0
LINE
  5
1A3
100
AcDbEntity
  8
mav-cubby-hinge-side
  6
ByLayer
 62
  256
370
   -1
100
AcDbLine
 10
133.1958643991309
 20
-236.4589830224098
 11
133.1958643991309
 21
-242.5589830224098
  0
LINE
  5
1A4
100
AcDbEntity
  8
mav-cubby-hinge-side
  6
ByLayer
 62
  256
370
   -1
100
AcDbLine
 10
133.1958643991309
 20
-242.5589830224098
 11
129.7958643991309
 21
-242.5589830224098
  0
LINE
  5
1A5
100
AcDbEntity
  8
mav-cubby-hinge-side
  6
ByLayer
 62
  256
370
   -1
100
AcDbLine
 10
129.7958643991309
 20
-242.5589830224098
 11
129.7958643991309
 21
-245.9589830224098
  0
LINE
  5
1A6
100
AcDbEntity
  8
mav-cubby-hinge-side
  6
ByLayer
 62
  256
370
   -1
100
AcDbLine
 10
129.795864399131
 20
-172.5509830224098
 11
129.7958643991309
 21
-176.3589830224098
  0
LINE
  5
1A7
100
AcDbEntity
  8
mav-cubby-hinge-side
  6
ByLayer
 62
  256
370
   -1
100
AcDbLine
 10
124.1958643991309
 20
-245.9589830224099
 11
124.1958643991309
 21
-242.5589830224098
  0
LINE
  5
1A8
100
AcDbEntity
  8
mav-cubby-hinge-side
  6
ByLayer
 62
  256
370
   -1
100
AcDbLine
 10
124.1958643991309
 20
-242.5589830224098
 11
118.1958643991309
 21
-242.5589830224098
  0
LINE
  5
1A9
100
AcDbEntity
  8
mav-cubby-hinge-side
  6
ByLayer
 62
  256
370
   -1
100
AcDbLine
 10
118.1958643991309
 20
-242.5589830224098
 11
118.1958643991309
 21
-245.9589830224099
  0
LINE
  5
1AA
100
AcDbEntity
  8
mav-cubby-hinge-side
  6
ByLayer
 62
  256
370
   -1
100
AcDbLine
 10
118.1958643991309
 20
-245.9589830224099
 11
112.1958643991309
 21
-245.9589830224098
  0
LINE
  5
1AB
100
AcDbEntity
  8
mav-cubby-hinge-side
  6
ByLayer
 62
  256
370
   -1
100
AcDbLine
 10
112.1958643991309
 20
-245.9589830224098
 11
112.1958643991309
 21
-242.5589830224098
  0
LINE
  5
1AC
100
AcDbEntity
  8
mav-cubby-hinge-side
  6
ByLayer
 62
  256
370
   -1
100
AcDbLine
 10
112.1958643991309
 20
-242.5589830224098
 11
106.1958643991309
 21
-242.5589830224098
  0
LINE
  5
1AD
100
AcDbEntity
  8
mav-cubby-hinge-side
  6
ByLayer
 62
  256
370
   -1
100
AcDbLine
 10
106.1958643991309
 20
-242.5589830224098
 11
106.1958643991309
 21
-245.9589830224098
  0
LINE
  5
1AE
100
AcDbEntity
  8
mav-cubby-hinge-side
  6
ByLayer
 62
  256
370
   -1
100
AcDbLine
 10
106.1958643991309
 20
-245.9589830224098
 11
100.1958643991309
 21
-245.9589830224098
  0
LINE
  5
1AF
100
AcDbEntity
  8
mav-cubby-hinge-side
  6
ByLayer
 62
  256
370
   -1
100
AcDbLine
 10
100.1958643991309
 20
-245.9589830224098
 11
100.1958643991309
 21
-242.5589830224098
  0
LINE
  5
1B0
100
AcDbEntity
  8
mav-cubby-hinge-side
  6
ByLayer
 62
  256
370
   -1
100
AcDbLine
 10
100.1958643991309
 20
-242.5589830224098
 11
94.19586439913093
 21
-242.5589830224098
  0
LINE
  5
1B1
100
AcDbEntity
  8
mav-cubby-hinge-side
  6
ByLayer
 62
  256
370
   -1
100
AcDbLine
 10
94.19586439913093
 20
-242.5589830224098
 11
94.19586439913093
 21
-245.9589830224098
  0
LINE
  5
1B2
100
AcDbEntity
  8
mav-cubby-hinge-side
  6
ByLayer
 62
  256
370
   -1
100
AcDbLine
 10
94.19586439913093
 20
-245.9589830224098
 11
88.19586439913093
 21
-245.9589830224098
  0
LINE
  5
1B3
100
AcDbEntity
  8
mav-cubby-hinge-side
  6
ByLayer
 62
  256
370
   -1
100
AcDbLine
 10
88.19586439913093
 20
-245.9589830224098
 11
88.19586439913093
 21
-242.5589830224098
  0
LINE
  5
1B4
100
AcDbEntity
  8
mav-cubby-hinge-side
  6
ByLayer
 62
  256
370
   -1
100
AcDbLine
 10
88.19586439913093
 20
-242.5589830224098
 11
82.19586439913093
 21
-242.5589830224098
  0
LINE
  5
1B5
100
AcDbEntity
  8
mav-cubby-hinge-side
  6
ByLayer
 62
  256
370
   -1
100
AcDbLine
 10
82.19586439913093
 20
-242.5589830224098
 11
82.19586439913093
 21
-245.9589830224098
  0
LINE
  5
1B6
100
AcDbEntity
  8
mav-cubby-hinge-side
  6
ByLayer
 62
  256
370
   -1
100
AcDbLine
 10
82.19586439913093
 20
-245.9589830224098
 11
76.19586439913093
 21
-245.9589830224098
  0
LINE
  5
1B7
100
AcDbEntity
  8
mav-cubby-hinge-side
  6
ByLayer
 62
  256
370
   -1
100
AcDbLine
 10
76.19586439913093
 20
-245.9589830224098
 11
76.19586439913093
 21
-242.5589830224098
  0
LINE
  5
1B8
100
AcDbEntity
  8
mav-cubby-hinge-side
  6
ByLayer
 62
  256
370
   -1
100
AcDbLine
 10
76.19586439913093
 20
-242.5589830224098
 11
70.19586439913093
 21
-242.5589830224098
  0
LINE
  5
1B9
100
AcDbEntity
  8
mav-cubby-hinge-side
  6
ByLayer
 62
  256
370
   -1
100
AcDbLine
 10
70.19586439913093
 20
-242.5589830224098
 11
70.19586439913093
 21
-245.9589830224098
  0
LINE
  5
1BA
100
AcDbEntity
  8
mav-cubby-hinge-side
  6
ByLayer
 62
  256
370
   -1
100
AcDbLine
 10
70.19586439913093
 20
-245.9589830224098
 11
64.19586439913093
 21
-245.9589830224098
  0
LINE
  5
1BB
100
AcDbEntity
  8
mav-cubby-hinge-side
  6
ByLayer
 62
  256
370
   -1
100
AcDbLine
 10
64.19586439913093
 20
-245.9589830224098
 11
64.19586439913093
 21
-242.5589830224098
  0
LINE
  5
1BC
100
AcDbEntity
  8
mav-cubby-hinge-side
  6
ByLayer
 62
  256
370
   -1
100
AcDbLine
 10
124.1958643991309
 20
-245.9589830224099
 11
129.7958643991309
 21
-245.9589830224098
  0
LINE
  5
1BD
100
AcDbEntity
  8
mav-cubby-half-side
  6
ByLayer
 62
  256
370
   -1
100
AcDbLine
 10
-13.4
 20
-90.40000000000001
 11
-10
 21
-90.40000000000001
  0
LINE
  5
1BE
100
AcDbEntity
  8
mav-cubby-half-side
  6
ByLayer
 62
  256
370
   -1
100
AcDbLine
 10
-10
 20
-90.40000000000001
 11
-10
 21
-96.5
  0
LINE
  5
1BF
100
AcDbEntity
  8
mav-cubby-half-side
  6
ByLayer
 62
  256
370
   -1
100
AcDbLine
 10
-10
 20
-96.5
 11
-13.4
 21
-96.5
  0
LINE
  5
1C0
100
AcDbEntity
  8
mav-cubby-half-side
  6
ByLayer
 62
  256
370
   -1
100
AcDbLine
 10
-13.4
 20
-96.49999999999999
 11
-13.4
 21
-102.5
  0
LINE
  5
1C1
100
AcDbEntity
  8
mav-cubby-half-side
  6
ByLayer
 62
  256
370
   -1
100
AcDbLine
 10
-13.4
 20
-102.5
 11
-10
 21
-102.5
  0
LINE
  5
1C2
100
AcDbEntity
  8
mav-cubby-half-side
  6
ByLayer
 62
  256
370
   -1
100
AcDbLine
 10
-10
 20
-102.5
 11
-10
 21
-108.5
  0
LINE
  5
1C3
100
AcDbEntity
  8
mav-cubby-half-side
  6
ByLayer
 62
  256
370
   -1
100
AcDbLine
 10
-10
 20
-108.5
 11
-13.4
 21
-108.5
  0
LINE
  5
1C4
100
AcDbEntity
  8
mav-cubby-half-side
  6
ByLayer
 62
  256
370
   -1
100
AcDbLine
 10
-13.4
 20
-108.5
 11
-13.4
 21
-114.5
  0
LINE
  5
1C5
100
AcDbEntity
  8
mav-cubby-half-side
  6
ByLayer
 62
  256
370
   -1
100
AcDbLine
 10
-13.4
 20
-114.5
 11
-10
 21
-114.5
  0
LINE
  5
1C6
100
AcDbEntity
  8
mav-cubby-half-side
  6
ByLayer
 62
  256
370
   -1
100
AcDbLine
 10
-10
 20
-114.5
 11
-10
 21
-120.5
  0
LINE
  5
1C7
100
AcDbEntity
  8
mav-cubby-half-side
  6
ByLayer
 62
  256
370
   -1
100
AcDbLine
 10
-10
 20
-120.5
 11
-13.4
 21
-120.5
  0
LINE
  5
1C8
100
AcDbEntity
  8
mav-cubby-half-side
  6
ByLayer
 62
  256
370
   -1
100
AcDbLine
 10
-13.4
 20
-120.5
 11
-13.4
 21
-126.5
  0
LINE
  5
1C9
100
AcDbEntity
  8
mav-cubby-half-side
  6
ByLayer
 62
  256
370
   -1
100
AcDbLine
 10
-13.4
 20
-126.5
 11
-10
 21
-126.5
  0
LINE
  5
1CA
100
AcDbEntity
  8
mav-cubby-half-side
  6
ByLayer
 62
  256
370
   -1
100
AcDbLine
 10
-10
 20
-126.5
 11
-10
 21
-132.5
  0
LINE
  5
1CB
100
AcDbEntity
  8
mav-cubby-half-side
  6
ByLayer
 62
  256
370
   -1
100
AcDbLine
 10
-10
 20
-132.5
 11
-13.4
 21
-132.5
  0
LINE
  5
1CC
100
AcDbEntity
  8
mav-cubby-half-side
  6
ByLayer
 62
  256
370
   -1
100
AcDbLine
 10
-13.4
 20
-132.5
 11
-13.4
 21
-138.5
  0
LINE
  5
1CD
100
AcDbEntity
  8
mav-cubby-half-side
  6
ByLayer
 62
  256
370
   -1
100
AcDbLine
 10
-13.4
 20
-138.5
 11
-10
 21
-138.5
  0
LINE
  5
1CE
100
AcDbEntity
  8
mav-cubby-half-side
  6
ByLayer
 62
  256
370
   -1
100
AcDbLine
 10
-10
 20
-138.5
 11
-10
 21
-144.5
  0
LINE
  5
1CF
100
AcDbEntity
  8
mav-cubby-half-side
  6
ByLayer
 62
  256
370
   -1
100
AcDbLine
 10
-10
 20
-144.5
 11
-13.4
 21
-144.5
  0
LINE
  5
1D0
100
AcDbEntity
  8
mav-cubby-half-side
  6
ByLayer
 62
  256
370
   -1
100
AcDbLine
 10
-13.4
 20
-144.5
 11
-13.4
 21
-150.5
  0
LINE
  5
1D1
100
AcDbEntity
  8
mav-cubby-half-side
  6
ByLayer
 62
  256
370
   -1
100
AcDbLine
 10
-13.4
 20
-150.5
 11
-10
 21
-150.5
  0
LINE
  5
1D2
100
AcDbEntity
  8
mav-cubby-half-side
  6
ByLayer
 62
  256
370
   -1
100
AcDbLine
 10
-10
 20
-150.5
 11
-10
 21
-156.6
  0
LINE
  5
1D3
100
AcDbEntity
  8
mav-cubby-half-side
  6
ByLayer
 62
  256
370
   -1
100
AcDbLine
 10
-10
 20
-156.6
 11
-13.4
 21
-156.6
  0
LINE
  5
1D4
100
AcDbEntity
  8
mav-cubby-half-side
  6
ByLayer
 62
  256
370
   -1
100
AcDbLine
 10
-13.4
 20
-156.6
 11
-13.4
 21
-160
  0
LINE
  5
1D5
100
AcDbEntity
  8
mav-cubby-half-side
  6
ByLayer
 62
  256
370
   -1
100
AcDbLine
 10
-13.39999999999996
 20
-86.592
 11
-13.4
 21
-90.40000000000001
  0
LINE
  5
1D6
100
AcDbEntity
  8
mav-cubby-half-side
  6
ByLayer
 62
  256
370
   -1
100
AcDbLine
 10
-13.39999999999996
 20
-86.592
 11
-85
 21
-78
  0
LINE
  5
1D7
100
AcDbEntity
  8
mav-cubby-half-side
  6
ByLayer
 62
  256
370
   -1
100
AcDbLine
 10
-19
 20
-160
 11
-19
 21
-156.6
  0
LINE
  5
1D8
100
AcDbEntity
  8
mav-cubby-half-side
  6
ByLayer
 62
  256
370
   -1
100
AcDbLine
 10
-19
 20
-156.6
 11
-25
 21
-156.6
  0
LINE
  5
1D9
100
AcDbEntity
  8
mav-cubby-half-side
  6
ByLayer
 62
  256
370
   -1
100
AcDbLine
 10
-25
 20
-156.6
 11
-25
 21
-160
  0
LINE
  5
1DA
100
AcDbEntity
  8
mav-cubby-half-side
  6
ByLayer
 62
  256
370
   -1
100
AcDbLine
 10
-25
 20
-160
 11
-31
 21
-160
  0
LINE
  5
1DB
100
AcDbEntity
  8
mav-cubby-half-side
  6
ByLayer
 62
  256
370
   -1
100
AcDbLine
 10
-31
 20
-160
 11
-31
 21
-156.6
  0
LINE
  5
1DC
100
AcDbEntity
  8
mav-cubby-half-side
  6
ByLayer
 62
  256
370
   -1
100
AcDbLine
 10
-31
 20
-156.6
 11
-37
 21
-156.6
  0
LINE
  5
1DD
100
AcDbEntity
  8
mav-cubby-half-side
  6
ByLayer
 62
  256
370
   -1
100
AcDbLine
 10
-37
 20
-156.6
 11
-37
 21
-160
  0
LINE
  5
1DE
100
AcDbEntity
  8
mav-cubby-half-side
  6
ByLayer
 62
  256
370
   -1
100
AcDbLine
 10
-37
 20
-160
 11
-43
 21
-160
  0
LINE
  5
1DF
100
AcDbEntity
  8
mav-cubby-half-side
  6
ByLayer
 62
  256
370
   -1
100
AcDbLine
 10
-43
 20
-160
 11
-43
 21
-156.6
  0
LINE
  5
1E0
100
AcDbEntity
  8
mav-cubby-half-side
  6
ByLayer
 62
  256
370
   -1
100
AcDbLine
 10
-43
 20
-156.6
 11
-49
 21
-156.6
  0
LINE
  5
1E1
100
AcDbEntity
  8
mav-cubby-half-side
  6
ByLayer
 62
  256
370
   -1
100
AcDbLine
 10
-49
 20
-156.6
 11
-49
 21
-160
  0
LINE
  5
1E2
100
AcDbEntity
  8
mav-cubby-half-side
  6
ByLayer
 62
  256
370
   -1
100
AcDbLine
 10
-49
 20
-160
 11
-55
 21
-160
  0
LINE
  5
1E3
100
AcDbEntity
  8
mav-cubby-half-side
  6
ByLayer
 62
  256
370
   -1
100
AcDbLine
 10
-55
 20
-160
 11
-55
 21
-156.6
  0
LINE
  5
1E4
100
AcDbEntity
  8
mav-cubby-half-side
  6
ByLayer
 62
  256
370
   -1
100
AcDbLine
 10
-55
 20
-156.6
 11
-61
 21
-156.6
  0
LINE
  5
1E5
100
AcDbEntity
  8
mav-cubby-half-side
  6
ByLayer
 62
  256
370
   -1
100
AcDbLine
 10
-61
 20
-156.6
 11
-61
 21
-160
  0
LINE
  5
1E6
100
AcDbEntity
  8
mav-cubby-half-side
  6
ByLayer
 62
  256
370
   -1
100
AcDbLine
 10
-61
 20
-160
 11
-67
 21
-160
  0
LINE
  5
1E7
100
AcDbEntity
  8
mav-cubby-half-side
  6
ByLayer
 62
  256
370
   -1
100
AcDbLine
 10
-67
 20
-160
 11
-67
 21
-156.6
  0
LINE
  5
1E8
100
AcDbEntity
  8
mav-cubby-half-side
  6
ByLayer
 62
  256
370
   -1
100
AcDbLine
 10
-67
 20
-156.6
 11
-73
 21
-156.6
  0
LINE
  5
1E9
100
AcDbEntity
  8
mav-cubby-half-side
  6
ByLayer
 62
  256
370
   -1
100
AcDbLine
 10
-73
 20
-156.6
 11
-73
 21
-160
  0
LINE
  5
1EA
100
AcDbEntity
  8
mav-cubby-half-side
  6
ByLayer
 62
  256
370
   -1
100
AcDbLine
 10
-73
 20
-160
 11
-79
 21
-160
  0
LINE
  5
1EB
100
AcDbEntity
  8
mav-cubby-half-side
  6
ByLayer
 62
  256
370
   -1
100
AcDbLine
 10
-79
 20
-160
 11
-79
 21
-156.6
  0
LINE
  5
1EC
100
AcDbEntity
  8
mav-cubby-half-side
  6
ByLayer
 62
  256
370
   -1
100
AcDbLine
 10
-79
 20
-156.6
 11
-85
 21
-156.6
  0
LINE
  5
1ED
100
AcDbEntity
  8
mav-cubby-half-side
  6
ByLayer
 62
  256
370
   -1
100
AcDbLine
 10
-19
 20
-160
 11
-13.4
 21
-160
  0
LINE
  5
1EE
100
AcDbEntity
  8
mav-cubby-half-side
  6
ByLayer
 62
  256
370
   -1
100
AcDbLine
 10
-81.59999999999998
 20
-126.6
 11
-85
 21
-126.6
  0
LINE
  5
1EF
100
AcDbEntity
  8
mav-cubby-half-side
  6
ByLayer
 62
  256
370
   -1
100
AcDbLine
 10
-85
 20
-126.6
 11
-85
 21
-132.6
  0
LINE
  5
1F0
100
AcDbEntity
  8
mav-cubby-half-side
  6
ByLayer
 62
  256
370
   -1
100
AcDbLine
 10
-85
 20
-132.6
 11
-81.59999999999998
 21
-132.6
  0
LINE
  5
1F1
100
AcDbEntity
  8
mav-cubby-half-side
  6
ByLayer
 62
  256
370
   -1
100
AcDbLine
 10
-81.59999999999998
 20
-132.6
 11
-81.59999999999998
 21
-138.6
  0
LINE
  5
1F2
100
AcDbEntity
  8
mav-cubby-half-side
  6
ByLayer
 62
  256
370
   -1
100
AcDbLine
 10
-81.59999999999998
 20
-138.6
 11
-85
 21
-138.6
  0
LINE
  5
1F3
100
AcDbEntity
  8
mav-cubby-half-side
  6
ByLayer
 62
  256
370
   -1
100
AcDbLine
 10
-85
 20
-138.6
 11
-85
 21
-144.6
  0
LINE
  5
1F4
100
AcDbEntity
  8
mav-cubby-half-side
  6
ByLayer
 62
  256
370
   -1
100
AcDbLine
 10
-85
 20
-144.6
 11
-81.59999999999998
 21
-144.6
  0
LINE
  5
1F5
100
AcDbEntity
  8
mav-cubby-half-side
  6
ByLayer
 62
  256
370
   -1
100
AcDbLine
 10
-81.59999999999998
 20
-144.6
 11
-81.59999999999998
 21
-150.6
  0
LINE
  5
1F6
100
AcDbEntity
  8
mav-cubby-half-side
  6
ByLayer
 62
  256
370
   -1
100
AcDbLine
 10
-81.59999999999998
 20
-150.6
 11
-85
 21
-150.6
  0
LINE
  5
1F7
100
AcDbEntity
  8
mav-cubby-half-side
  6
ByLayer
 62
  256
370
   -1
100
AcDbLine
 10
-85
 20
-150.6
 11
-85
 21
-156.6
  0
LINE
  5
1F8
100
AcDbEntity
  8
mav-cubby-half-side
  6
ByLayer
 62
  256
370
   -1
100
AcDbLine
 10
-81.59999999999998
 20
-119
 11
-81.59999999999998
 21
-126.6
  0
LINE
  5
1F9
100
AcDbEntity
  8
mav-cubby-half-side
  6
ByLayer
 62
  256
370
   -1
100
AcDbLine
 10
-81.59999999999998
 20
-119
 11
-85
 21
-119
  0
LINE
  5
1FA
100
AcDbEntity
  8
mav-cubby-half-side
  6
ByLayer
 62
  256
370
   -1
100
AcDbLine
 10
-85
 20
-119
 11
-85
 21
-78
  0
LINE
  5
1FB
100
AcDbEntity
  8
Construction
  6
ByLayer
 62
  256
370
   -1
100
AcDbLine
 10
61.59586439913092
 20
-242.5589830224098
 11
61.59586439913092
 21
-163.9589830224098
  0
LINE
  5
1FC
100
AcDbEntity
  8
Construction
  6
ByLayer
 62
  256
370
   -1
100
AcDbLine
 10
0.3999999999999999
 20
-260
 11
0.3999999999999999
 21
-342
  0
LINE
  5
1FD
100
AcDbEntity
  8
Construction
  6
ByLayer
 62
  256
370
   -1
100
AcDbLine
 10
49.6
 20
-342
 11
49.6
 21
-260
  0
LINE
  5
1FE
100
AcDbEntity
  8
Construction
  6
ByLayer
 62
  256
370
   -1
100
AcDbLine
 10
53
 20
-263.4
 11
-3
 21
-263.4
  0
LINE
  5
1FF
100
AcDbEntity
  8
Construction
  6
ByLayer
 62
  256
370
   -1
100
AcDbLine
 10
-3
 20
-338.6
 11
53
 21
-338.6
  0
LINE
  5
200
100
AcDbEntity
  8
mav-cubby-hinge-side
  6
ByLayer
 62
  256
370
   -1
100
AcDbLine
 10
129.795864399131
 20
-172.5509830224098
 11
61.59586439913093
 21
-164.3669830224098
  0
LINE
  5
201
100
AcDbEntity
  8
mav-cubby-hinge-side
  6
ByLayer
 62
  256
370
   -1
100
AcDbLine
 10
64.19586439913093
 20
-242.5589830224098
 11
61.59586439913092
 21
-242.5589830224098
  0
CIRCLE
  5
202
100
AcDbEntity
  8
mav-cubby-hinge-side
  6
ByLayer
 62
  256
370
   -1
100
AcDbCircle
 10
92
 20
-152.6
 40
4
  0
LINE
  5
203
100
AcDbEntity
  8
Construction
  6
ByLayer
 62
  256
370
   -1
100
AcDbLine
 10
67.40000000000001
 20
-145.2
 11
67.40000000000001
 21
-160
  0
LINE
  5
204
100
AcDbEntity
  8
Construction
  6
ByLayer
 62
  256
370
   -1
100
AcDbLine
 10
116.6
 20
-160
 11
116.6
 21
-145.2
  0
LINE
  5
205
100
AcDbEntity
  8
Construction
  6
ByLayer
 62
  256
370
   -1
100
AcDbLine
 10
120
 20
-148.6
 11
64
 21
-148.6
  0
LINE
  5
206
100
AcDbEntity
  8
Construction
  6
ByLayer
 62
  256
370
   -1
100
AcDbLine
 10
120
 20
-156.6
 11
63.99999999999999
 21
-156.6
  0
LINE
  5
207
100
AcDbEntity
  8
mav-cubby-hinge-side
  6
ByLayer
 62
  256
370
   -1
100
AcDbLine
 10
67.40000000000001
 20
-145.2
 11
67.40000000000001
 21
-148.6
  0
LINE
  5
208
100
AcDbEntity
  8
mav-cubby-hinge-side
  6
ByLayer
 62
  256
370
   -1
100
AcDbLine
 10
67.40000000000001
 20
-148.6
 11
64
 21
-148.6
  0
LINE
  5
209
100
AcDbEntity
  8
mav-cubby-hinge-side
  6
ByLayer
 62
  256
370
   -1
100
AcDbLine
 10
64
 20
-148.6
 11
64
 21
-156.6
  0
LINE
  5
20A
100
AcDbEntity
  8
mav-cubby-hinge-side
  6
ByLayer
 62
  256
370
   -1
100
AcDbLine
 10
64
 20
-156.6
 11
67.40000000000001
 21
-156.6
  0
LINE
  5
20B
100
AcDbEntity
  8
mav-cubby-hinge-side
  6
ByLayer
 62
  256
370
   -1
100
AcDbLine
 10
67.40000000000001
 20
-156.6
 11
67.40000000000001
 21
-160
  0
LINE
  5
20C
100
AcDbEntity
  8
mav-cubby-hinge-side
  6
ByLayer
 62
  256
370
   -1
100
AcDbLine
 10
116.6
 20
-145.2
 11
116.6
 21
-148.6
  0
LINE
  5
20D
100
AcDbEntity
  8
mav-cubby-hinge-side
  6
ByLayer
 62
  256
370
   -1
100
AcDbLine
 10
116.6
 20
-148.6
 11
120
 21
-148.6
  0
LINE
  5
20E
100
AcDbEntity
  8
mav-cubby-hinge-side
  6
ByLayer
 62
  256
370
   -1
100
AcDbLine
 10
116.6
 20
-160
 11
116.6
 21
-156.6
  0
LINE
  5
20F
100
AcDbEntity
  8
mav-cubby-hinge-side
  6
ByLayer
 62
  256
370
   -1
100
AcDbLine
 10
116.6
 20
-156.6
 11
120
 21
-156.6
  0
LINE
  5
210
100
AcDbEntity
  8
mav-cubby-hinge-side
  6
ByLayer
 62
  256
370
   -1
100
AcDbLine
 10
116.6
 20
-145.2
 11
67.40000000000001
 21
-145.2
  0
LINE
  5
211
100
AcDbEntity
  8
mav-cubby-hinge-side
  6
ByLayer
 62
  256
370
   -1
100
AcDbLine
 10
116.6
 20
-160
 11
67.40000000000001
 21
-160
  0
LINE
  5
212
100
AcDbEntity
  8
mav-cubby-hinge-side
  6
ByLayer
 62
  256
370
   -1
100
AcDbLine
 10
120
 20
-148.6
 11
120
 21
-156.6
  0
LINE
  5
213
100
AcDbEntity
  8
mav-cubby-hinge-side
  6
ByLayer
 62
  256
370
   -1
100
AcDbLine
 10
61.595864399131
 20
-164.3669830224098
 11
61.595864399131
 21
-167.7669830224098
  0
LINE
  5
214
100
AcDbEntity
  8
mav-cubby-hinge-side
  6
ByLayer
 62
  256
370
   -1
100
AcDbLine
 10
61.595864399131
 20
-167.7669830224098
 11
64.99586439913101
 21
-167.7669830224098
  0
LINE
  5
215
100
AcDbEntity
  8
mav-cubby-hinge-side
  6
ByLayer
 62
  256
370
   -1
100
AcDbLine
 10
64.99586439913101
 20
-167.7669830224098
 11
64.99586439913101
 21
-175.7669830224098
  0
LINE
  5
216
100
AcDbEntity
  8
mav-cubby-hinge-side
  6
ByLayer
 62
  256
370
   -1
100
AcDbLine
 10
61.59586439913093
 20
-175.7669830224098
 11
64.99586439913101
 21
-175.7669830224098
  0
LINE
  5
217
100
AcDbEntity
  8
mav-cubby-hinge-side
  6
ByLayer
 62
  256
370
   -1
100
AcDbLine
 10
61.59586439913092
 20
-242.5589830224098
 11
61.59586439913093
 21
-175.7669830224098
  0
LINE
  5
218
100
AcDbEntity
  8
Construction
  6
ByLayer
 62
  256
370
   -1
100
AcDbLine
 10
198
 20
-241.6
 11
141.8640131668162
 21
-241.6
  0
LINE
  5
219
100
AcDbEntity
  8
mav-cubby-half-bottom
  6
ByLayer
 62
  256
370
   -1
100
AcDbLine
 10
-147.1413395072765
 20
-178.5331740183929
 11
-147.1413395072765
 21
-175.1331740183929
  0
LINE
  5
21A
100
AcDbEntity
  8
mav-cubby-half-bottom
  6
ByLayer
 62
  256
370
   -1
100
AcDbLine
 10
-147.1413395072765
 20
-175.1331740183929
 11
-141.1413395072765
 21
-175.1331740183929
  0
LINE
  5
21B
100
AcDbEntity
  8
mav-cubby-half-bottom
  6
ByLayer
 62
  256
370
   -1
100
AcDbLine
 10
-141.1413395072765
 20
-175.1331740183929
 11
-141.1413395072765
 21
-178.5331740183929
  0
LINE
  5
21C
100
AcDbEntity
  8
mav-cubby-half-bottom
  6
ByLayer
 62
  256
370
   -1
100
AcDbLine
 10
-141.1413395072765
 20
-178.5331740183929
 11
-135.1413395072765
 21
-178.5331740183929
  0
LINE
  5
21D
100
AcDbEntity
  8
mav-cubby-half-bottom
  6
ByLayer
 62
  256
370
   -1
100
AcDbLine
 10
-135.1413395072765
 20
-178.5331740183929
 11
-135.1413395072765
 21
-175.1331740183929
  0
LINE
  5
21E
100
AcDbEntity
  8
mav-cubby-half-bottom
  6
ByLayer
 62
  256
370
   -1
100
AcDbLine
 10
-135.1413395072765
 20
-175.1331740183929
 11
-129.1413395072765
 21
-175.1331740183929
  0
LINE
  5
21F
100
AcDbEntity
  8
mav-cubby-half-bottom
  6
ByLayer
 62
  256
370
   -1
100
AcDbLine
 10
-129.1413395072765
 20
-175.1331740183929
 11
-129.1413395072765
 21
-178.5331740183929
  0
LINE
  5
220
100
AcDbEntity
  8
mav-cubby-half-bottom
  6
ByLayer
 62
  256
370
   -1
100
AcDbLine
 10
-129.1413395072765
 20
-178.5331740183929
 11
-123.1413395072765
 21
-178.5331740183929
  0
LINE
  5
221
100
AcDbEntity
  8
mav-cubby-half-bottom
  6
ByLayer
 62
  256
370
   -1
100
AcDbLine
 10
-123.1413395072765
 20
-178.5331740183929
 11
-123.1413395072765
 21
-175.1331740183929
  0
LINE
  5
222
100
AcDbEntity
  8
mav-cubby-half-bottom
  6
ByLayer
 62
  256
370
   -1
100
AcDbLine
 10
-123.1413395072765
 20
-175.1331740183929
 11
-117.1413395072765
 21
-175.1331740183929
  0
LINE
  5
223
100
AcDbEntity
  8
mav-cubby-half-bottom
  6
ByLayer
 62
  256
370
   -1
100
AcDbLine
 10
-117.1413395072765
 20
-175.1331740183929
 11
-117.1413395072765
 21
-178.5331740183929
  0
LINE
  5
224
100
AcDbEntity
  8
mav-cubby-half-bottom
  6
ByLayer
 62
  256
370
   -1
100
AcDbLine
 10
-117.1413395072765
 20
-178.5331740183929
 11
-110.1362637596327
 21
-178.5331740183929
  0
LINE
  5
225
100
AcDbEntity
  8
mav-cubby-half-bottom
  6
ByLayer
 62
  256
370
   -1
100
AcDbLine
 10
-153.7386206182637
 20
-178.5331740183929
 11
-147.1413395072765
 21
-178.5331740183929
  0
LINE
  5
226
100
AcDbEntity
  8
mav-cubby-hinge-bottom
  6
ByLayer
 62
  256
370
   -1
100
AcDbLine
 10
147.9015725145664
 20
-179.1286994264655
 11
144.5042892310937
 21
-178.9928086915453
  0
LINE
  5
227
100
AcDbEntity
  8
mav-cubby-hinge-bottom
  6
ByLayer
 62
  256
370
   -1
100
AcDbLine
 10
144.5042892310937
 20
-178.9928086915453
 11
144.2644820518227
 21
-184.9880144859088
  0
LINE
  5
228
100
AcDbEntity
  8
mav-cubby-hinge-bottom
  6
ByLayer
 62
  256
370
   -1
100
AcDbLine
 10
144.2644820518227
 20
-184.9880144859088
 11
147.6617653352955
 21
-185.123905220829
  0
LINE
  5
229
100
AcDbEntity
  8
mav-cubby-hinge-bottom
  6
ByLayer
 62
  256
370
   -1
100
AcDbLine
 10
147.6617653352955
 20
-185.123905220829
 11
147.4219581560245
 21
-191.1191110151926
  0
LINE
  5
22A
100
AcDbEntity
  8
mav-cubby-hinge-bottom
  6
ByLayer
 62
  256
370
   -1
100
AcDbLine
 10
147.4219581560245
 20
-191.1191110151926
 11
144.0246748725519
 21
-190.9832202802724
  0
LINE
  5
22B
100
AcDbEntity
  8
mav-cubby-hinge-bottom
  6
ByLayer
 62
  256
370
   -1
100
AcDbLine
 10
144.0246748725519
 20
-190.9832202802724
 11
143.7848676932809
 21
-196.9784260746359
  0
LINE
  5
22C
100
AcDbEntity
  8
mav-cubby-hinge-bottom
  6
ByLayer
 62
  256
370
   -1
100
AcDbLine
 10
143.7848676932809
 20
-196.9784260746359
 11
147.1821509767536
 21
-197.1143168095561
  0
LINE
  5
22D
100
AcDbEntity
  8
mav-cubby-hinge-bottom
  6
ByLayer
 62
  256
370
   -1
100
AcDbLine
 10
147.1821509767536
 20
-197.1143168095561
 11
146.9423437974827
 21
-203.1095226039196
  0
LINE
  5
22E
100
AcDbEntity
  8
mav-cubby-hinge-bottom
  6
ByLayer
 62
  256
370
   -1
100
AcDbLine
 10
146.9423437974827
 20
-203.1095226039196
 11
143.5450605140101
 21
-202.9736318689995
  0
LINE
  5
22F
100
AcDbEntity
  8
mav-cubby-hinge-bottom
  6
ByLayer
 62
  256
370
   -1
100
AcDbLine
 10
143.5450605140101
 20
-202.9736318689995
 11
143.3052533347391
 21
-208.968837663363
  0
LINE
  5
230
100
AcDbEntity
  8
mav-cubby-hinge-bottom
  6
ByLayer
 62
  256
370
   -1
100
AcDbLine
 10
143.3052533347391
 20
-208.968837663363
 11
146.7025366182118
 21
-209.1047283982832
  0
LINE
  5
231
100
AcDbEntity
  8
mav-cubby-hinge-bottom
  6
ByLayer
 62
  256
370
   -1
100
AcDbLine
 10
146.7025366182118
 20
-209.1047283982832
 11
146.4627294389409
 21
-215.0999341926467
  0
LINE
  5
232
100
AcDbEntity
  8
mav-cubby-hinge-bottom
  6
ByLayer
 62
  256
370
   -1
100
AcDbLine
 10
146.4627294389409
 20
-215.0999341926467
 11
143.0654461554683
 21
-214.9640434577265
  0
LINE
  5
233
100
AcDbEntity
  8
mav-cubby-hinge-bottom
  6
ByLayer
 62
  256
370
   -1
100
AcDbLine
 10
143.0654461554683
 20
-214.9640434577265
 11
142.8256389761974
 21
-220.9592492520901
  0
LINE
  5
234
100
AcDbEntity
  8
mav-cubby-hinge-bottom
  6
ByLayer
 62
  256
370
   -1
100
AcDbLine
 10
142.8256389761974
 20
-220.9592492520901
 11
146.22292225967
 21
-221.0951399870102
  0
LINE
  5
235
100
AcDbEntity
  8
mav-cubby-hinge-bottom
  6
ByLayer
 62
  256
370
   -1
100
AcDbLine
 10
146.22292225967
 20
-221.0951399870102
 11
145.9831150803991
 21
-227.0903457813738
  0
LINE
  5
236
100
AcDbEntity
  8
mav-cubby-hinge-bottom
  6
ByLayer
 62
  256
370
   -1
100
AcDbLine
 10
145.9831150803991
 20
-227.0903457813738
 11
142.5858317969264
 21
-226.9544550464536
  0
LINE
  5
237
100
AcDbEntity
  8
mav-cubby-hinge-bottom
  6
ByLayer
 62
  256
370
   -1
100
AcDbLine
 10
142.5858317969264
 20
-226.9544550464536
 11
142.3460246176556
 21
-232.9496608408172
  0
LINE
  5
238
100
AcDbEntity
  8
mav-cubby-hinge-bottom
  6
ByLayer
 62
  256
370
   -1
100
AcDbLine
 10
142.3460246176556
 20
-232.9496608408172
 11
145.7433079011282
 21
-233.0855515757373
  0
LINE
  5
239
100
AcDbEntity
  8
mav-cubby-hinge-bottom
  6
ByLayer
 62
  256
370
   -1
100
AcDbLine
 10
145.7433079011282
 20
-233.0855515757373
 11
145.5035007218573
 21
-239.0807573701009
  0
LINE
  5
23A
100
AcDbEntity
  8
mav-cubby-hinge-bottom
  6
ByLayer
 62
  256
370
   -1
100
AcDbLine
 10
145.5035007218573
 20
-239.0807573701009
 11
142.1062174383846
 21
-238.9448666351807
  0
LINE
  5
23B
100
AcDbEntity
  8
mav-cubby-hinge-bottom
  6
ByLayer
 62
  256
370
   -1
100
AcDbLine
 10
142.1062174383846
 20
-238.9448666351807
 11
141.8640131668162
 21
-245
  0
LINE
  5
23C
100
AcDbEntity
  8
mav-cubby-hinge-bottom
  6
ByLayer
 62
  256
370
   -1
100
AcDbLine
 10
191.9624406522499
 20
-179.1286994264655
 11
195.3597239357226
 21
-178.9928086915453
  0
LINE
  5
23D
100
AcDbEntity
  8
mav-cubby-hinge-bottom
  6
ByLayer
 62
  256
370
   -1
100
AcDbLine
 10
195.3597239357226
 20
-178.9928086915453
 11
195.5995311149935
 21
-184.9880144859088
  0
LINE
  5
23E
100
AcDbEntity
  8
mav-cubby-hinge-bottom
  6
ByLayer
 62
  256
370
   -1
100
AcDbLine
 10
195.5995311149935
 20
-184.9880144859088
 11
192.2022478315208
 21
-185.123905220829
  0
LINE
  5
23F
100
AcDbEntity
  8
mav-cubby-hinge-bottom
  6
ByLayer
 62
  256
370
   -1
100
AcDbLine
 10
192.2022478315208
 20
-185.123905220829
 11
192.4420550107917
 21
-191.1191110151926
  0
LINE
  5
240
100
AcDbEntity
  8
mav-cubby-hinge-bottom
  6
ByLayer
 62
  256
370
   -1
100
AcDbLine
 10
192.4420550107917
 20
-191.1191110151926
 11
195.8393382942644
 21
-190.9832202802724
  0
LINE
  5
241
100
AcDbEntity
  8
mav-cubby-hinge-bottom
  6
ByLayer
 62
  256
370
   -1
100
AcDbLine
 10
195.8393382942644
 20
-190.9832202802724
 11
196.0791454735353
 21
-196.9784260746359
  0
LINE
  5
242
100
AcDbEntity
  8
mav-cubby-hinge-bottom
  6
ByLayer
 62
  256
370
   -1
100
AcDbLine
 10
196.0791454735353
 20
-196.9784260746359
 11
192.6818621900626
 21
-197.1143168095561
  0
LINE
  5
243
100
AcDbEntity
  8
mav-cubby-hinge-bottom
  6
ByLayer
 62
  256
370
   -1
100
AcDbLine
 10
192.6818621900626
 20
-197.1143168095561
 11
192.9216693693335
 21
-203.1095226039196
  0
LINE
  5
244
100
AcDbEntity
  8
mav-cubby-hinge-bottom
  6
ByLayer
 62
  256
370
   -1
100
AcDbLine
 10
192.9216693693335
 20
-203.1095226039196
 11
196.3189526528062
 21
-202.9736318689995
  0
LINE
  5
245
100
AcDbEntity
  8
mav-cubby-hinge-bottom
  6
ByLayer
 62
  256
370
   -1
100
AcDbLine
 10
196.3189526528062
 20
-202.9736318689995
 11
196.5587598320771
 21
-208.968837663363
  0
LINE
  5
246
100
AcDbEntity
  8
mav-cubby-hinge-bottom
  6
ByLayer
 62
  256
370
   -1
100
AcDbLine
 10
196.5587598320771
 20
-208.968837663363
 11
193.1614765486044
 21
-209.1047283982832
  0
LINE
  5
247
100
AcDbEntity
  8
mav-cubby-hinge-bottom
  6
ByLayer
 62
  256
370
   -1
100
AcDbLine
 10
193.1614765486044
 20
-209.1047283982832
 11
193.4012837278753
 21
-215.0999341926467
  0
LINE
  5
248
100
AcDbEntity
  8
mav-cubby-hinge-bottom
  6
ByLayer
 62
  256
370
   -1
100
AcDbLine
 10
193.4012837278753
 20
-215.0999341926467
 11
196.798567011348
 21
-214.9640434577265
  0
LINE
  5
249
100
AcDbEntity
  8
mav-cubby-hinge-bottom
  6
ByLayer
 62
  256
370
   -1
100
AcDbLine
 10
196.798567011348
 20
-214.9640434577265
 11
197.0383741906189
 21
-220.9592492520901
  0
LINE
  5
24A
100
AcDbEntity
  8
mav-cubby-hinge-bottom
  6
ByLayer
 62
  256
370
   -1
100
AcDbLine
 10
197.0383741906189
 20
-220.9592492520901
 11
193.6410909071462
 21
-221.0951399870102
  0
LINE
  5
24B
100
AcDbEntity
  8
mav-cubby-hinge-bottom
  6
ByLayer
 62
  256
370
   -1
100
AcDbLine
 10
193.6410909071462
 20
-221.0951399870102
 11
193.8808980864171
 21
-227.0903457813738
  0
LINE
  5
24C
100
AcDbEntity
  8
mav-cubby-hinge-bottom
  6
ByLayer
 62
  256
370
   -1
100
AcDbLine
 10
193.8808980864171
 20
-227.0903457813738
 11
197.2781813698898
 21
-226.9544550464536
  0
LINE
  5
24D
100
AcDbEntity
  8
mav-cubby-hinge-bottom
  6
ByLayer
 62
  256
370
   -1
100
AcDbLine
 10
197.2781813698898
 20
-226.9544550464536
 11
197.5179885491607
 21
-232.9496608408172
  0
LINE
  5
24E
100
AcDbEntity
  8
mav-cubby-hinge-bottom
  6
ByLayer
 62
  256
370
   -1
100
AcDbLine
 10
197.5179885491607
 20
-232.9496608408172
 11
194.120705265688
 21
-233.0855515757373
  0
LINE
  5
24F
100
AcDbEntity
  8
mav-cubby-hinge-bottom
  6
ByLayer
 62
  256
370
   -1
100
AcDbLine
 10
194.120705265688
 20
-233.0855515757373
 11
194.3605124449589
 21
-239.0807573701009
  0
LINE
  5
250
100
AcDbEntity
  8
mav-cubby-hinge-bottom
  6
ByLayer
 62
  256
370
   -1
100
AcDbLine
 10
194.3605124449589
 20
-239.0807573701009
 11
197.7577957284316
 21
-238.9448666351807
  0
LINE
  5
251
100
AcDbEntity
  8
mav-cubby-hinge-bottom
  6
ByLayer
 62
  256
370
   -1
100
AcDbLine
 10
197.7577957284316
 20
-238.9448666351807
 11
198
 21
-245
  0
LINE
  5
252
100
AcDbEntity
  8
mav-cubby-hinge-bottom
  6
ByLayer
 62
  256
370
   -1
100
AcDbLine
 10
191.9624406522499
 20
-179.1286994264655
 11
191.7331850127236
 21
-173.3972832834727
  0
LINE
  5
253
100
AcDbEntity
  8
mav-cubby-hinge-bottom
  6
ByLayer
 62
  256
370
   -1
100
AcDbLine
 10
147.9015725145664
 20
-179.1286994264655
 11
148.1308281540927
 21
-173.3972832834727
  0
LINE
  5
254
100
AcDbEntity
  8
mav-cubby-hinge-bottom
  6
ByLayer
 62
  256
370
   -1
100
AcDbLine
 10
154.7281092650798
 20
-173.3972832834727
 11
154.7281092650798
 21
-169.9972832834727
  0
LINE
  5
255
100
AcDbEntity
  8
mav-cubby-hinge-bottom
  6
ByLayer
 62
  256
370
   -1
100
AcDbLine
 10
154.7281092650798
 20
-169.9972832834727
 11
160.7281092650798
 21
-169.9972832834727
  0
LINE
  5
256
100
AcDbEntity
  8
mav-cubby-hinge-bottom
  6
ByLayer
 62
  256
370
   -1
100
AcDbLine
 10
160.7281092650798
 20
-169.9972832834727
 11
160.7281092650798
 21
-173.3972832834727
  0
LINE
  5
257
100
AcDbEntity
  8
mav-cubby-hinge-bottom
  6
ByLayer
 62
  256
370
   -1
100
AcDbLine
 10
160.7281092650798
 20
-173.3972832834727
 11
166.7281092650798
 21
-173.3972832834727
  0
LINE
  5
258
100
AcDbEntity
  8
mav-cubby-hinge-bottom
  6
ByLayer
 62
  256
370
   -1
100
AcDbLine
 10
166.7281092650798
 20
-173.3972832834727
 11
166.7281092650798
 21
-169.9972832834727
  0
LINE
  5
259
100
AcDbEntity
  8
mav-cubby-hinge-bottom
  6
ByLayer
 62
  256
370
   -1
100
AcDbLine
 10
166.7281092650798
 20
-169.9972832834727
 11
172.7281092650798
 21
-169.9972832834727
  0
LINE
  5
25A
100
AcDbEntity
  8
mav-cubby-hinge-bottom
  6
ByLayer
 62
  256
370
   -1
100
AcDbLine
 10
172.7281092650798
 20
-169.9972832834727
 11
172.7281092650798
 21
-173.3972832834727
  0
LINE
  5
25B
100
AcDbEntity
  8
mav-cubby-hinge-bottom
  6
ByLayer
 62
  256
370
   -1
100
AcDbLine
 10
172.7281092650798
 20
-173.3972832834727
 11
178.7281092650798
 21
-173.3972832834727
  0
LINE
  5
25C
100
AcDbEntity
  8
mav-cubby-hinge-bottom
  6
ByLayer
 62
  256
370
   -1
100
AcDbLine
 10
178.7281092650798
 20
-173.3972832834727
 11
178.7281092650798
 21
-169.9972832834727
  0
LINE
  5
25D
100
AcDbEntity
  8
mav-cubby-hinge-bottom
  6
ByLayer
 62
  256
370
   -1
100
AcDbLine
 10
178.7281092650798
 20
-169.9972832834727
 11
184.7281092650798
 21
-169.9972832834727
  0
LINE
  5
25E
100
AcDbEntity
  8
mav-cubby-hinge-bottom
  6
ByLayer
 62
  256
370
   -1
100
AcDbLine
 10
184.7281092650798
 20
-169.9972832834727
 11
184.7281092650798
 21
-173.3972832834727
  0
LINE
  5
25F
100
AcDbEntity
  8
mav-cubby-hinge-bottom
  6
ByLayer
 62
  256
370
   -1
100
AcDbLine
 10
184.7281092650798
 20
-173.3972832834727
 11
191.7331850127236
 21
-173.3972832834727
  0
LINE
  5
260
100
AcDbEntity
  8
mav-cubby-hinge-bottom
  6
ByLayer
 62
  256
370
   -1
100
AcDbLine
 10
148.1308281540927
 20
-173.3972832834727
 11
154.7281092650798
 21
-173.3972832834727
  0
ARC
  5
261
100
AcDbEntity
  8
mav-cubby-hinge-front
  6
ByLayer
 62
  256
370
   -1
100
AcDbCircle
 10
-2
 20
-261
 40
1
100
AcDbArc
 50
90
 51
180
  0
LINE
  5
262
100
AcDbEntity
  8
mav-cubby-hinge-front
  6
ByLayer
 62
  256
370
   -1
100
AcDbLine
 10
52
 20
-260
 11
-2
 21
-260
  0
ARC
  5
263
100
AcDbEntity
  8
mav-cubby-hinge-front
  6
ByLayer
 62
  256
370
   -1
100
AcDbCircle
 10
52
 20
-261
 40
1
100
AcDbArc
 50
0
 51
90
  0
LINE
  5
264
100
AcDbEntity
  8
mav-cubby-hinge-front
  6
ByLayer
 62
  256
370
   -1
100
AcDbLine
 10
-3
 20
-261
 11
-3
 21
-341
  0
ARC
  5
265
100
AcDbEntity
  8
mav-cubby-hinge-front
  6
ByLayer
 62
  256
370
   -1
100
AcDbCircle
 10
-2
 20
-341
 40
1
100
AcDbArc
 50
180
 51
270
  0
LINE
  5
266
100
AcDbEntity
  8
mav-cubby-hinge-front
  6
ByLayer
 62
  256
370
   -1
100
AcDbLine
 10
-2
 20
-342
 11
52
 21
-342
  0
LINE
  5
267
100
AcDbEntity
  8
mav-cubby-hinge-front
  6
ByLayer
 62
  256
370
   -1
100
AcDbLine
 10
53
 20
-341
 11
53
 21
-261
  0
ARC
  5
268
100
AcDbEntity
  8
mav-cubby-hinge-front
  6
ByLayer
 62
  256
370
   -1
100
AcDbCircle
 10
52
 20
-341
 40
1
100
AcDbArc
 50
270
 51
0
  0
LINE
  5
269
100
AcDbEntity
  8
mav-cubby-hinge-front
  6
ByLayer
 62
  256
370
   -1
100
AcDbLine
 10
25
 20
-260
 11
25
 21
-342
  0
LINE
  5
26A
100
AcDbEntity
  8
mav-cubby-hinge-front
  6
ByLayer
 62
  256
370
   -1
100
AcDbLine
 10
25
 20
-342
 11
25
 21
-301
  0
LINE
  5
26B
100
AcDbEntity
  8
mav-cubby-hinge-front
  6
ByLayer
 62
  256
370
   -1
100
AcDbLine
 10
25
 20
-301
 11
53
 21
-301
  0
LINE
  5
26C
100
AcDbEntity
  8
mav-cubby-hinge-front
  6
ByLayer
 62
  256
370
   -1
100
AcDbLine
 10
25
 20
-260
 11
25
 21
-301
  0
LINE
  5
26D
100
AcDbEntity
  8
mav-cubby-hinge-front
  6
ByLayer
 62
  256
370
   -1
100
AcDbLine
 10
25
 20
-301
 11
25
 21
-280.5
  0
LINE
  5
26E
100
AcDbEntity
  8
mav-cubby-hinge-front
  6
ByLayer
 62
  256
370
   -1
100
AcDbLine
 10
25
 20
-280.5
 11
53.00000000000001
 21
-280.5
  0
LINE
  5
26F
100
AcDbEntity
  8
vref
  6
ByLayer
 62
  256
370
   -1
100
AcDbLine
 10
173.3320065834081
 20
-280.5
 11
173.3320065834081
 21
-270.5
  0
LINE
  5
270
100
AcDbEntity
  8
vref
  6
ByLayer
 62
  256
370
   -1
100
AcDbLine
 10
166.5320065834081
 20
-280.5
 11
166.5320065834081
 21
-270.5
  0
LINE
  5
271
100
AcDbEntity
  8
vref
  6
ByLayer
 62
  256
370
   -1
100
AcDbLine
 10
156.3320065834081
 20
-280.5
 11
156.3320065834081
 21
-270.5
  0
LINE
  5
272
100
AcDbEntity
  8
vref
  6
ByLayer
 62
  256
370
   -1
100
AcDbLine
 10
149.5320065834081
 20
-280.5
 11
149.5320065834081
 21
-270.5
  0
LINE
  5
273
100
AcDbEntity
  8
vref
  6
ByLayer
 62
  256
370
   -1
100
AcDbLine
 10
183.5320065834081
 20
-280.5
 11
183.5320065834081
 21
-270.5
  0
LINE
  5
274
100
AcDbEntity
  8
vref
  6
ByLayer
 62
  256
370
   -1
100
AcDbLine
 10
190.3320065834081
 20
-280.5
 11
190.3320065834081
 21
-270.5
  0
LINE
  5
275
100
AcDbEntity
  8
mav-cubby-hinge-bottom
  6
ByLayer
 62
  256
370
   -1
100
AcDbLine
 10
149.5320065834081
 20
-245
 11
149.5320065834081
 21
-241.6
  0
LINE
  5
276
100
AcDbEntity
  8
mav-cubby-hinge-bottom
  6
ByLayer
 62
  256
370
   -1
100
AcDbLine
 10
149.5320065834081
 20
-241.6
 11
156.3320065834081
 21
-241.6
  0
LINE
  5
277
100
AcDbEntity
  8
mav-cubby-hinge-bottom
  6
ByLayer
 62
  256
370
   -1
100
AcDbLine
 10
156.3320065834081
 20
-241.6
 11
156.3320065834081
 21
-245
  0
LINE
  5
278
100
AcDbEntity
  8
mav-cubby-hinge-bottom
  6
ByLayer
 62
  256
370
   -1
100
AcDbLine
 10
156.3320065834081
 20
-245
 11
166.5320065834081
 21
-245
  0
LINE
  5
279
100
AcDbEntity
  8
mav-cubby-hinge-bottom
  6
ByLayer
 62
  256
370
   -1
100
AcDbLine
 10
166.5320065834081
 20
-245
 11
166.5320065834081
 21
-241.6
  0
LINE
  5
27A
100
AcDbEntity
  8
mav-cubby-hinge-bottom
  6
ByLayer
 62
  256
370
   -1
100
AcDbLine
 10
166.5320065834081
 20
-241.6
 11
173.3320065834081
 21
-241.6
  0
LINE
  5
27B
100
AcDbEntity
  8
mav-cubby-hinge-bottom
  6
ByLayer
 62
  256
370
   -1
100
AcDbLine
 10
173.3320065834081
 20
-241.6
 11
173.3320065834081
 21
-245
  0
LINE
  5
27C
100
AcDbEntity
  8
mav-cubby-hinge-bottom
  6
ByLayer
 62
  256
370
   -1
100
AcDbLine
 10
173.3320065834081
 20
-245
 11
183.5320065834081
 21
-245
  0
LINE
  5
27D
100
AcDbEntity
  8
mav-cubby-hinge-bottom
  6
ByLayer
 62
  256
370
   -1
100
AcDbLine
 10
183.5320065834081
 20
-245
 11
183.5320065834081
 21
-241.6
  0
LINE
  5
27E
100
AcDbEntity
  8
mav-cubby-hinge-bottom
  6
ByLayer
 62
  256
370
   -1
100
AcDbLine
 10
183.5320065834081
 20
-241.6
 11
190.3320065834081
 21
-241.6
  0
LINE
  5
27F
100
AcDbEntity
  8
mav-cubby-hinge-bottom
  6
ByLayer
 62
  256
370
   -1
100
AcDbLine
 10
190.3320065834081
 20
-241.6
 11
190.3320065834081
 21
-245
  0
LINE
  5
280
100
AcDbEntity
  8
mav-cubby-hinge-bottom
  6
ByLayer
 62
  256
370
   -1
100
AcDbLine
 10
190.3320065834081
 20
-245
 11
198
 21
-245
  0
LINE
  5
281
100
AcDbEntity
  8
mav-cubby-hinge-bottom
  6
ByLayer
 62
  256
370
   -1
100
AcDbLine
 10
141.8640131668162
 20
-245
 11
149.5320065834081
 21
-245
  0
LINE
  5
282
100
AcDbEntity
  8
Construction
  6
ByLayer
 62
  256
370
   -1
100
AcDbLine
 10
166.5320065834081
 20
-239.9
 11
173.3320065834081
 21
-239.9
  0
CIRCLE
  5
283
100
AcDbEntity
  8
mav-cubby-hinge-bottom
  6
ByLayer
 62
  256
370
   -1
100
AcDbCircle
 10
170
 20
-256
 40
4
  0
CIRCLE
  5
284
100
AcDbEntity
  8
mav-cubby-hinge-bottom
  6
ByLayer
 62
  256
370
   -1
100
AcDbCircle
 10
180.6668682345324
 20
-256.0037714591283
 40
2
  0
CIRCLE
  5
285
100
AcDbEntity
  8
mav-cubby-hinge-bottom
  6
ByLayer
 62
  256
370
   -1
100
AcDbCircle
 10
186.0199606266667
 20
-256.0824934060714
 40
2
  0
ENDSEC
  0
SECTION
  2
OBJECTS
  0
DICTIONARY
  5
C
330
0
100
AcDbDictionary
281
    1
  3
ACAD_GROUP
350
D
  0
DICTIONARY
  5
D
330
C
100
AcDbDictionary
281
    1
  0
PLOTSETTINGS
  5
286
100
AcDbPlotSettings
  6
1x1
 40
0
 41
0
 42
0
 43
0
  0
ENDSEC
  0
EOF
