<?xml version="1.0"?>
<svg xmlns="http://www.w3.org/2000/svg" xmlns:lc="https://librecad.org" xmlns:xlink="http://www.w3.org/1999/xlink" width="363mm" height="565.5381mm" viewBox="0 0 363 565.5381">
    <g lc:layername="0" lc:is_locked="false" lc:is_construction="false" fill="none" stroke="black" stroke-width="0.1"/>
    <g lc:layername="Continuous" lc:is_locked="false" lc:is_construction="false" fill="none" stroke="black" stroke-width="0.1"/>
    <g lc:layername="dummy-box" lc:is_locked="false" lc:is_construction="false" fill="none" stroke="black" stroke-width="0.1">
        <line x1="157" y1="535.5381" x2="213" y2="535.5381"/>
        <line x1="213" y1="535.5381" x2="213" y2="565.5381"/>
        <line x1="213" y1="565.5381" x2="157" y2="565.5381"/>
        <line x1="157" y1="565.5381" x2="157" y2="535.5381"/>
        <line x1="157" y1="395.5381" x2="213" y2="395.5381"/>
        <line x1="213" y1="395.5381" x2="213" y2="425.5381"/>
        <line x1="213" y1="425.5381" x2="157" y2="425.5381"/>
        <line x1="157" y1="425.5381" x2="157" y2="395.5381"/>
        <line x1="90" y1="415.5381" x2="146" y2="415.5381"/>
        <line x1="146" y1="415.5381" x2="146" y2="333.5381"/>
        <line x1="146" y1="333.5381" x2="90" y2="333.5381"/>
        <line x1="90" y1="333.5381" x2="90" y2="415.5381"/>
        <line x1="120" y1="525.5381" x2="120" y2="443.5381"/>
        <line x1="160.4" y1="446.9381" x2="160.4" y2="451.5381"/>
        <line x1="160.4" y1="451.5381" x2="157" y2="451.5381"/>
        <line x1="157" y1="451.5381" x2="157" y2="457.5381"/>
        <line x1="157" y1="457.5381" x2="160.4" y2="457.5381"/>
        <line x1="160.4" y1="457.5381" x2="160.4" y2="463.5381"/>
        <line x1="160.4" y1="463.5381" x2="157" y2="463.5381"/>
        <line x1="157" y1="463.5381" x2="157" y2="469.5381"/>
        <line x1="157" y1="469.5381" x2="160.4" y2="469.5381"/>
        <line x1="160.4" y1="469.5381" x2="160.4" y2="475.5381"/>
        <line x1="160.4" y1="475.5381" x2="157" y2="475.5381"/>
        <line x1="157" y1="475.5381" x2="157" y2="481.5381"/>
        <line x1="157" y1="481.5381" x2="160.4" y2="481.5381"/>
        <line x1="160.4" y1="481.5381" x2="160.4" y2="487.5381"/>
        <line x1="160.4" y1="487.5381" x2="157" y2="487.5381"/>
        <line x1="157" y1="487.5381" x2="157" y2="493.5381"/>
        <line x1="157" y1="493.5381" x2="160.4" y2="493.5381"/>
        <line x1="160.4" y1="493.5381" x2="160.4" y2="499.5381"/>
        <line x1="160.4" y1="499.5381" x2="157" y2="499.5381"/>
        <line x1="157" y1="499.5381" x2="157" y2="505.5381"/>
        <line x1="157" y1="505.5381" x2="160.4" y2="505.5381"/>
        <line x1="160.4" y1="505.5381" x2="160.4" y2="511.5381"/>
        <line x1="160.4" y1="511.5381" x2="157" y2="511.5381"/>
        <line x1="157" y1="511.5381" x2="157" y2="517.5381"/>
        <line x1="157" y1="517.5381" x2="160.4" y2="517.5381"/>
        <line x1="160.4" y1="517.5381" x2="160.4" y2="522.1381"/>
        <line x1="160.4" y1="522.1381" x2="157" y2="522.1381"/>
        <line x1="157" y1="522.1381" x2="157" y2="525.5381"/>
        <line x1="157" y1="446.9381" x2="160.4" y2="446.9381"/>
        <line x1="157" y1="443.5381" x2="157" y2="446.9381"/>
        <line x1="150" y1="446.9381" x2="150" y2="451.5381"/>
        <line x1="150" y1="451.5381" x2="146.6" y2="451.5381"/>
        <line x1="146.6" y1="451.5381" x2="146.6" y2="457.5381"/>
        <line x1="146.6" y1="457.5381" x2="150" y2="457.5381"/>
        <line x1="150" y1="457.5381" x2="150" y2="463.5381"/>
        <line x1="150" y1="463.5381" x2="146.6" y2="463.5381"/>
        <line x1="146.6" y1="463.5381" x2="146.6" y2="469.5381"/>
        <line x1="146.6" y1="469.5381" x2="150" y2="469.5381"/>
        <line x1="150" y1="469.5381" x2="150" y2="475.5381"/>
        <line x1="150" y1="475.5381" x2="146.6" y2="475.5381"/>
        <line x1="146.6" y1="475.5381" x2="146.6" y2="481.5381"/>
        <line x1="146.6" y1="481.5381" x2="150" y2="481.5381"/>
        <line x1="150" y1="481.5381" x2="150" y2="487.5381"/>
        <line x1="150" y1="487.5381" x2="146.6" y2="487.5381"/>
        <line x1="146.6" y1="487.5381" x2="146.6" y2="493.5381"/>
        <line x1="146.6" y1="493.5381" x2="150" y2="493.5381"/>
        <line x1="150" y1="493.5381" x2="150" y2="499.5381"/>
        <line x1="150" y1="499.5381" x2="146.6" y2="499.5381"/>
        <line x1="146.6" y1="499.5381" x2="146.6" y2="505.5381"/>
        <line x1="146.6" y1="505.5381" x2="150" y2="505.5381"/>
        <line x1="150" y1="505.5381" x2="150" y2="511.5381"/>
        <line x1="150" y1="511.5381" x2="146.6" y2="511.5381"/>
        <line x1="146.6" y1="511.5381" x2="146.6" y2="517.5381"/>
        <line x1="146.6" y1="517.5381" x2="150" y2="517.5381"/>
        <line x1="150" y1="517.5381" x2="150" y2="522.1381"/>
        <line x1="150" y1="522.1381" x2="146.6" y2="522.1381"/>
        <line x1="146.6" y1="446.9381" x2="150" y2="446.9381"/>
        <line x1="146.6" y1="443.5381" x2="146.6" y2="446.9381"/>
        <line x1="120" y1="443.5381" x2="146.6" y2="443.5381"/>
        <line x1="146.6" y1="522.1381" x2="146.6" y2="525.5381"/>
        <line x1="146.6" y1="525.5381" x2="120" y2="525.5381"/>
        <line x1="209.6" y1="446.9381" x2="209.6" y2="451.5381"/>
        <line x1="209.6" y1="451.5381" x2="213" y2="451.5381"/>
        <line x1="213" y1="451.5381" x2="213" y2="457.5381"/>
        <line x1="213" y1="457.5381" x2="209.6" y2="457.5381"/>
        <line x1="209.6" y1="457.5381" x2="209.6" y2="463.5381"/>
        <line x1="209.6" y1="463.5381" x2="213" y2="463.5381"/>
        <line x1="213" y1="463.5381" x2="213" y2="469.5381"/>
        <line x1="213" y1="469.5381" x2="209.6" y2="469.5381"/>
        <line x1="209.6" y1="469.5381" x2="209.6" y2="475.5381"/>
        <line x1="209.6" y1="475.5381" x2="213" y2="475.5381"/>
        <line x1="213" y1="475.5381" x2="213" y2="481.5381"/>
        <line x1="213" y1="481.5381" x2="209.6" y2="481.5381"/>
        <line x1="209.6" y1="481.5381" x2="209.6" y2="487.5381"/>
        <line x1="209.6" y1="487.5381" x2="213" y2="487.5381"/>
        <line x1="213" y1="487.5381" x2="213" y2="493.5381"/>
        <line x1="213" y1="493.5381" x2="209.6" y2="493.5381"/>
        <line x1="209.6" y1="493.5381" x2="209.6" y2="499.5381"/>
        <line x1="209.6" y1="499.5381" x2="213" y2="499.5381"/>
        <line x1="213" y1="499.5381" x2="213" y2="505.5381"/>
        <line x1="213" y1="505.5381" x2="209.6" y2="505.5381"/>
        <line x1="209.6" y1="505.5381" x2="209.6" y2="511.5381"/>
        <line x1="209.6" y1="511.5381" x2="213" y2="511.5381"/>
        <line x1="213" y1="511.5381" x2="213" y2="517.5381"/>
        <line x1="213" y1="517.5381" x2="209.6" y2="517.5381"/>
        <line x1="209.6" y1="517.5381" x2="209.6" y2="522.1381"/>
        <line x1="209.6" y1="522.1381" x2="213" y2="522.1381"/>
        <line x1="213" y1="522.1381" x2="213" y2="525.5381"/>
        <line x1="213" y1="446.9381" x2="209.6" y2="446.9381"/>
        <line x1="213" y1="443.5381" x2="213" y2="446.9381"/>
        <line x1="206" y1="525.5381" x2="206" y2="522.1381"/>
        <line x1="206" y1="522.1381" x2="200" y2="522.1381"/>
        <line x1="200" y1="522.1381" x2="200" y2="525.5381"/>
        <line x1="200" y1="525.5381" x2="194" y2="525.5381"/>
        <line x1="194" y1="525.5381" x2="194" y2="522.1381"/>
        <line x1="194" y1="522.1381" x2="188" y2="522.1381"/>
        <line x1="188" y1="522.1381" x2="188" y2="525.5381"/>
        <line x1="188" y1="525.5381" x2="182" y2="525.5381"/>
        <line x1="182" y1="525.5381" x2="182" y2="522.1381"/>
        <line x1="182" y1="522.1381" x2="176" y2="522.1381"/>
        <line x1="176" y1="522.1381" x2="176" y2="525.5381"/>
        <line x1="176" y1="525.5381" x2="170" y2="525.5381"/>
        <line x1="170" y1="525.5381" x2="170" y2="522.1381"/>
        <line x1="170" y1="522.1381" x2="164" y2="522.1381"/>
        <line x1="164" y1="522.1381" x2="164" y2="525.5381"/>
        <line x1="164" y1="525.5381" x2="157" y2="525.5381"/>
        <line x1="206" y1="525.5381" x2="213" y2="525.5381"/>
        <line x1="206" y1="443.5381" x2="206" y2="446.9381"/>
        <line x1="206" y1="446.9381" x2="200" y2="446.9381"/>
        <line x1="200" y1="446.9381" x2="200" y2="443.5381"/>
        <line x1="200" y1="443.5381" x2="194" y2="443.5381"/>
        <line x1="194" y1="443.5381" x2="194" y2="446.9381"/>
        <line x1="194" y1="446.9381" x2="188" y2="446.9381"/>
        <line x1="188" y1="446.9381" x2="188" y2="443.5381"/>
        <line x1="188" y1="443.5381" x2="182" y2="443.5381"/>
        <line x1="182" y1="443.5381" x2="182" y2="446.9381"/>
        <line x1="182" y1="446.9381" x2="176" y2="446.9381"/>
        <line x1="176" y1="446.9381" x2="176" y2="443.5381"/>
        <line x1="176" y1="443.5381" x2="170" y2="443.5381"/>
        <line x1="170" y1="443.5381" x2="170" y2="446.9381"/>
        <line x1="170" y1="446.9381" x2="164" y2="446.9381"/>
        <line x1="164" y1="446.9381" x2="164" y2="443.5381"/>
        <line x1="164" y1="443.5381" x2="157" y2="443.5381"/>
        <line x1="206" y1="443.5381" x2="213" y2="443.5381"/>
    </g>
    <g lc:layername="mav-cubby-back" lc:is_locked="true" lc:is_construction="false" fill="none" stroke="black" stroke-width="0.1">
        <line x1="206.6" y1="152.1381" x2="206.6" y2="146.0381"/>
        <line x1="206.6" y1="146.0381" x2="210" y2="146.0381"/>
        <line x1="210" y1="146.0381" x2="210" y2="140.0381"/>
        <line x1="210" y1="140.0381" x2="206.6" y2="140.0381"/>
        <line x1="206.6" y1="140.0381" x2="206.6" y2="134.0381"/>
        <line x1="206.6" y1="134.0381" x2="210" y2="134.0381"/>
        <line x1="210" y1="134.0381" x2="210" y2="128.0381"/>
        <line x1="210" y1="128.0381" x2="206.6" y2="128.0381"/>
        <line x1="206.6" y1="128.0381" x2="206.6" y2="122.0381"/>
        <line x1="206.6" y1="122.0381" x2="210" y2="122.0381"/>
        <line x1="210" y1="122.0381" x2="210" y2="116.0381"/>
        <line x1="210" y1="116.0381" x2="206.6" y2="116.0381"/>
        <line x1="206.6" y1="116.0381" x2="206.6" y2="110.0381"/>
        <line x1="206.6" y1="110.0381" x2="210" y2="110.0381"/>
        <line x1="210" y1="110.0381" x2="210" y2="104.0381"/>
        <line x1="210" y1="104.0381" x2="206.6" y2="104.0381"/>
        <line x1="206.6" y1="104.0381" x2="206.6" y2="98.0381"/>
        <line x1="206.6" y1="98.0381" x2="210" y2="98.0381"/>
        <line x1="210" y1="98.0381" x2="210" y2="92.0381"/>
        <line x1="210" y1="92.0381" x2="206.6" y2="92.0381"/>
        <line x1="206.6" y1="92.0381" x2="206.6" y2="85.9381"/>
        <line x1="206.6" y1="85.9381" x2="210" y2="85.9381"/>
        <line x1="206.6" y1="152.1381" x2="210" y2="152.1381"/>
        <line x1="160" y1="85.9381" x2="163.4" y2="85.9381"/>
        <line x1="163.4" y1="85.9381" x2="163.4" y2="92.0381"/>
        <line x1="163.4" y1="92.0381" x2="160" y2="92.0381"/>
        <line x1="160" y1="92.0381" x2="160" y2="98.0381"/>
        <line x1="160" y1="98.0381" x2="163.4" y2="98.0381"/>
        <line x1="163.4" y1="98.0381" x2="163.4" y2="104.0381"/>
        <line x1="163.4" y1="104.0381" x2="160" y2="104.0381"/>
        <line x1="160" y1="104.0381" x2="160" y2="110.0381"/>
        <line x1="160" y1="110.0381" x2="163.4" y2="110.0381"/>
        <line x1="163.4" y1="110.0381" x2="163.4" y2="116.0381"/>
        <line x1="163.4" y1="116.0381" x2="160" y2="116.0381"/>
        <line x1="160" y1="116.0381" x2="160" y2="122.0381"/>
        <line x1="160" y1="122.0381" x2="163.4" y2="122.0381"/>
        <line x1="163.4" y1="122.0381" x2="163.4" y2="128.0381"/>
        <line x1="163.4" y1="128.0381" x2="160" y2="128.0381"/>
        <line x1="160" y1="128.0381" x2="160" y2="134.0381"/>
        <line x1="160" y1="134.0381" x2="163.4" y2="134.0381"/>
        <line x1="163.4" y1="134.0381" x2="163.4" y2="140.0381"/>
        <line x1="163.4" y1="140.0381" x2="160" y2="140.0381"/>
        <line x1="160" y1="140.0381" x2="160" y2="146.0381"/>
        <line x1="160" y1="146.0381" x2="163.4" y2="146.0381"/>
        <line x1="163.4" y1="146.0381" x2="163.4" y2="152.1381"/>
        <line x1="163.4" y1="152.1381" x2="160" y2="152.1381"/>
        <line x1="160" y1="152.1381" x2="160" y2="155.5381"/>
        <line x1="170" y1="155.5381" x2="170" y2="152.1381"/>
        <line x1="170" y1="152.1381" x2="176" y2="152.1381"/>
        <line x1="176" y1="152.1381" x2="176" y2="155.5381"/>
        <line x1="176" y1="155.5381" x2="182" y2="155.5381"/>
        <line x1="182" y1="155.5381" x2="182" y2="152.1381"/>
        <line x1="182" y1="152.1381" x2="188" y2="152.1381"/>
        <line x1="188" y1="152.1381" x2="188" y2="155.5381"/>
        <line x1="188" y1="155.5381" x2="194" y2="155.5381"/>
        <line x1="194" y1="155.5381" x2="194" y2="152.1381"/>
        <line x1="194" y1="152.1381" x2="200" y2="152.1381"/>
        <line x1="200" y1="152.1381" x2="200" y2="155.5381"/>
        <line x1="210" y1="82.5381" x2="210" y2="85.9381"/>
        <line x1="160" y1="82.5381" x2="160" y2="85.9381"/>
        <line x1="210" y1="155.5381" x2="210" y2="152.1381"/>
        <line x1="160" y1="155.5381" x2="170" y2="155.5381"/>
        <line x1="200" y1="155.5381" x2="210" y2="155.5381"/>
        <line x1="160" y1="82.5381" x2="210" y2="82.5381"/>
    </g>
    <g lc:layername="mav-cubby-half-bottom" lc:is_locked="true" lc:is_construction="false" fill="none" stroke="black" stroke-width="0.1">
        <line x1="6.03755935" y1="179.66679943" x2="2.64027606" y2="179.53090869"/>
        <line x1="2.64027606" y1="179.53090869" x2="2.40046889" y2="185.52611449"/>
        <line x1="2.40046889" y1="185.52611449" x2="5.79775217" y2="185.66200522"/>
        <line x1="5.79775217" y1="185.66200522" x2="5.55794499" y2="191.65721102"/>
        <line x1="5.55794499" y1="191.65721102" x2="2.16066171" y2="191.52132028"/>
        <line x1="2.16066171" y1="191.52132028" x2="1.92085453" y2="197.51652607"/>
        <line x1="1.92085453" y1="197.51652607" x2="5.31813781" y2="197.65241681"/>
        <line x1="5.31813781" y1="197.65241681" x2="5.07833063" y2="203.6476226"/>
        <line x1="5.07833063" y1="203.6476226" x2="1.68104735" y2="203.51173187"/>
        <line x1="1.68104735" y1="203.51173187" x2="1.44124017" y2="209.50693766"/>
        <line x1="1.44124017" y1="209.50693766" x2="4.83852345" y2="209.6428284"/>
        <line x1="4.83852345" y1="209.6428284" x2="4.59871627" y2="215.63803419"/>
        <line x1="4.59871627" y1="215.63803419" x2="1.20143299" y2="215.50214346"/>
        <line x1="1.20143299" y1="215.50214346" x2="0.96162581" y2="221.49734925"/>
        <line x1="0.96162581" y1="221.49734925" x2="4.35890909" y2="221.63323999"/>
        <line x1="4.35890909" y1="221.63323999" x2="4.11910191" y2="227.62844578"/>
        <line x1="4.11910191" y1="227.62844578" x2="0.72181863" y2="227.49255505"/>
        <line x1="0.72181863" y1="227.49255505" x2="0.48201145" y2="233.48776084"/>
        <line x1="0.48201145" y1="233.48776084" x2="3.87929473" y2="233.62365158"/>
        <line x1="3.87929473" y1="233.62365158" x2="3.63948756" y2="239.61885737"/>
        <line x1="3.63948756" y1="239.61885737" x2="0.24220427" y2="239.48296664"/>
        <line x1="6.03755935" y1="179.66679943" x2="6.26137938" y2="174.07127402"/>
        <line x1="50.09842749" y1="179.66679943" x2="53.49571077" y2="179.53090869"/>
        <line x1="53.49571077" y1="179.53090869" x2="53.73551795" y2="185.52611449"/>
        <line x1="53.73551795" y1="185.52611449" x2="50.33823466" y2="185.66200522"/>
        <line x1="50.33823466" y1="185.66200522" x2="50.57804184" y2="191.65721102"/>
        <line x1="50.57804184" y1="191.65721102" x2="53.97532513" y2="191.52132028"/>
        <line x1="53.97532513" y1="191.52132028" x2="54.21513231" y2="197.51652607"/>
        <line x1="54.21513231" y1="197.51652607" x2="50.81784902" y2="197.65241681"/>
        <line x1="50.81784902" y1="197.65241681" x2="51.0576562" y2="203.6476226"/>
        <line x1="51.0576562" y1="203.6476226" x2="54.45493949" y2="203.51173187"/>
        <line x1="54.45493949" y1="203.51173187" x2="54.69474667" y2="209.50693766"/>
        <line x1="54.69474667" y1="209.50693766" x2="51.29746338" y2="209.6428284"/>
        <line x1="51.29746338" y1="209.6428284" x2="51.53727056" y2="215.63803419"/>
        <line x1="51.53727056" y1="215.63803419" x2="54.93455384" y2="215.50214346"/>
        <line x1="54.93455384" y1="215.50214346" x2="55.17436102" y2="221.49734925"/>
        <line x1="55.17436102" y1="221.49734925" x2="51.77707774" y2="221.63323999"/>
        <line x1="51.77707774" y1="221.63323999" x2="52.01688492" y2="227.62844578"/>
        <line x1="52.01688492" y1="227.62844578" x2="55.4141682" y2="227.49255505"/>
        <line x1="55.4141682" y1="227.49255505" x2="55.65397538" y2="233.48776084"/>
        <line x1="55.65397538" y1="233.48776084" x2="52.2566921" y2="233.62365158"/>
        <line x1="52.2566921" y1="233.62365158" x2="52.49649928" y2="239.61885737"/>
        <line x1="52.49649928" y1="239.61885737" x2="55.89378256" y2="239.48296664"/>
        <line x1="50.09842749" y1="179.66679943" x2="49.87460745" y2="174.07127402"/>
        <line x1="46.66799342" y1="245.5381" x2="46.66799342" y2="242.1381"/>
        <line x1="46.66799342" y1="242.1381" x2="40.66799342" y2="242.1381"/>
        <line x1="40.66799342" y1="242.1381" x2="40.66799342" y2="245.5381"/>
        <line x1="40.66799342" y1="245.5381" x2="34.66799342" y2="245.5381"/>
        <line x1="34.66799342" y1="245.5381" x2="34.66799342" y2="242.1381"/>
        <line x1="21.46799342" y1="245.5381" x2="21.46799342" y2="242.1381"/>
        <line x1="15.46799342" y1="242.1381" x2="15.46799342" y2="245.5381"/>
        <line x1="9.46799342" y1="245.5381" x2="9.46799342" y2="242.1381"/>
        <line x1="9.46799342" y1="245.5381" x2="9.46799342" y2="242.1381"/>
        <line x1="9.46799342" y1="242.1381" x2="15.46799342" y2="242.1381"/>
        <line x1="15.46799342" y1="242.1381" x2="15.46799342" y2="245.5381"/>
        <line x1="15.46799342" y1="245.5381" x2="21.46799342" y2="245.5381"/>
        <line x1="21.46799342" y1="242.1381" x2="34.66799342" y2="242.1381"/>
        <line x1="0" y1="245.5381" x2="9.46799342" y2="245.5381"/>
        <line x1="0.24220427" y1="239.48296664" x2="0" y2="245.5381"/>
        <line x1="55.89378256" y1="239.48296664" x2="56.13598683" y2="245.5381"/>
        <line x1="56.13598683" y1="245.5381" x2="46.66799342" y2="245.5381"/>
        <line x1="12.85866049" y1="174.07127402" x2="12.85866049" y2="170.67127402"/>
        <line x1="12.85866049" y1="170.67127402" x2="18.85866049" y2="170.67127402"/>
        <line x1="18.85866049" y1="170.67127402" x2="18.85866049" y2="174.07127402"/>
        <line x1="18.85866049" y1="174.07127402" x2="24.85866049" y2="174.07127402"/>
        <line x1="24.85866049" y1="174.07127402" x2="24.85866049" y2="170.67127402"/>
        <line x1="24.85866049" y1="170.67127402" x2="30.85866049" y2="170.67127402"/>
        <line x1="30.85866049" y1="170.67127402" x2="30.85866049" y2="174.07127402"/>
        <line x1="30.85866049" y1="174.07127402" x2="36.85866049" y2="174.07127402"/>
        <line x1="36.85866049" y1="174.07127402" x2="36.85866049" y2="170.67127402"/>
        <line x1="36.85866049" y1="170.67127402" x2="42.85866049" y2="170.67127402"/>
        <line x1="42.85866049" y1="170.67127402" x2="42.85866049" y2="174.07127402"/>
        <line x1="42.85866049" y1="174.07127402" x2="49.86373624" y2="174.07127402"/>
        <line x1="6.26137938" y1="174.07127402" x2="12.85866049" y2="174.07127402"/>
    </g>
    <g lc:layername="mav-cubby-half-front" lc:is_locked="true" lc:is_construction="false" fill="none" stroke="black" stroke-width="0.1">
        <line x1="4" y1="114.5381" x2="60" y2="114.5381"/>
        <line x1="50.6" y1="155.5381" x2="44.6" y2="155.5381"/>
        <line x1="44.6" y1="155.5381" x2="44.6" y2="152.1381"/>
        <line x1="44.6" y1="152.1381" x2="38.6" y2="152.1381"/>
        <line x1="38.6" y1="152.1381" x2="38.6" y2="155.5381"/>
        <line x1="25.4" y1="152.1381" x2="25.4" y2="155.5381"/>
        <line x1="19.4" y1="155.5381" x2="19.4" y2="152.1381"/>
        <line x1="13.4" y1="152.1381" x2="13.4" y2="155.5381"/>
        <line x1="13.4" y1="152.1381" x2="13.4" y2="155.5381"/>
        <line x1="13.4" y1="155.5381" x2="19.4" y2="155.5381"/>
        <line x1="19.4" y1="155.5381" x2="19.4" y2="152.1381"/>
        <line x1="19.4" y1="152.1381" x2="25.4" y2="152.1381"/>
        <line x1="25.4" y1="155.5381" x2="38.6" y2="155.5381"/>
        <line x1="50.6" y1="152.1381" x2="50.6" y2="155.5381"/>
        <line x1="60" y1="122.1381" x2="56.6" y2="122.1381"/>
        <line x1="56.6" y1="122.1381" x2="56.6" y2="128.1381"/>
        <line x1="56.6" y1="128.1381" x2="60" y2="128.1381"/>
        <line x1="60" y1="128.1381" x2="60" y2="134.1381"/>
        <line x1="60" y1="134.1381" x2="56.6" y2="134.1381"/>
        <line x1="56.6" y1="134.1381" x2="56.6" y2="140.1381"/>
        <line x1="56.6" y1="140.1381" x2="60" y2="140.1381"/>
        <line x1="60" y1="140.1381" x2="60" y2="146.1381"/>
        <line x1="60" y1="146.1381" x2="56.6" y2="146.1381"/>
        <line x1="56.6" y1="146.1381" x2="56.6" y2="152.1381"/>
        <line x1="60" y1="114.5381" x2="60" y2="122.1381"/>
        <line x1="56.6" y1="152.1381" x2="50.6" y2="152.1381"/>
        <line x1="4" y1="122.1381" x2="7.4" y2="122.1381"/>
        <line x1="7.4" y1="122.1381" x2="7.4" y2="128.1381"/>
        <line x1="7.4" y1="128.1381" x2="4" y2="128.1381"/>
        <line x1="4" y1="128.1381" x2="4" y2="134.1381"/>
        <line x1="4" y1="134.1381" x2="7.4" y2="134.1381"/>
        <line x1="7.4" y1="134.1381" x2="7.4" y2="140.1381"/>
        <line x1="7.4" y1="140.1381" x2="4" y2="140.1381"/>
        <line x1="4" y1="140.1381" x2="4" y2="146.1381"/>
        <line x1="4" y1="146.1381" x2="7.4" y2="146.1381"/>
        <line x1="7.4" y1="146.1381" x2="7.4" y2="152.1381"/>
        <line x1="4" y1="114.5381" x2="4" y2="122.1381"/>
        <line x1="7.4" y1="152.1381" x2="13.4" y2="152.1381"/>
    </g>
    <g lc:layername="mav-cubby-half-side" lc:is_locked="true" lc:is_construction="false" fill="none" stroke="black" stroke-width="0.1">
        <line x1="146.6" y1="85.9381" x2="150" y2="85.9381"/>
        <line x1="150" y1="85.9381" x2="150" y2="92.0381"/>
        <line x1="150" y1="92.0381" x2="146.6" y2="92.0381"/>
        <line x1="146.6" y1="92.0381" x2="146.6" y2="98.0381"/>
        <line x1="146.6" y1="98.0381" x2="150" y2="98.0381"/>
        <line x1="150" y1="98.0381" x2="150" y2="104.0381"/>
        <line x1="150" y1="104.0381" x2="146.6" y2="104.0381"/>
        <line x1="146.6" y1="104.0381" x2="146.6" y2="110.0381"/>
        <line x1="146.6" y1="110.0381" x2="150" y2="110.0381"/>
        <line x1="150" y1="110.0381" x2="150" y2="116.0381"/>
        <line x1="150" y1="116.0381" x2="146.6" y2="116.0381"/>
        <line x1="146.6" y1="116.0381" x2="146.6" y2="122.0381"/>
        <line x1="146.6" y1="122.0381" x2="150" y2="122.0381"/>
        <line x1="150" y1="122.0381" x2="150" y2="128.0381"/>
        <line x1="150" y1="128.0381" x2="146.6" y2="128.0381"/>
        <line x1="146.6" y1="128.0381" x2="146.6" y2="134.0381"/>
        <line x1="146.6" y1="134.0381" x2="150" y2="134.0381"/>
        <line x1="150" y1="134.0381" x2="150" y2="140.0381"/>
        <line x1="150" y1="140.0381" x2="146.6" y2="140.0381"/>
        <line x1="146.6" y1="140.0381" x2="146.6" y2="146.0381"/>
        <line x1="146.6" y1="146.0381" x2="150" y2="146.0381"/>
        <line x1="150" y1="146.0381" x2="150" y2="152.1381"/>
        <line x1="150" y1="152.1381" x2="146.6" y2="152.1381"/>
        <line x1="146.6" y1="152.1381" x2="146.6" y2="155.5381"/>
        <line x1="146.6" y1="82.1301" x2="146.6" y2="85.9381"/>
        <line x1="146.6" y1="82.1301" x2="75" y2="73.5381"/>
        <line x1="141" y1="155.5381" x2="141" y2="152.1381"/>
        <line x1="141" y1="152.1381" x2="135" y2="152.1381"/>
        <line x1="135" y1="152.1381" x2="135" y2="155.5381"/>
        <line x1="135" y1="155.5381" x2="129" y2="155.5381"/>
        <line x1="129" y1="155.5381" x2="129" y2="152.1381"/>
        <line x1="129" y1="152.1381" x2="123" y2="152.1381"/>
        <line x1="123" y1="152.1381" x2="123" y2="155.5381"/>
        <line x1="123" y1="155.5381" x2="117" y2="155.5381"/>
        <line x1="117" y1="155.5381" x2="117" y2="152.1381"/>
        <line x1="117" y1="152.1381" x2="111" y2="152.1381"/>
        <line x1="111" y1="152.1381" x2="111" y2="155.5381"/>
        <line x1="111" y1="155.5381" x2="105" y2="155.5381"/>
        <line x1="105" y1="155.5381" x2="105" y2="152.1381"/>
        <line x1="105" y1="152.1381" x2="99" y2="152.1381"/>
        <line x1="99" y1="152.1381" x2="99" y2="155.5381"/>
        <line x1="99" y1="155.5381" x2="93" y2="155.5381"/>
        <line x1="93" y1="155.5381" x2="93" y2="152.1381"/>
        <line x1="93" y1="152.1381" x2="87" y2="152.1381"/>
        <line x1="87" y1="152.1381" x2="87" y2="155.5381"/>
        <line x1="87" y1="155.5381" x2="81" y2="155.5381"/>
        <line x1="81" y1="155.5381" x2="81" y2="152.1381"/>
        <line x1="81" y1="152.1381" x2="75" y2="152.1381"/>
        <line x1="141" y1="155.5381" x2="146.6" y2="155.5381"/>
        <line x1="78.4" y1="122.1381" x2="75" y2="122.1381"/>
        <line x1="75" y1="122.1381" x2="75" y2="128.1381"/>
        <line x1="75" y1="128.1381" x2="78.4" y2="128.1381"/>
        <line x1="78.4" y1="128.1381" x2="78.4" y2="134.1381"/>
        <line x1="78.4" y1="134.1381" x2="75" y2="134.1381"/>
        <line x1="75" y1="134.1381" x2="75" y2="140.1381"/>
        <line x1="75" y1="140.1381" x2="78.4" y2="140.1381"/>
        <line x1="78.4" y1="140.1381" x2="78.4" y2="146.1381"/>
        <line x1="78.4" y1="146.1381" x2="75" y2="146.1381"/>
        <line x1="75" y1="146.1381" x2="75" y2="152.1381"/>
        <line x1="78.4" y1="114.5381" x2="78.4" y2="122.1381"/>
        <line x1="78.4" y1="114.5381" x2="75" y2="114.5381"/>
        <line x1="75" y1="114.5381" x2="75" y2="73.5381"/>
    </g>
    <g lc:layername="mav-cubby-hinge-bottom" lc:is_locked="false" lc:is_construction="false" fill="none" stroke="black" stroke-width="0.1">
        <line x1="307.90157251" y1="174.66679943" x2="304.50428923" y2="174.53090869"/>
        <line x1="304.50428923" y1="174.53090869" x2="304.26448205" y2="180.52611449"/>
        <line x1="304.26448205" y1="180.52611449" x2="307.66176534" y2="180.66200522"/>
        <line x1="307.66176534" y1="180.66200522" x2="307.42195816" y2="186.65721102"/>
        <line x1="307.42195816" y1="186.65721102" x2="304.02467487" y2="186.52132028"/>
        <line x1="304.02467487" y1="186.52132028" x2="303.78486769" y2="192.51652607"/>
        <line x1="303.78486769" y1="192.51652607" x2="307.18215098" y2="192.65241681"/>
        <line x1="307.18215098" y1="192.65241681" x2="306.9423438" y2="198.6476226"/>
        <line x1="306.9423438" y1="198.6476226" x2="303.54506051" y2="198.51173187"/>
        <line x1="303.54506051" y1="198.51173187" x2="303.30525333" y2="204.50693766"/>
        <line x1="303.30525333" y1="204.50693766" x2="306.70253662" y2="204.6428284"/>
        <line x1="306.70253662" y1="204.6428284" x2="306.46272944" y2="210.63803419"/>
        <line x1="306.46272944" y1="210.63803419" x2="303.06544616" y2="210.50214346"/>
        <line x1="303.06544616" y1="210.50214346" x2="302.82563898" y2="216.49734925"/>
        <line x1="302.82563898" y1="216.49734925" x2="306.22292226" y2="216.63323999"/>
        <line x1="306.22292226" y1="216.63323999" x2="305.98311508" y2="222.62844578"/>
        <line x1="305.98311508" y1="222.62844578" x2="302.5858318" y2="222.49255505"/>
        <line x1="302.5858318" y1="222.49255505" x2="302.34602462" y2="228.48776084"/>
        <line x1="302.34602462" y1="228.48776084" x2="305.7433079" y2="228.62365158"/>
        <line x1="305.7433079" y1="228.62365158" x2="305.50350072" y2="234.61885737"/>
        <line x1="305.50350072" y1="234.61885737" x2="302.10621744" y2="234.48296664"/>
        <line x1="302.10621744" y1="234.48296664" x2="301.86401317" y2="240.5381"/>
        <line x1="351.96244065" y1="174.66679943" x2="355.35972394" y2="174.53090869"/>
        <line x1="355.35972394" y1="174.53090869" x2="355.59953111" y2="180.52611449"/>
        <line x1="355.59953111" y1="180.52611449" x2="352.20224783" y2="180.66200522"/>
        <line x1="352.20224783" y1="180.66200522" x2="352.44205501" y2="186.65721102"/>
        <line x1="352.44205501" y1="186.65721102" x2="355.83933829" y2="186.52132028"/>
        <line x1="355.83933829" y1="186.52132028" x2="356.07914547" y2="192.51652607"/>
        <line x1="356.07914547" y1="192.51652607" x2="352.68186219" y2="192.65241681"/>
        <line x1="352.68186219" y1="192.65241681" x2="352.92166937" y2="198.6476226"/>
        <line x1="352.92166937" y1="198.6476226" x2="356.31895265" y2="198.51173187"/>
        <line x1="356.31895265" y1="198.51173187" x2="356.55875983" y2="204.50693766"/>
        <line x1="356.55875983" y1="204.50693766" x2="353.16147655" y2="204.6428284"/>
        <line x1="353.16147655" y1="204.6428284" x2="353.40128373" y2="210.63803419"/>
        <line x1="353.40128373" y1="210.63803419" x2="356.79856701" y2="210.50214346"/>
        <line x1="356.79856701" y1="210.50214346" x2="357.03837419" y2="216.49734925"/>
        <line x1="357.03837419" y1="216.49734925" x2="353.64109091" y2="216.63323999"/>
        <line x1="353.64109091" y1="216.63323999" x2="353.88089809" y2="222.62844578"/>
        <line x1="353.88089809" y1="222.62844578" x2="357.27818137" y2="222.49255505"/>
        <line x1="357.27818137" y1="222.49255505" x2="357.51798855" y2="228.48776084"/>
        <line x1="357.51798855" y1="228.48776084" x2="354.12070527" y2="228.62365158"/>
        <line x1="354.12070527" y1="228.62365158" x2="354.36051244" y2="234.61885737"/>
        <line x1="354.36051244" y1="234.61885737" x2="357.75779573" y2="234.48296664"/>
        <line x1="357.75779573" y1="234.48296664" x2="358" y2="240.5381"/>
        <line x1="351.96244065" y1="174.66679943" x2="351.73318501" y2="168.93538328"/>
        <line x1="307.90157251" y1="174.66679943" x2="308.13082815" y2="168.93538328"/>
        <line x1="314.72810927" y1="168.93538328" x2="314.72810927" y2="165.53538328"/>
        <line x1="314.72810927" y1="165.53538328" x2="320.72810927" y2="165.53538328"/>
        <line x1="320.72810927" y1="165.53538328" x2="320.72810927" y2="168.93538328"/>
        <line x1="320.72810927" y1="168.93538328" x2="326.72810927" y2="168.93538328"/>
        <line x1="326.72810927" y1="168.93538328" x2="326.72810927" y2="165.53538328"/>
        <line x1="326.72810927" y1="165.53538328" x2="332.72810927" y2="165.53538328"/>
        <line x1="332.72810927" y1="165.53538328" x2="332.72810927" y2="168.93538328"/>
        <line x1="332.72810927" y1="168.93538328" x2="338.72810927" y2="168.93538328"/>
        <line x1="338.72810927" y1="168.93538328" x2="338.72810927" y2="165.53538328"/>
        <line x1="338.72810927" y1="165.53538328" x2="344.72810927" y2="165.53538328"/>
        <line x1="344.72810927" y1="165.53538328" x2="344.72810927" y2="168.93538328"/>
        <line x1="344.72810927" y1="168.93538328" x2="351.73318501" y2="168.93538328"/>
        <line x1="308.13082815" y1="168.93538328" x2="314.72810927" y2="168.93538328"/>
        <line x1="309.53200658" y1="240.5381" x2="309.53200658" y2="237.1381"/>
        <line x1="309.53200658" y1="237.1381" x2="316.33200658" y2="237.1381"/>
        <line x1="316.33200658" y1="237.1381" x2="316.33200658" y2="240.5381"/>
        <line x1="316.33200658" y1="240.5381" x2="326.53200658" y2="240.5381"/>
        <line x1="326.53200658" y1="240.5381" x2="326.53200658" y2="237.1381"/>
        <line x1="326.53200658" y1="237.1381" x2="333.33200658" y2="237.1381"/>
        <line x1="333.33200658" y1="237.1381" x2="333.33200658" y2="240.5381"/>
        <line x1="333.33200658" y1="240.5381" x2="343.53200658" y2="240.5381"/>
        <line x1="343.53200658" y1="240.5381" x2="343.53200658" y2="237.1381"/>
        <line x1="343.53200658" y1="237.1381" x2="350.33200658" y2="237.1381"/>
        <line x1="350.33200658" y1="237.1381" x2="350.33200658" y2="240.5381"/>
        <line x1="350.33200658" y1="240.5381" x2="358" y2="240.5381"/>
        <line x1="301.86401317" y1="240.5381" x2="309.53200658" y2="240.5381"/>
        <circle cx="330" cy="251.5381" r="4"/>
        <circle cx="340.66686823" cy="251.54187146" r="2"/>
        <circle cx="346.01996063" cy="251.62059341" r="2"/>
    </g>
    <g lc:layername="mav-cubby-hinge-front" lc:is_locked="false" lc:is_construction="false" fill="none" stroke="black" stroke-width="0.1">
        <path d="M157,256.5381 A1,1 0 0,1 158,255.5381 "/>
        <line x1="212" y1="255.5381" x2="158" y2="255.5381"/>
        <path d="M212,255.5381 A1,1 0 0,1 213,256.5381 "/>
        <line x1="157" y1="256.5381" x2="157" y2="336.5381"/>
        <path d="M157,336.5381 A1,1 0 0,0 158,337.5381 "/>
        <line x1="158" y1="337.5381" x2="212" y2="337.5381"/>
        <line x1="213" y1="336.5381" x2="213" y2="256.5381"/>
        <path d="M212,337.5381 A1,1 0 0,0 213,336.5381 "/>
        <line x1="185" y1="255.5381" x2="185" y2="337.5381"/>
        <line x1="185" y1="337.5381" x2="185" y2="296.5381"/>
        <line x1="185" y1="296.5381" x2="213" y2="296.5381"/>
        <line x1="185" y1="255.5381" x2="185" y2="296.5381"/>
        <line x1="185" y1="296.5381" x2="185" y2="276.0381"/>
        <line x1="185" y1="276.0381" x2="213" y2="276.0381"/>
    </g>
    <g lc:layername="mav-cubby-hinge-side" lc:is_locked="true" lc:is_construction="false" fill="none" stroke="black" stroke-width="0.1">
        <line x1="289.7958644" y1="171.89708302" x2="293.1958644" y2="171.89708302"/>
        <line x1="293.1958644" y1="171.89708302" x2="293.1958644" y2="177.99708302"/>
        <line x1="293.1958644" y1="177.99708302" x2="289.7958644" y2="177.99708302"/>
        <line x1="289.7958644" y1="177.99708302" x2="289.7958644" y2="183.99708302"/>
        <line x1="289.7958644" y1="183.99708302" x2="293.1958644" y2="183.99708302"/>
        <line x1="293.1958644" y1="183.99708302" x2="293.1958644" y2="189.99708302"/>
        <line x1="293.1958644" y1="189.99708302" x2="289.7958644" y2="189.99708302"/>
        <line x1="289.7958644" y1="189.99708302" x2="289.7958644" y2="195.99708302"/>
        <line x1="289.7958644" y1="195.99708302" x2="293.1958644" y2="195.99708302"/>
        <line x1="293.1958644" y1="195.99708302" x2="293.1958644" y2="201.99708302"/>
        <line x1="293.1958644" y1="201.99708302" x2="289.7958644" y2="201.99708302"/>
        <line x1="289.7958644" y1="201.99708302" x2="289.7958644" y2="207.99708302"/>
        <line x1="289.7958644" y1="207.99708302" x2="293.1958644" y2="207.99708302"/>
        <line x1="293.1958644" y1="207.99708302" x2="293.1958644" y2="213.99708302"/>
        <line x1="293.1958644" y1="213.99708302" x2="289.7958644" y2="213.99708302"/>
        <line x1="289.7958644" y1="213.99708302" x2="289.7958644" y2="219.99708302"/>
        <line x1="289.7958644" y1="219.99708302" x2="293.1958644" y2="219.99708302"/>
        <line x1="293.1958644" y1="219.99708302" x2="293.1958644" y2="225.99708302"/>
        <line x1="293.1958644" y1="225.99708302" x2="289.7958644" y2="225.99708302"/>
        <line x1="289.7958644" y1="225.99708302" x2="289.7958644" y2="231.99708302"/>
        <line x1="289.7958644" y1="231.99708302" x2="293.1958644" y2="231.99708302"/>
        <line x1="293.1958644" y1="231.99708302" x2="293.1958644" y2="238.09708302"/>
        <line x1="293.1958644" y1="238.09708302" x2="289.7958644" y2="238.09708302"/>
        <line x1="289.7958644" y1="238.09708302" x2="289.7958644" y2="241.49708302"/>
        <line x1="289.7958644" y1="168.08908302" x2="289.7958644" y2="171.89708302"/>
        <line x1="284.1958644" y1="241.49708302" x2="284.1958644" y2="238.09708302"/>
        <line x1="284.1958644" y1="238.09708302" x2="278.1958644" y2="238.09708302"/>
        <line x1="278.1958644" y1="238.09708302" x2="278.1958644" y2="241.49708302"/>
        <line x1="278.1958644" y1="241.49708302" x2="272.1958644" y2="241.49708302"/>
        <line x1="272.1958644" y1="241.49708302" x2="272.1958644" y2="238.09708302"/>
        <line x1="272.1958644" y1="238.09708302" x2="266.1958644" y2="238.09708302"/>
        <line x1="266.1958644" y1="238.09708302" x2="266.1958644" y2="241.49708302"/>
        <line x1="266.1958644" y1="241.49708302" x2="260.1958644" y2="241.49708302"/>
        <line x1="260.1958644" y1="241.49708302" x2="260.1958644" y2="238.09708302"/>
        <line x1="260.1958644" y1="238.09708302" x2="254.1958644" y2="238.09708302"/>
        <line x1="254.1958644" y1="238.09708302" x2="254.1958644" y2="241.49708302"/>
        <line x1="254.1958644" y1="241.49708302" x2="248.1958644" y2="241.49708302"/>
        <line x1="248.1958644" y1="241.49708302" x2="248.1958644" y2="238.09708302"/>
        <line x1="248.1958644" y1="238.09708302" x2="242.1958644" y2="238.09708302"/>
        <line x1="242.1958644" y1="238.09708302" x2="242.1958644" y2="241.49708302"/>
        <line x1="242.1958644" y1="241.49708302" x2="236.1958644" y2="241.49708302"/>
        <line x1="236.1958644" y1="241.49708302" x2="236.1958644" y2="238.09708302"/>
        <line x1="236.1958644" y1="238.09708302" x2="230.1958644" y2="238.09708302"/>
        <line x1="230.1958644" y1="238.09708302" x2="230.1958644" y2="241.49708302"/>
        <line x1="230.1958644" y1="241.49708302" x2="224.1958644" y2="241.49708302"/>
        <line x1="224.1958644" y1="241.49708302" x2="224.1958644" y2="238.09708302"/>
        <line x1="284.1958644" y1="241.49708302" x2="289.7958644" y2="241.49708302"/>
        <line x1="289.7958644" y1="168.08908302" x2="221.5958644" y2="159.90508302"/>
        <line x1="224.1958644" y1="238.09708302" x2="221.5958644" y2="238.09708302"/>
        <circle cx="252" cy="148.1381" r="4"/>
        <line x1="227.4" y1="140.7381" x2="227.4" y2="144.1381"/>
        <line x1="227.4" y1="144.1381" x2="224" y2="144.1381"/>
        <line x1="224" y1="144.1381" x2="224" y2="152.1381"/>
        <line x1="224" y1="152.1381" x2="227.4" y2="152.1381"/>
        <line x1="227.4" y1="152.1381" x2="227.4" y2="155.5381"/>
        <line x1="276.6" y1="140.7381" x2="276.6" y2="144.1381"/>
        <line x1="276.6" y1="144.1381" x2="280" y2="144.1381"/>
        <line x1="276.6" y1="155.5381" x2="276.6" y2="152.1381"/>
        <line x1="276.6" y1="152.1381" x2="280" y2="152.1381"/>
        <line x1="276.6" y1="140.7381" x2="227.4" y2="140.7381"/>
        <line x1="276.6" y1="155.5381" x2="227.4" y2="155.5381"/>
        <line x1="280" y1="144.1381" x2="280" y2="152.1381"/>
        <line x1="221.5958644" y1="159.90508302" x2="221.5958644" y2="163.30508302"/>
        <line x1="221.5958644" y1="163.30508302" x2="224.9958644" y2="163.30508302"/>
        <line x1="224.9958644" y1="163.30508302" x2="224.9958644" y2="171.30508302"/>
        <line x1="221.5958644" y1="171.30508302" x2="224.9958644" y2="171.30508302"/>
        <line x1="221.5958644" y1="238.09708302" x2="221.5958644" y2="171.30508302"/>
    </g>
    <g lc:layername="mav-cubby-top" lc:is_locked="false" lc:is_construction="false" fill="none" stroke="black" stroke-width="0.1">
        <line x1="310" y1="75.5381" x2="360" y2="75.5381"/>
        <line x1="363" y1="0" x2="307" y2="0"/>
        <line x1="307" y1="0" x2="310" y2="75.5381"/>
        <line x1="363" y1="0" x2="360" y2="75.5381"/>
        <line x1="307" y1="0" x2="363" y2="0"/>
    </g>
</svg>
